<svg xmlns="http://www.w3.org/2000/svg" xmlns:xlink="http://www.w3.org/1999/xlink" contentStyleType="text/css" height="1153px" preserveAspectRatio="none" style="width:1586px;height:1153px;background:#FFFFFF;" version="1.1" viewBox="0 0 1586 1153" width="1586px" zoomAndPan="magnify"><title>SD06 &#8212; Select Meet Attempts (F08 / UC10)</title><defs/><g><text fill="#000000" font-family="sans-serif" font-size="14" font-weight="bold" lengthAdjust="spacing" textLength="339.2129" x="622.3792" y="27.9951">SD06 &#8212; Select Meet Attempts (F08 / UC10)</text><rect fill="#EFEFEF" height="883.5313" style="stroke:#999999;stroke-width:1.0;" width="10" x="503.499" y="178.8594"/><rect fill="#EFEFEF" height="29.1328" style="stroke:#999999;stroke-width:1.0;" width="10" x="678.2729" y="207.9922"/><rect fill="#EFEFEF" height="338.3984" style="stroke:#999999;stroke-width:1.0;" width="10" x="852.6318" y="128.5938"/><rect fill="#EFEFEF" height="425.6016" style="stroke:#999999;stroke-width:1.0;" width="10" x="1047.1841" y="518.2578"/><rect fill="#EFEFEF" height="94.5313" style="stroke:#999999;stroke-width:1.0;" width="10" x="1361.2437" y="605.4609"/><rect fill="none" height="222.8672" style="stroke:#000000;stroke-width:1.5;" width="574.8242" x="429.1675" y="252.125"/><rect fill="none" height="105.3359" style="stroke:#000000;stroke-width:1.5;" width="511.6025" x="439.1675" y="276.2578"/><rect fill="none" height="221.8672" style="stroke:#000000;stroke-width:1.5;" width="1153.5981" x="10" y="714.9922"/><rect fill="none" height="104.5313" style="stroke:#000000;stroke-width:1.5;" width="567.8306" x="10" y="950.8594"/><line style="stroke:#999999;stroke-width:0.5;stroke-dasharray:5.0,5.0;" x1="41" x2="41" y1="118.5938" y2="1072.3906"/><line style="stroke:#999999;stroke-width:0.5;stroke-dasharray:5.0,5.0;" x1="277.3203" x2="277.3203" y1="118.5938" y2="1072.3906"/><line style="stroke:#999999;stroke-width:0.5;stroke-dasharray:5.0,5.0;" x1="508.1675" x2="508.1675" y1="118.5938" y2="1072.3906"/><line style="stroke:#999999;stroke-width:0.5;stroke-dasharray:5.0,5.0;" x1="683.0522" x2="683.0522" y1="118.5938" y2="1072.3906"/><line style="stroke:#999999;stroke-width:0.5;stroke-dasharray:5.0,5.0;" x1="857.4937" x2="857.4937" y1="118.5938" y2="1072.3906"/><line style="stroke:#999999;stroke-width:0.5;stroke-dasharray:5.0,5.0;" x1="1051.77" x2="1051.77" y1="118.5938" y2="1072.3906"/><line style="stroke:#999999;stroke-width:0.5;stroke-dasharray:5.0,5.0;" x1="1226.5981" x2="1226.5981" y1="118.5938" y2="1072.3906"/><line style="stroke:#999999;stroke-width:0.5;stroke-dasharray:5.0,5.0;" x1="1365.7456" x2="1365.7456" y1="118.5938" y2="1072.3906"/><text fill="#000000" font-family="sans-serif" font-size="14" lengthAdjust="spacing" textLength="36.4766" x="20" y="115.292">Lifter</text><ellipse cx="41.2383" cy="50.7969" fill="#FFFFFF" rx="8" ry="8" style="stroke:#444444;stroke-width:0.5;"/><path d="M41.2383,58.7969 L41.2383,85.7969 M28.2383,66.7969 L54.2383,66.7969 M41.2383,85.7969 L28.2383,100.7969 M41.2383,85.7969 L54.2383,100.7969 " fill="none" style="stroke:#444444;stroke-width:0.5;"/><text fill="#000000" font-family="sans-serif" font-size="14" lengthAdjust="spacing" textLength="36.4766" x="20" y="1084.3857">Lifter</text><ellipse cx="41.2383" cy="1096.1875" fill="#FFFFFF" rx="8" ry="8" style="stroke:#444444;stroke-width:0.5;"/><path d="M41.2383,1104.1875 L41.2383,1131.1875 M28.2383,1112.1875 L54.2383,1112.1875 M41.2383,1131.1875 L28.2383,1146.1875 M41.2383,1131.1875 L54.2383,1146.1875 " fill="none" style="stroke:#444444;stroke-width:0.5;"/><text fill="#000000" font-family="sans-serif" font-size="14" lengthAdjust="spacing" textLength="73.1924" x="238.3203" y="98.9951">MeetPanel</text><text fill="#000000" font-family="sans-serif" font-size="14" lengthAdjust="spacing" textLength="42.3555" x="253.7388" y="115.292">&#171;GUI&#187;</text><path d="M257.4165,58 L257.4165,82 M257.4165,70 L274.4165,70 " fill="none" style="stroke:#181818;stroke-width:0.5;"/><ellipse cx="286.4165" cy="70" fill="#E2E2F0" rx="12" ry="12" style="stroke:#181818;stroke-width:0.5;"/><text fill="#000000" font-family="sans-serif" font-size="14" lengthAdjust="spacing" textLength="73.1924" x="238.3203" y="1084.3857">MeetPanel</text><text fill="#000000" font-family="sans-serif" font-size="14" lengthAdjust="spacing" textLength="42.3555" x="253.7388" y="1100.6826">&#171;GUI&#187;</text><path d="M257.4165,1107.9844 L257.4165,1131.9844 M257.4165,1119.9844 L274.4165,1119.9844 " fill="none" style="stroke:#181818;stroke-width:0.5;"/><ellipse cx="286.4165" cy="1119.9844" fill="#E2E2F0" rx="12" ry="12" style="stroke:#181818;stroke-width:0.5;"/><text fill="#000000" font-family="sans-serif" font-size="14" lengthAdjust="spacing" textLength="112.6631" x="449.1675" y="98.9951">CoachController</text><text fill="#000000" font-family="sans-serif" font-size="14" lengthAdjust="spacing" textLength="67.5391" x="471.7295" y="115.292">&#171;Facade&#187;</text><ellipse cx="508.499" cy="70" fill="#E2E2F0" rx="12" ry="12" style="stroke:#181818;stroke-width:0.5;"/><polygon fill="#181818" points="504.499,58,510.499,53,508.499,58,510.499,63,504.499,58" style="stroke:#181818;stroke-width:1.0;"/><text fill="#000000" font-family="sans-serif" font-size="14" lengthAdjust="spacing" textLength="112.6631" x="449.1675" y="1084.3857">CoachController</text><text fill="#000000" font-family="sans-serif" font-size="14" lengthAdjust="spacing" textLength="67.5391" x="471.7295" y="1100.6826">&#171;Facade&#187;</text><ellipse cx="508.499" cy="1119.9844" fill="#E2E2F0" rx="12" ry="12" style="stroke:#181818;stroke-width:0.5;"/><polygon fill="#181818" points="504.499,1107.9844,510.499,1102.9844,508.499,1107.9844,510.499,1112.9844,504.499,1107.9844" style="stroke:#181818;stroke-width:1.0;"/><rect fill="#FFFFFF" height="30.2969" rx="2.5" ry="2.5" style="stroke:#444444;stroke-width:0.5;" width="138.4414" x="614.0522" y="87.2969"/><text fill="#000000" font-family="sans-serif" font-size="14" lengthAdjust="spacing" textLength="124.4414" x="621.0522" y="107.292">StrengthAnalytics</text><rect fill="#FFFFFF" height="30.2969" rx="2.5" ry="2.5" style="stroke:#444444;stroke-width:0.5;" width="138.4414" x="614.0522" y="1071.3906"/><text fill="#000000" font-family="sans-serif" font-size="14" lengthAdjust="spacing" textLength="124.4414" x="621.0522" y="1091.3857">StrengthAnalytics</text><rect fill="#FFFFFF" height="30.2969" rx="2.5" ry="2.5" style="stroke:#444444;stroke-width:0.5;" width="142.2764" x="786.4937" y="87.2969"/><text fill="#000000" font-family="sans-serif" font-size="14" lengthAdjust="spacing" textLength="128.2764" x="793.4937" y="107.292">AttemptCalculator</text><rect fill="#FFFFFF" height="30.2969" rx="2.5" ry="2.5" style="stroke:#444444;stroke-width:0.5;" width="142.2764" x="786.4937" y="1071.3906"/><text fill="#000000" font-family="sans-serif" font-size="14" lengthAdjust="spacing" textLength="128.2764" x="793.4937" y="1091.3857">AttemptCalculator</text><rect fill="#FFFFFF" height="30.2969" rx="2.5" ry="2.5" style="stroke:#444444;stroke-width:0.5;" width="178.8281" x="962.77" y="87.2969"/><text fill="#000000" font-family="sans-serif" font-size="14" lengthAdjust="spacing" textLength="164.8281" x="969.77" y="107.292">AttemptRationaleAgent</text><rect fill="#FFFFFF" height="30.2969" rx="2.5" ry="2.5" style="stroke:#444444;stroke-width:0.5;" width="178.8281" x="962.77" y="1071.3906"/><text fill="#000000" font-family="sans-serif" font-size="14" lengthAdjust="spacing" textLength="164.8281" x="969.77" y="1091.3857">AttemptRationaleAgent</text><rect fill="#FFFFFF" height="30.2969" rx="2.5" ry="2.5" style="stroke:#444444;stroke-width:0.5;" width="103.1475" x="1175.5981" y="87.2969"/><text fill="#000000" font-family="sans-serif" font-size="14" lengthAdjust="spacing" textLength="89.1475" x="1182.5981" y="107.292">ClaudeClient</text><rect fill="#FFFFFF" height="30.2969" rx="2.5" ry="2.5" style="stroke:#444444;stroke-width:0.5;" width="103.1475" x="1175.5981" y="1071.3906"/><text fill="#000000" font-family="sans-serif" font-size="14" lengthAdjust="spacing" textLength="89.1475" x="1182.5981" y="1091.3857">ClaudeClient</text><rect fill="#FFFFFF" height="30.2969" rx="2.5" ry="2.5" style="stroke:#444444;stroke-width:0.5;" width="106.9961" x="1312.7456" y="87.2969"/><text fill="#000000" font-family="sans-serif" font-size="14" lengthAdjust="spacing" textLength="92.9961" x="1319.7456" y="107.292">PlanValidator</text><rect fill="#FFFFFF" height="30.2969" rx="2.5" ry="2.5" style="stroke:#444444;stroke-width:0.5;" width="106.9961" x="1312.7456" y="1071.3906"/><text fill="#000000" font-family="sans-serif" font-size="14" lengthAdjust="spacing" textLength="92.9961" x="1319.7456" y="1091.3857">PlanValidator</text><rect fill="#EFEFEF" height="883.5313" style="stroke:#999999;stroke-width:1.0;" width="10" x="503.499" y="178.8594"/><rect fill="#EFEFEF" height="29.1328" style="stroke:#999999;stroke-width:1.0;" width="10" x="678.2729" y="207.9922"/><rect fill="#EFEFEF" height="338.3984" style="stroke:#999999;stroke-width:1.0;" width="10" x="852.6318" y="128.5938"/><rect fill="#EFEFEF" height="425.6016" style="stroke:#999999;stroke-width:1.0;" width="10" x="1047.1841" y="518.2578"/><rect fill="#EFEFEF" height="94.5313" style="stroke:#999999;stroke-width:1.0;" width="10" x="1361.2437" y="605.4609"/><polygon fill="#444444" points="265.9165,145.7266,275.9165,149.7266,265.9165,153.7266,269.9165,149.7266" style="stroke:#444444;stroke-width:1.0;"/><line style="stroke:#444444;stroke-width:1.0;" x1="41.2383" x2="271.9165" y1="149.7266" y2="149.7266"/><text fill="#000000" font-family="sans-serif" font-size="13" lengthAdjust="spacing" textLength="134.2783" x="48.2383" y="144.6606">onCalculateClicked()</text><polygon fill="#444444" points="491.499,174.8594,501.499,178.8594,491.499,182.8594,495.499,178.8594" style="stroke:#444444;stroke-width:1.0;"/><line style="stroke:#444444;stroke-width:1.0;" x1="277.9165" x2="497.499" y1="178.8594" y2="178.8594"/><text fill="#000000" font-family="sans-serif" font-size="13" lengthAdjust="spacing" textLength="128.8003" x="284.9165" y="173.7935">calculateAttempts()</text><polygon fill="#444444" points="666.2729,203.9922,676.2729,207.9922,666.2729,211.9922,670.2729,207.9922" style="stroke:#444444;stroke-width:1.0;"/><line style="stroke:#444444;stroke-width:1.0;" x1="513.499" x2="672.2729" y1="207.9922" y2="207.9922"/><text fill="#000000" font-family="sans-serif" font-size="13" lengthAdjust="spacing" textLength="145.7739" x="520.499" y="202.9263">currentE1RMs(history)</text><polygon fill="#444444" points="524.499,233.125,514.499,237.125,524.499,241.125,520.499,237.125" style="stroke:#444444;stroke-width:1.0;"/><line style="stroke:#444444;stroke-width:1.0;stroke-dasharray:2.0,2.0;" x1="518.499" x2="682.2729" y1="237.125" y2="237.125"/><text fill="#000000" font-family="sans-serif" font-size="13" lengthAdjust="spacing" textLength="62.9878" x="530.499" y="232.0591">Map&lt;Lift,</text><text fill="#000000" font-family="sans-serif" font-size="13" lengthAdjust="spacing" textLength="4.1323" x="593.4868" y="232.0591">&#160;</text><text fill="#000000" font-family="sans-serif" font-size="13" lengthAdjust="spacing" textLength="40.0981" x="597.6191" y="232.0591">float&gt;</text><path d="M429.1675,252.125 L505.7915,252.125 L505.7915,259.2578 L495.7915,269.2578 L429.1675,269.2578 L429.1675,252.125 " fill="#EEEEEE" style="stroke:#000000;stroke-width:1.5;"/><rect fill="none" height="222.8672" style="stroke:#000000;stroke-width:1.5;" width="574.8242" x="429.1675" y="252.125"/><text fill="#000000" font-family="sans-serif" font-size="13" font-weight="bold" lengthAdjust="spacing" textLength="31.624" x="444.1675" y="265.1919">loop</text><text fill="#000000" font-family="sans-serif" font-size="11" font-weight="bold" lengthAdjust="spacing" textLength="160.4507" x="520.7915" y="264.3354">[for each competition lift]</text><path d="M439.1675,276.2578 L503.6104,276.2578 L503.6104,283.3906 L493.6104,293.3906 L439.1675,293.3906 L439.1675,276.2578 " fill="#EEEEEE" style="stroke:#000000;stroke-width:1.5;"/><rect fill="none" height="105.3359" style="stroke:#000000;stroke-width:1.5;" width="511.6025" x="439.1675" y="276.2578"/><text fill="#000000" font-family="sans-serif" font-size="13" font-weight="bold" lengthAdjust="spacing" textLength="19.4429" x="454.1675" y="289.3247">alt</text><text fill="#000000" font-family="sans-serif" font-size="11" font-weight="bold" lengthAdjust="spacing" textLength="144.2085" x="518.6104" y="288.4683">[sufficient recent data]</text><polygon fill="#444444" points="840.6318,310.5234,850.6318,314.5234,840.6318,318.5234,844.6318,314.5234" style="stroke:#444444;stroke-width:1.0;"/><line style="stroke:#444444;stroke-width:1.0;" x1="513.499" x2="846.6318" y1="314.5234" y2="314.5234"/><text fill="#000000" font-family="sans-serif" font-size="13" lengthAdjust="spacing" textLength="84.8872" x="520.499" y="309.4575">calculate(lift,</text><text fill="#000000" font-family="sans-serif" font-size="13" lengthAdjust="spacing" textLength="4.1323" x="605.3862" y="309.4575">&#160;</text><text fill="#000000" font-family="sans-serif" font-size="13" lengthAdjust="spacing" textLength="39.3491" x="609.5186" y="309.4575">e1rm)</text><line style="stroke:#000000;stroke-width:1.0;stroke-dasharray:2.0,2.0;" x1="439.1675" x2="950.77" y1="323.5234" y2="323.5234"/><text fill="#000000" font-family="sans-serif" font-size="11" font-weight="bold" lengthAdjust="spacing" textLength="66.5532" x="444.1675" y="333.7339">[thin data]</text><polygon fill="#444444" points="840.6318,369.5938,850.6318,373.5938,840.6318,377.5938,844.6318,373.5938" style="stroke:#444444;stroke-width:1.0;"/><line style="stroke:#444444;stroke-width:1.0;" x1="513.499" x2="846.6318" y1="373.5938" y2="373.5938"/><text fill="#000000" font-family="sans-serif" font-size="13" lengthAdjust="spacing" textLength="84.8872" x="520.499" y="353.395">calculate(lift,</text><text fill="#000000" font-family="sans-serif" font-size="13" lengthAdjust="spacing" textLength="4.1323" x="605.3862" y="353.395">&#160;</text><text fill="#000000" font-family="sans-serif" font-size="13" lengthAdjust="spacing" textLength="38.4097" x="609.5186" y="353.395">e1rm,</text><text fill="#000000" font-family="sans-serif" font-size="13" lengthAdjust="spacing" textLength="4.1323" x="647.9282" y="353.395">&#160;</text><text fill="#000000" font-family="sans-serif" font-size="13" lengthAdjust="spacing" textLength="83.5161" x="652.0605" y="353.395">conservative</text><text fill="#000000" font-family="sans-serif" font-size="13" lengthAdjust="spacing" textLength="10.8926" x="520.499" y="368.5278">=</text><text fill="#000000" font-family="sans-serif" font-size="13" lengthAdjust="spacing" textLength="4.1323" x="531.3916" y="368.5278">&#160;</text><text fill="#000000" font-family="sans-serif" font-size="13" lengthAdjust="spacing" textLength="31.751" x="535.5239" y="368.5278">true)</text><line style="stroke:#444444;stroke-width:1.0;" x1="862.6318" x2="904.6318" y1="409.7266" y2="409.7266"/><line style="stroke:#444444;stroke-width:1.0;" x1="904.6318" x2="904.6318" y1="409.7266" y2="422.7266"/><line style="stroke:#444444;stroke-width:1.0;" x1="863.6318" x2="904.6318" y1="422.7266" y2="422.7266"/><polygon fill="#444444" points="873.6318,418.7266,863.6318,422.7266,873.6318,426.7266,869.6318,422.7266" style="stroke:#444444;stroke-width:1.0;"/><text fill="#000000" font-family="sans-serif" font-size="13" lengthAdjust="spacing" textLength="112.3599" x="869.6318" y="404.6606">roundToPlate(kg)</text><polygon fill="#444444" points="524.499,462.9922,514.499,466.9922,524.499,470.9922,520.499,466.9922" style="stroke:#444444;stroke-width:1.0;"/><line style="stroke:#444444;stroke-width:1.0;stroke-dasharray:2.0,2.0;" x1="518.499" x2="856.6318" y1="466.9922" y2="466.9922"/><text fill="#000000" font-family="sans-serif" font-size="13" lengthAdjust="spacing" textLength="147.1704" x="530.499" y="446.7935">MeetAttempts(opener,</text><text fill="#000000" font-family="sans-serif" font-size="13" lengthAdjust="spacing" textLength="4.1323" x="677.6694" y="446.7935">&#160;</text><text fill="#000000" font-family="sans-serif" font-size="13" lengthAdjust="spacing" textLength="50.4956" x="681.8018" y="446.7935">second,</text><text fill="#000000" font-family="sans-serif" font-size="13" lengthAdjust="spacing" textLength="35.6167" x="530.499" y="461.9263">third)</text><polygon fill="#444444" points="1035.1841,514.2578,1045.1841,518.2578,1035.1841,522.2578,1039.1841,518.2578" style="stroke:#444444;stroke-width:1.0;"/><line style="stroke:#444444;stroke-width:1.0;" x1="513.499" x2="1041.1841" y1="518.2578" y2="518.2578"/><text fill="#000000" font-family="sans-serif" font-size="13" lengthAdjust="spacing" textLength="186.9131" x="520.499" y="498.0591">run(AgentRequest(attempts,</text><text fill="#000000" font-family="sans-serif" font-size="13" lengthAdjust="spacing" textLength="45.0747" x="520.499" y="513.1919">trend))</text><rect fill="none" height="53.0703" style="stroke:#000000;stroke-width:1.5;" width="345.9756" x="947.77" y="526.2578"/><path d="M947.77,526.2578 L1012.77,526.2578 L1012.77,533.2578 L1002.77,543.2578 L947.77,543.2578 L947.77,526.2578 " fill="#EEEEEE" style="stroke:#000000;stroke-width:2.0;"/><text fill="#000000" font-family="sans-serif" font-size="13" font-weight="bold" lengthAdjust="spacing" textLength="20.8838" x="960.77" y="540.3247">ref</text><text fill="#000000" font-family="sans-serif" font-size="12" lengthAdjust="spacing" textLength="100.3594" x="1070.5781" y="558.3965">UC14 agent loop</text><text fill="#000000" font-family="sans-serif" font-size="12" lengthAdjust="spacing" textLength="66.3223" x="1087.5967" y="572.3652">(see SD03)</text><polygon fill="#444444" points="1349.2437,601.4609,1359.2437,605.4609,1349.2437,609.4609,1353.2437,605.4609" style="stroke:#444444;stroke-width:1.0;"/><line style="stroke:#444444;stroke-width:1.0;" x1="1057.1841" x2="1355.2437" y1="605.4609" y2="605.4609"/><text fill="#000000" font-family="sans-serif" font-size="13" lengthAdjust="spacing" textLength="148.7637" x="1064.1841" y="600.395">validateRationale(text,</text><text fill="#000000" font-family="sans-serif" font-size="13" lengthAdjust="spacing" textLength="4.1323" x="1212.9478" y="600.395">&#160;</text><text fill="#000000" font-family="sans-serif" font-size="13" lengthAdjust="spacing" textLength="64.0161" x="1217.0801" y="600.395">attempts)</text><path d="M1376,618.4609 L1376,673.4609 L1579,673.4609 L1579,628.4609 L1569,618.4609 L1376,618.4609 " fill="#FEFFDD" style="stroke:#181818;stroke-width:0.5;"/><path d="M1569,618.4609 L1569,628.4609 L1579,628.4609 L1569,618.4609 " fill="#FEFFDD" style="stroke:#181818;stroke-width:0.5;"/><text fill="#000000" font-family="sans-serif" font-size="13" lengthAdjust="spacing" textLength="182.9712" x="1382" y="635.5278">every number quoted in the</text><text fill="#000000" font-family="sans-serif" font-size="13" lengthAdjust="spacing" textLength="165.4072" x="1382" y="650.6606">rationale must match the</text><text fill="#000000" font-family="sans-serif" font-size="13" lengthAdjust="spacing" textLength="111.0967" x="1382" y="665.7935">calculator output</text><polygon fill="#444444" points="1068.1841,695.9922,1058.1841,699.9922,1068.1841,703.9922,1064.1841,699.9922" style="stroke:#444444;stroke-width:1.0;"/><line style="stroke:#444444;stroke-width:1.0;stroke-dasharray:2.0,2.0;" x1="1062.1841" x2="1365.2437" y1="699.9922" y2="699.9922"/><text fill="#000000" font-family="sans-serif" font-size="13" lengthAdjust="spacing" textLength="108.8813" x="1074.1841" y="694.9263">ValidationReport</text><path d="M10,714.9922 L74.4429,714.9922 L74.4429,722.125 L64.4429,732.125 L10,732.125 L10,714.9922 " fill="#EEEEEE" style="stroke:#000000;stroke-width:1.5;"/><rect fill="none" height="221.8672" style="stroke:#000000;stroke-width:1.5;" width="1153.5981" x="10" y="714.9922"/><text fill="#000000" font-family="sans-serif" font-size="13" font-weight="bold" lengthAdjust="spacing" textLength="19.4429" x="25" y="728.0591">alt</text><text fill="#000000" font-family="sans-serif" font-size="11" font-weight="bold" lengthAdjust="spacing" textLength="134.3848" x="89.4429" y="727.2026">[rationale consistent]</text><polygon fill="#444444" points="524.499,749.2578,514.499,753.2578,524.499,757.2578,520.499,753.2578" style="stroke:#444444;stroke-width:1.0;"/><line style="stroke:#444444;stroke-width:1.0;stroke-dasharray:2.0,2.0;" x1="518.499" x2="1046.1841" y1="753.2578" y2="753.2578"/><text fill="#000000" font-family="sans-serif" font-size="13" lengthAdjust="spacing" textLength="147.1641" x="530.499" y="748.1919">AgentResult(rationale)</text><polygon fill="#444444" points="288.9165,778.3906,278.9165,782.3906,288.9165,786.3906,284.9165,782.3906" style="stroke:#444444;stroke-width:1.0;"/><line style="stroke:#444444;stroke-width:1.0;stroke-dasharray:2.0,2.0;" x1="282.9165" x2="502.499" y1="782.3906" y2="782.3906"/><text fill="#000000" font-family="sans-serif" font-size="13" lengthAdjust="spacing" textLength="58.9443" x="294.9165" y="777.3247">attempts</text><text fill="#000000" font-family="sans-serif" font-size="13" lengthAdjust="spacing" textLength="4.1323" x="353.8608" y="777.3247">&#160;</text><text fill="#000000" font-family="sans-serif" font-size="13" lengthAdjust="spacing" textLength="24.4575" x="357.9932" y="777.3247">and</text><text fill="#000000" font-family="sans-serif" font-size="13" lengthAdjust="spacing" textLength="4.1323" x="382.4507" y="777.3247">&#160;</text><text fill="#000000" font-family="sans-serif" font-size="13" lengthAdjust="spacing" textLength="57.7891" x="386.583" y="777.3247">rationale</text><polygon fill="#444444" points="52.2383,807.5234,42.2383,811.5234,52.2383,815.5234,48.2383,811.5234" style="stroke:#444444;stroke-width:1.0;"/><line style="stroke:#444444;stroke-width:1.0;stroke-dasharray:2.0,2.0;" x1="46.2383" x2="276.9165" y1="811.5234" y2="811.5234"/><text fill="#000000" font-family="sans-serif" font-size="13" lengthAdjust="spacing" textLength="28.0884" x="58.2383" y="806.4575">nine</text><text fill="#000000" font-family="sans-serif" font-size="13" lengthAdjust="spacing" textLength="4.1323" x="86.3267" y="806.4575">&#160;</text><text fill="#000000" font-family="sans-serif" font-size="13" lengthAdjust="spacing" textLength="58.9443" x="90.459" y="806.4575">attempts</text><text fill="#000000" font-family="sans-serif" font-size="13" lengthAdjust="spacing" textLength="4.1323" x="149.4033" y="806.4575">&#160;</text><text fill="#000000" font-family="sans-serif" font-size="13" lengthAdjust="spacing" textLength="27.5806" x="153.5356" y="806.4575">with</text><text fill="#000000" font-family="sans-serif" font-size="13" lengthAdjust="spacing" textLength="4.1323" x="181.1162" y="806.4575">&#160;</text><text fill="#000000" font-family="sans-serif" font-size="13" lengthAdjust="spacing" textLength="76.6289" x="185.2485" y="806.4575">explanation</text><line style="stroke:#000000;stroke-width:1.0;stroke-dasharray:2.0,2.0;" x1="10" x2="1163.5981" y1="820.5234" y2="820.5234"/><text fill="#000000" font-family="sans-serif" font-size="11" font-weight="bold" lengthAdjust="spacing" textLength="304.6968" x="15" y="830.7339">[rationale contradicts calculator, or agent failed]</text><polygon fill="#444444" points="524.499,851.4609,514.499,855.4609,524.499,859.4609,520.499,855.4609" style="stroke:#444444;stroke-width:1.0;"/><line style="stroke:#444444;stroke-width:1.0;stroke-dasharray:2.0,2.0;" x1="518.499" x2="1046.1841" y1="855.4609" y2="855.4609"/><text fill="#000000" font-family="sans-serif" font-size="13" lengthAdjust="spacing" textLength="135.1543" x="530.499" y="850.395">AgentResult(success</text><text fill="#000000" font-family="sans-serif" font-size="13" lengthAdjust="spacing" textLength="4.1323" x="665.6533" y="850.395">&#160;</text><text fill="#000000" font-family="sans-serif" font-size="13" lengthAdjust="spacing" textLength="10.8926" x="669.7856" y="850.395">=</text><text fill="#000000" font-family="sans-serif" font-size="13" lengthAdjust="spacing" textLength="4.1323" x="680.6782" y="850.395">&#160;</text><text fill="#000000" font-family="sans-serif" font-size="13" lengthAdjust="spacing" textLength="35.9976" x="684.8105" y="850.395">false)</text><polygon fill="#444444" points="288.9165,880.5938,278.9165,884.5938,288.9165,888.5938,284.9165,884.5938" style="stroke:#444444;stroke-width:1.0;"/><line style="stroke:#444444;stroke-width:1.0;stroke-dasharray:2.0,2.0;" x1="282.9165" x2="502.499" y1="884.5938" y2="884.5938"/><text fill="#000000" font-family="sans-serif" font-size="13" lengthAdjust="spacing" textLength="58.9443" x="294.9165" y="879.5278">attempts</text><text fill="#000000" font-family="sans-serif" font-size="13" lengthAdjust="spacing" textLength="4.1323" x="353.8608" y="879.5278">&#160;</text><text fill="#000000" font-family="sans-serif" font-size="13" lengthAdjust="spacing" textLength="27.498" x="357.9932" y="879.5278">only</text><polygon fill="#444444" points="52.2383,924.8594,42.2383,928.8594,52.2383,932.8594,48.2383,928.8594" style="stroke:#444444;stroke-width:1.0;"/><line style="stroke:#444444;stroke-width:1.0;stroke-dasharray:2.0,2.0;" x1="46.2383" x2="276.9165" y1="928.8594" y2="928.8594"/><text fill="#000000" font-family="sans-serif" font-size="13" lengthAdjust="spacing" textLength="58.9443" x="58.2383" y="908.6606">attempts</text><text fill="#000000" font-family="sans-serif" font-size="13" lengthAdjust="spacing" textLength="4.1323" x="117.1826" y="908.6606">&#160;</text><text fill="#000000" font-family="sans-serif" font-size="13" lengthAdjust="spacing" textLength="41.8374" x="121.3149" y="908.6606">shown</text><text fill="#000000" font-family="sans-serif" font-size="13" lengthAdjust="spacing" textLength="4.1323" x="163.1523" y="908.6606">&#160;</text><text fill="#000000" font-family="sans-serif" font-size="13" lengthAdjust="spacing" textLength="27.5806" x="167.2847" y="908.6606">with</text><text fill="#000000" font-family="sans-serif" font-size="13" lengthAdjust="spacing" textLength="4.1323" x="194.8652" y="908.6606">&#160;</text><text fill="#000000" font-family="sans-serif" font-size="13" lengthAdjust="spacing" textLength="7.9663" x="198.9976" y="908.6606">a</text><text fill="#000000" font-family="sans-serif" font-size="13" lengthAdjust="spacing" textLength="4.1323" x="206.9639" y="908.6606">&#160;</text><text fill="#000000" font-family="sans-serif" font-size="13" lengthAdjust="spacing" textLength="29.2881" x="211.0962" y="908.6606">note</text><text fill="#000000" font-family="sans-serif" font-size="13" lengthAdjust="spacing" textLength="4.1323" x="240.3843" y="908.6606">&#160;</text><text fill="#000000" font-family="sans-serif" font-size="13" lengthAdjust="spacing" textLength="26.3999" x="244.5166" y="908.6606">that</text><text fill="#000000" font-family="sans-serif" font-size="13" lengthAdjust="spacing" textLength="16.1929" x="58.2383" y="923.7935">no</text><text fill="#000000" font-family="sans-serif" font-size="13" lengthAdjust="spacing" textLength="4.1323" x="74.4312" y="923.7935">&#160;</text><text fill="#000000" font-family="sans-serif" font-size="13" lengthAdjust="spacing" textLength="57.7891" x="78.5635" y="923.7935">rationale</text><text fill="#000000" font-family="sans-serif" font-size="13" lengthAdjust="spacing" textLength="4.1323" x="136.3525" y="923.7935">&#160;</text><text fill="#000000" font-family="sans-serif" font-size="13" lengthAdjust="spacing" textLength="25.3716" x="140.4849" y="923.7935">was</text><text fill="#000000" font-family="sans-serif" font-size="13" lengthAdjust="spacing" textLength="4.1323" x="165.8564" y="923.7935">&#160;</text><text fill="#000000" font-family="sans-serif" font-size="13" lengthAdjust="spacing" textLength="61.439" x="169.9888" y="923.7935">produced</text><path d="M10,950.8594 L79.4512,950.8594 L79.4512,957.9922 L69.4512,967.9922 L10,967.9922 L10,950.8594 " fill="#EEEEEE" style="stroke:#000000;stroke-width:1.5;"/><rect fill="none" height="104.5313" style="stroke:#000000;stroke-width:1.5;" width="567.8306" x="10" y="950.8594"/><text fill="#000000" font-family="sans-serif" font-size="13" font-weight="bold" lengthAdjust="spacing" textLength="24.4512" x="25" y="963.9263">opt</text><text fill="#000000" font-family="sans-serif" font-size="11" font-weight="bold" lengthAdjust="spacing" textLength="179.1904" x="94.4512" y="963.0698">[Lifter overrides an attempt]</text><polygon fill="#444444" points="265.9165,985.125,275.9165,989.125,265.9165,993.125,269.9165,989.125" style="stroke:#444444;stroke-width:1.0;"/><line style="stroke:#444444;stroke-width:1.0;" x1="41.2383" x2="271.9165" y1="989.125" y2="989.125"/><text fill="#000000" font-family="sans-serif" font-size="13" lengthAdjust="spacing" textLength="104.1587" x="48.2383" y="984.0591">editAttempt(lift,</text><text fill="#000000" font-family="sans-serif" font-size="13" lengthAdjust="spacing" textLength="4.1323" x="152.397" y="984.0591">&#160;</text><text fill="#000000" font-family="sans-serif" font-size="13" lengthAdjust="spacing" textLength="40.5806" x="156.5293" y="984.0591">value)</text><polygon fill="#444444" points="491.499,1014.2578,501.499,1018.2578,491.499,1022.2578,495.499,1018.2578" style="stroke:#444444;stroke-width:1.0;"/><line style="stroke:#444444;stroke-width:1.0;" x1="277.9165" x2="497.499" y1="1018.2578" y2="1018.2578"/><text fill="#000000" font-family="sans-serif" font-size="13" lengthAdjust="spacing" textLength="156.8696" x="284.9165" y="1013.1919">saveManualAttempt(lift,</text><text fill="#000000" font-family="sans-serif" font-size="13" lengthAdjust="spacing" textLength="4.1323" x="441.7861" y="1013.1919">&#160;</text><text fill="#000000" font-family="sans-serif" font-size="13" lengthAdjust="spacing" textLength="40.5806" x="445.9185" y="1013.1919">value)</text><polygon fill="#444444" points="288.9165,1043.3906,278.9165,1047.3906,288.9165,1051.3906,284.9165,1047.3906" style="stroke:#444444;stroke-width:1.0;"/><line style="stroke:#444444;stroke-width:1.0;stroke-dasharray:2.0,2.0;" x1="282.9165" x2="502.499" y1="1047.3906" y2="1047.3906"/><text fill="#000000" font-family="sans-serif" font-size="13" lengthAdjust="spacing" textLength="41.4185" x="294.9165" y="1042.3247">stored</text><text fill="#000000" font-family="sans-serif" font-size="13" lengthAdjust="spacing" textLength="4.1323" x="336.335" y="1042.3247">&#160;</text><text fill="#000000" font-family="sans-serif" font-size="13" lengthAdjust="spacing" textLength="24.4575" x="340.4673" y="1042.3247">and</text><text fill="#000000" font-family="sans-serif" font-size="13" lengthAdjust="spacing" textLength="4.1323" x="364.9248" y="1042.3247">&#160;</text><text fill="#000000" font-family="sans-serif" font-size="13" lengthAdjust="spacing" textLength="49.7529" x="369.0571" y="1042.3247">marked</text><text fill="#000000" font-family="sans-serif" font-size="13" lengthAdjust="spacing" textLength="4.1323" x="418.8101" y="1042.3247">&#160;</text><text fill="#000000" font-family="sans-serif" font-size="13" lengthAdjust="spacing" textLength="48.6865" x="422.9424" y="1042.3247">manual</text><!--SRC=[bLJRRjGm47tFLmnzoafRQ0L2g2gLgeMYIbsfQYbFbT3WJ1ghNZlOusttZO_W2_aInixcibK1yPJOFZDpVEQCNsYhJAm8lWRU67gfuyeKhDaGN7yuU0k_Vlo4QpAa69P43AVCj6evG7bsy0vUmStYy61M5AZOURZGDPCllhbeA_GRs4iXbsZ9tDhZuqytvoSdUu01RiuBvInxPs1luL0rYsvbo2VW6IgiQ8jTi3T5YvwrqYrQXhrhzcJlk3crQ3Qo7J9kMEs2jtmNQ5GqA2IxfB9y5dU5h9raejCxijmbJd-xu8L1aMnXT8-vk5Zk8YuDsYzeT3MK75P5qSa4-oSY11o1ipsxb5BTKrNE2ZcHytHvGQZ-l5TV0AAuNijM9r06Ii2WGegANeJYZuTNor0sEaZjpIHk56mCsXzhBh4zJaJdK1k7V59Kz4neOPnhePRUosa3ogrQ4lU8Xc0ak010mn1YNOiqGWOygVGH9L0E0NhYIOBfJKkJQzEXNyq4I2OGSAFjVqNEXP0Dv8MqNXEy1_QHSZfR9Mg3XCaEq6KQC_fauy_kCYUzlviDY8b8uk-X9wubItuEWQHgDKzqVPMY9ihbIgdwsB5ahrGjsZB_Nz7tI85BtEQLHDB6QZPjNRQafnhSMeoKb_DaGiaZ0_a6C2TDlRcrPQ0yowzdHLTBYWvcb81rzq-3zKkcHqdNrv_K7JridIozlciON3tP5sc5qGPiN7qJPj-Zu2gGjd53SkZx6h2AWM65BARfZjGmeU0Yjv6JJ93g52FR_ObWsrt9TqMjypmrw6JOal_6iiaFCWb9FjXcchHpgt-8XiiX9lSzDwiVs5uPG64uu0IMXbP0s_a-0gijZUW7pGtGOojFGuufigbtkB77IYl1ZchCGUxTzRD6RQZw5_4GbQ8GnEqrIe6_q7VMR9vXFPo7nZtOZZRcJaYhaELlGlf1dhRMkoegOPQCFNqciaqBrtAVFDdLwugIT7qTOV3aGQHAzrEr7MRnQ3UuEyzYm3KjqKOqVq3ltZizW6B6rBGLUdbcvPE2dz9EKRy1]--></g></svg>