<svg xmlns="http://www.w3.org/2000/svg" xmlns:xlink="http://www.w3.org/1999/xlink" contentStyleType="text/css" height="1372px" preserveAspectRatio="none" style="width:2016px;height:1372px;background:#FFFFFF;" version="1.1" viewBox="0 0 2016 1372" width="2016px" zoomAndPan="magnify"><title>SD07 &#8212; Get Meal Suggestion (F10 / UC12)</title><defs/><g><text fill="#000000" font-family="sans-serif" font-size="14" font-weight="bold" lengthAdjust="spacing" textLength="331.7344" x="843.1367" y="27.9951">SD07 &#8212; Get Meal Suggestion (F10 / UC12)</text><rect fill="#EFEFEF" height="1102.3984" style="stroke:#999999;stroke-width:1.0;" width="10" x="442.522" y="178.8594"/><rect fill="#EFEFEF" height="29.1328" style="stroke:#999999;stroke-width:1.0;" width="10" x="631.5635" y="207.9922"/><rect fill="#EFEFEF" height="895.6641" style="stroke:#999999;stroke-width:1.0;" width="10" x="803.8613" y="378.5938"/><rect fill="#EFEFEF" height="29.1328" style="stroke:#999999;stroke-width:1.0;" width="10" x="1865.6265" y="794.5234"/><rect fill="none" height="1022.1328" style="stroke:#000000;stroke-width:1.5;" width="1999.0078" x="10" y="252.125"/><rect fill="none" height="428.6016" style="stroke:#000000;stroke-width:1.5;" width="1624.8208" x="20" y="838.6563"/><rect fill="none" height="75.3984" style="stroke:#000000;stroke-width:1.5;" width="486.8535" x="30" y="965.3203"/><line style="stroke:#999999;stroke-width:0.5;stroke-dasharray:5.0,5.0;" x1="61" x2="61" y1="118.5938" y2="1291.2578"/><line style="stroke:#999999;stroke-width:0.5;stroke-dasharray:5.0,5.0;" x1="241.6094" x2="241.6094" y1="118.5938" y2="1291.2578"/><line style="stroke:#999999;stroke-width:0.5;stroke-dasharray:5.0,5.0;" x1="447.1904" x2="447.1904" y1="118.5938" y2="1291.2578"/><line style="stroke:#999999;stroke-width:0.5;stroke-dasharray:5.0,5.0;" x1="635.6948" x2="635.6948" y1="118.5938" y2="1291.2578"/><line style="stroke:#999999;stroke-width:0.5;stroke-dasharray:5.0,5.0;" x1="808.4321" x2="808.4321" y1="118.5938" y2="1291.2578"/><line style="stroke:#999999;stroke-width:0.5;stroke-dasharray:5.0,5.0;" x1="1079.8599" x2="1079.8599" y1="118.5938" y2="1291.2578"/><line style="stroke:#999999;stroke-width:0.5;stroke-dasharray:5.0,5.0;" x1="1237.9336" x2="1237.9336" y1="118.5938" y2="1291.2578"/><line style="stroke:#999999;stroke-width:0.5;stroke-dasharray:5.0,5.0;" x1="1433.8384" x2="1433.8384" y1="118.5938" y2="1291.2578"/><line style="stroke:#999999;stroke-width:0.5;stroke-dasharray:5.0,5.0;" x1="1570.6733" x2="1570.6733" y1="118.5938" y2="1291.2578"/><line style="stroke:#999999;stroke-width:0.5;stroke-dasharray:5.0,5.0;" x1="1719.8208" x2="1719.8208" y1="118.5938" y2="1291.2578"/><line style="stroke:#999999;stroke-width:0.5;stroke-dasharray:5.0,5.0;" x1="1870.1284" x2="1870.1284" y1="118.5938" y2="1291.2578"/><text fill="#000000" font-family="sans-serif" font-size="14" lengthAdjust="spacing" textLength="36.4766" x="40" y="115.292">Lifter</text><ellipse cx="61.2383" cy="50.7969" fill="#FFFFFF" rx="8" ry="8" style="stroke:#444444;stroke-width:0.5;"/><path d="M61.2383,58.7969 L61.2383,85.7969 M48.2383,66.7969 L74.2383,66.7969 M61.2383,85.7969 L48.2383,100.7969 M61.2383,85.7969 L74.2383,100.7969 " fill="none" style="stroke:#444444;stroke-width:0.5;"/><text fill="#000000" font-family="sans-serif" font-size="14" lengthAdjust="spacing" textLength="36.4766" x="40" y="1303.2529">Lifter</text><ellipse cx="61.2383" cy="1315.0547" fill="#FFFFFF" rx="8" ry="8" style="stroke:#444444;stroke-width:0.5;"/><path d="M61.2383,1323.0547 L61.2383,1350.0547 M48.2383,1331.0547 L74.2383,1331.0547 M61.2383,1350.0547 L48.2383,1365.0547 M61.2383,1350.0547 L74.2383,1365.0547 " fill="none" style="stroke:#444444;stroke-width:0.5;"/><text fill="#000000" font-family="sans-serif" font-size="14" lengthAdjust="spacing" textLength="99.6953" x="189.6094" y="98.9951">NutritionPanel</text><text fill="#000000" font-family="sans-serif" font-size="14" lengthAdjust="spacing" textLength="42.3555" x="218.2793" y="115.292">&#171;GUI&#187;</text><path d="M221.957,58 L221.957,82 M221.957,70 L238.957,70 " fill="none" style="stroke:#181818;stroke-width:0.5;"/><ellipse cx="250.957" cy="70" fill="#E2E2F0" rx="12" ry="12" style="stroke:#181818;stroke-width:0.5;"/><text fill="#000000" font-family="sans-serif" font-size="14" lengthAdjust="spacing" textLength="99.6953" x="189.6094" y="1303.2529">NutritionPanel</text><text fill="#000000" font-family="sans-serif" font-size="14" lengthAdjust="spacing" textLength="42.3555" x="218.2793" y="1319.5498">&#171;GUI&#187;</text><path d="M221.957,1326.8516 L221.957,1350.8516 M221.957,1338.8516 L238.957,1338.8516 " fill="none" style="stroke:#181818;stroke-width:0.5;"/><ellipse cx="250.957" cy="1338.8516" fill="#E2E2F0" rx="12" ry="12" style="stroke:#181818;stroke-width:0.5;"/><text fill="#000000" font-family="sans-serif" font-size="14" lengthAdjust="spacing" textLength="112.6631" x="388.1904" y="98.9951">CoachController</text><text fill="#000000" font-family="sans-serif" font-size="14" lengthAdjust="spacing" textLength="67.5391" x="410.7524" y="115.292">&#171;Facade&#187;</text><ellipse cx="447.522" cy="70" fill="#E2E2F0" rx="12" ry="12" style="stroke:#181818;stroke-width:0.5;"/><polygon fill="#181818" points="443.522,58,449.522,53,447.522,58,449.522,63,443.522,58" style="stroke:#181818;stroke-width:1.0;"/><text fill="#000000" font-family="sans-serif" font-size="14" lengthAdjust="spacing" textLength="112.6631" x="388.1904" y="1303.2529">CoachController</text><text fill="#000000" font-family="sans-serif" font-size="14" lengthAdjust="spacing" textLength="67.5391" x="410.7524" y="1319.5498">&#171;Facade&#187;</text><ellipse cx="447.522" cy="1338.8516" fill="#E2E2F0" rx="12" ry="12" style="stroke:#181818;stroke-width:0.5;"/><polygon fill="#181818" points="443.522,1326.8516,449.522,1321.8516,447.522,1326.8516,449.522,1331.8516,443.522,1326.8516" style="stroke:#181818;stroke-width:1.0;"/><rect fill="#FFFFFF" height="30.2969" rx="2.5" ry="2.5" style="stroke:#444444;stroke-width:0.5;" width="109.7373" x="581.6948" y="87.2969"/><text fill="#000000" font-family="sans-serif" font-size="14" lengthAdjust="spacing" textLength="95.7373" x="588.6948" y="107.292">MacroTracker</text><rect fill="#FFFFFF" height="30.2969" rx="2.5" ry="2.5" style="stroke:#444444;stroke-width:0.5;" width="109.7373" x="581.6948" y="1290.2578"/><text fill="#000000" font-family="sans-serif" font-size="14" lengthAdjust="spacing" textLength="95.7373" x="588.6948" y="1310.2529">MacroTracker</text><rect fill="#FFFFFF" height="30.2969" rx="2.5" ry="2.5" style="stroke:#444444;stroke-width:0.5;" width="166.8584" x="725.4321" y="87.2969"/><text fill="#000000" font-family="sans-serif" font-size="14" lengthAdjust="spacing" textLength="152.8584" x="732.4321" y="107.292">MealSuggestionAgent</text><rect fill="#FFFFFF" height="30.2969" rx="2.5" ry="2.5" style="stroke:#444444;stroke-width:0.5;" width="166.8584" x="725.4321" y="1290.2578"/><text fill="#000000" font-family="sans-serif" font-size="14" lengthAdjust="spacing" textLength="152.8584" x="732.4321" y="1310.2529">MealSuggestionAgent</text><rect fill="#FFFFFF" height="30.2969" rx="2.5" ry="2.5" style="stroke:#444444;stroke-width:0.5;" width="104.9385" x="1027.8599" y="87.2969"/><text fill="#000000" font-family="sans-serif" font-size="14" lengthAdjust="spacing" textLength="90.9385" x="1034.8599" y="107.292">ToolManager</text><rect fill="#FFFFFF" height="30.2969" rx="2.5" ry="2.5" style="stroke:#444444;stroke-width:0.5;" width="104.9385" x="1027.8599" y="1290.2578"/><text fill="#000000" font-family="sans-serif" font-size="14" lengthAdjust="spacing" textLength="90.9385" x="1034.8599" y="1310.2529">ToolManager</text><rect fill="#FFFFFF" height="30.2969" rx="2.5" ry="2.5" style="stroke:#444444;stroke-width:0.5;" width="98.0273" x="1188.9336" y="87.2969"/><text fill="#000000" font-family="sans-serif" font-size="14" lengthAdjust="spacing" textLength="84.0273" x="1195.9336" y="107.292">FoodDBTool</text><rect fill="#FFFFFF" height="30.2969" rx="2.5" ry="2.5" style="stroke:#444444;stroke-width:0.5;" width="98.0273" x="1188.9336" y="1290.2578"/><text fill="#000000" font-family="sans-serif" font-size="14" lengthAdjust="spacing" textLength="84.0273" x="1195.9336" y="1310.2529">FoodDBTool</text><rect fill="#FFFFFF" height="30.2969" rx="2.5" ry="2.5" style="stroke:#444444;stroke-width:0.5;" width="101.835" x="1383.8384" y="87.2969"/><text fill="#000000" font-family="sans-serif" font-size="14" lengthAdjust="spacing" textLength="87.835" x="1390.8384" y="107.292">FoodCatalog</text><rect fill="#FFFFFF" height="30.2969" rx="2.5" ry="2.5" style="stroke:#444444;stroke-width:0.5;" width="101.835" x="1383.8384" y="1290.2578"/><text fill="#000000" font-family="sans-serif" font-size="14" lengthAdjust="spacing" textLength="87.835" x="1390.8384" y="1310.2529">FoodCatalog</text><rect fill="#FFFFFF" height="30.2969" rx="2.5" ry="2.5" style="stroke:#444444;stroke-width:0.5;" width="103.1475" x="1519.6733" y="87.2969"/><text fill="#000000" font-family="sans-serif" font-size="14" lengthAdjust="spacing" textLength="89.1475" x="1526.6733" y="107.292">ClaudeClient</text><rect fill="#FFFFFF" height="30.2969" rx="2.5" ry="2.5" style="stroke:#444444;stroke-width:0.5;" width="103.1475" x="1519.6733" y="1290.2578"/><text fill="#000000" font-family="sans-serif" font-size="14" lengthAdjust="spacing" textLength="89.1475" x="1526.6733" y="1310.2529">ClaudeClient</text><rect fill="#FFFFFF" height="30.2969" rx="2.5" ry="2.5" style="stroke:#444444;stroke-width:0.5;" width="126.3076" x="1656.8208" y="87.2969"/><text fill="#000000" font-family="sans-serif" font-size="14" lengthAdjust="spacing" textLength="112.3076" x="1663.8208" y="107.292">ResponseParser</text><rect fill="#FFFFFF" height="30.2969" rx="2.5" ry="2.5" style="stroke:#444444;stroke-width:0.5;" width="126.3076" x="1656.8208" y="1290.2578"/><text fill="#000000" font-family="sans-serif" font-size="14" lengthAdjust="spacing" textLength="112.3076" x="1663.8208" y="1310.2529">ResponseParser</text><rect fill="#FFFFFF" height="30.2969" rx="2.5" ry="2.5" style="stroke:#444444;stroke-width:0.5;" width="106.9961" x="1817.1284" y="87.2969"/><text fill="#000000" font-family="sans-serif" font-size="14" lengthAdjust="spacing" textLength="92.9961" x="1824.1284" y="107.292">PlanValidator</text><rect fill="#FFFFFF" height="30.2969" rx="2.5" ry="2.5" style="stroke:#444444;stroke-width:0.5;" width="106.9961" x="1817.1284" y="1290.2578"/><text fill="#000000" font-family="sans-serif" font-size="14" lengthAdjust="spacing" textLength="92.9961" x="1824.1284" y="1310.2529">PlanValidator</text><rect fill="#EFEFEF" height="1102.3984" style="stroke:#999999;stroke-width:1.0;" width="10" x="442.522" y="178.8594"/><rect fill="#EFEFEF" height="29.1328" style="stroke:#999999;stroke-width:1.0;" width="10" x="631.5635" y="207.9922"/><rect fill="#EFEFEF" height="895.6641" style="stroke:#999999;stroke-width:1.0;" width="10" x="803.8613" y="378.5938"/><rect fill="#EFEFEF" height="29.1328" style="stroke:#999999;stroke-width:1.0;" width="10" x="1865.6265" y="794.5234"/><polygon fill="#444444" points="230.457,145.7266,240.457,149.7266,230.457,153.7266,234.457,149.7266" style="stroke:#444444;stroke-width:1.0;"/><line style="stroke:#444444;stroke-width:1.0;" x1="61.2383" x2="236.457" y1="149.7266" y2="149.7266"/><text fill="#000000" font-family="sans-serif" font-size="13" lengthAdjust="spacing" textLength="157.2188" x="68.2383" y="144.6606">onSuggestMealClicked()</text><polygon fill="#444444" points="430.522,174.8594,440.522,178.8594,430.522,182.8594,434.522,178.8594" style="stroke:#444444;stroke-width:1.0;"/><line style="stroke:#444444;stroke-width:1.0;" x1="242.457" x2="436.522" y1="178.8594" y2="178.8594"/><text fill="#000000" font-family="sans-serif" font-size="13" lengthAdjust="spacing" textLength="92.3203" x="249.457" y="173.7935">suggestMeal()</text><polygon fill="#444444" points="619.5635,203.9922,629.5635,207.9922,619.5635,211.9922,623.5635,207.9922" style="stroke:#444444;stroke-width:1.0;"/><line style="stroke:#444444;stroke-width:1.0;" x1="452.522" x2="625.5635" y1="207.9922" y2="207.9922"/><text fill="#000000" font-family="sans-serif" font-size="13" lengthAdjust="spacing" textLength="138.0679" x="459.522" y="202.9263">getRemaining(today)</text><polygon fill="#444444" points="463.522,233.125,453.522,237.125,463.522,241.125,459.522,237.125" style="stroke:#444444;stroke-width:1.0;"/><line style="stroke:#444444;stroke-width:1.0;stroke-dasharray:2.0,2.0;" x1="457.522" x2="635.5635" y1="237.125" y2="237.125"/><text fill="#000000" font-family="sans-serif" font-size="13" lengthAdjust="spacing" textLength="155.0415" x="469.522" y="232.0591">MacroTotals(remaining)</text><path d="M10,252.125 L74.4429,252.125 L74.4429,259.2578 L64.4429,269.2578 L10,269.2578 L10,252.125 " fill="#EEEEEE" style="stroke:#000000;stroke-width:1.5;"/><rect fill="none" height="1022.1328" style="stroke:#000000;stroke-width:1.5;" width="1999.0078" x="10" y="252.125"/><text fill="#000000" font-family="sans-serif" font-size="13" font-weight="bold" lengthAdjust="spacing" textLength="19.4429" x="25" y="265.1919">alt</text><text fill="#000000" font-family="sans-serif" font-size="11" font-weight="bold" lengthAdjust="spacing" textLength="187.8486" x="89.4429" y="264.3354">[remaining calories near zero]</text><polygon fill="#444444" points="253.457,286.3906,243.457,290.3906,253.457,294.3906,249.457,290.3906" style="stroke:#444444;stroke-width:1.0;"/><line style="stroke:#444444;stroke-width:1.0;stroke-dasharray:2.0,2.0;" x1="247.457" x2="441.522" y1="290.3906" y2="290.3906"/><text fill="#000000" font-family="sans-serif" font-size="13" lengthAdjust="spacing" textLength="52.5078" x="259.457" y="285.3247">"targets</text><text fill="#000000" font-family="sans-serif" font-size="13" lengthAdjust="spacing" textLength="4.1323" x="311.9648" y="285.3247">&#160;</text><text fill="#000000" font-family="sans-serif" font-size="13" lengthAdjust="spacing" textLength="48.8325" x="316.0972" y="285.3247">already</text><text fill="#000000" font-family="sans-serif" font-size="13" lengthAdjust="spacing" textLength="4.1323" x="364.9297" y="285.3247">&#160;</text><text fill="#000000" font-family="sans-serif" font-size="13" lengthAdjust="spacing" textLength="31.7383" x="369.062" y="285.3247">met"</text><polygon fill="#444444" points="72.2383,315.5234,62.2383,319.5234,72.2383,323.5234,68.2383,319.5234" style="stroke:#444444;stroke-width:1.0;"/><line style="stroke:#444444;stroke-width:1.0;stroke-dasharray:2.0,2.0;" x1="66.2383" x2="241.457" y1="319.5234" y2="319.5234"/><text fill="#000000" font-family="sans-serif" font-size="13" lengthAdjust="spacing" textLength="16.1929" x="78.2383" y="314.4575">no</text><text fill="#000000" font-family="sans-serif" font-size="13" lengthAdjust="spacing" textLength="4.1323" x="94.4312" y="314.4575">&#160;</text><text fill="#000000" font-family="sans-serif" font-size="13" lengthAdjust="spacing" textLength="32.2397" x="98.5635" y="314.4575">meal</text><text fill="#000000" font-family="sans-serif" font-size="13" lengthAdjust="spacing" textLength="4.1323" x="130.8032" y="314.4575">&#160;</text><text fill="#000000" font-family="sans-serif" font-size="13" lengthAdjust="spacing" textLength="48.7373" x="134.9355" y="314.4575">needed</text><line style="stroke:#000000;stroke-width:1.0;stroke-dasharray:2.0,2.0;" x1="10" x2="2009.0078" y1="328.5234" y2="328.5234"/><text fill="#000000" font-family="sans-serif" font-size="11" font-weight="bold" lengthAdjust="spacing" textLength="102.1904" x="15" y="338.7339">[macros remain]</text><polygon fill="#444444" points="791.8613,374.5938,801.8613,378.5938,791.8613,382.5938,795.8613,378.5938" style="stroke:#444444;stroke-width:1.0;"/><line style="stroke:#444444;stroke-width:1.0;" x1="452.522" x2="797.8613" y1="378.5938" y2="378.5938"/><text fill="#000000" font-family="sans-serif" font-size="13" lengthAdjust="spacing" textLength="193.8955" x="459.522" y="358.395">run(AgentRequest(remaining,</text><text fill="#000000" font-family="sans-serif" font-size="13" lengthAdjust="spacing" textLength="82.3862" x="459.522" y="373.5278">constraints))</text><polygon fill="#444444" points="1068.3291,403.7266,1078.3291,407.7266,1068.3291,411.7266,1072.3291,407.7266" style="stroke:#444444;stroke-width:1.0;"/><line style="stroke:#444444;stroke-width:1.0;" x1="813.8613" x2="1074.3291" y1="407.7266" y2="407.7266"/><text fill="#000000" font-family="sans-serif" font-size="13" lengthAdjust="spacing" textLength="242.4678" x="820.8613" y="402.6606">execute(ToolCall("permitted_foods"))</text><polygon fill="#444444" points="1225.9473,447.9922,1235.9473,451.9922,1225.9473,455.9922,1229.9473,451.9922" style="stroke:#444444;stroke-width:1.0;"/><line style="stroke:#444444;stroke-width:1.0;" x1="1080.3291" x2="1231.9473" y1="451.9922" y2="451.9922"/><text fill="#000000" font-family="sans-serif" font-size="13" lengthAdjust="spacing" textLength="133.6182" x="1087.3291" y="431.7935">execute(constraints,</text><text fill="#000000" font-family="sans-serif" font-size="13" lengthAdjust="spacing" textLength="85.7314" x="1087.3291" y="446.9263">maxCalories)</text><polygon fill="#444444" points="1422.7559,492.2578,1432.7559,496.2578,1422.7559,500.2578,1426.7559,496.2578" style="stroke:#444444;stroke-width:1.0;"/><line style="stroke:#444444;stroke-width:1.0;" x1="1237.9473" x2="1428.7559" y1="496.2578" y2="496.2578"/><text fill="#000000" font-family="sans-serif" font-size="13" lengthAdjust="spacing" textLength="172.8086" x="1244.9473" y="476.0591">search(dietaryConstraints,</text><text fill="#000000" font-family="sans-serif" font-size="13" lengthAdjust="spacing" textLength="85.7314" x="1244.9473" y="491.1919">maxCalories)</text><polygon fill="#444444" points="1248.9473,521.3906,1238.9473,525.3906,1248.9473,529.3906,1244.9473,525.3906" style="stroke:#444444;stroke-width:1.0;"/><line style="stroke:#444444;stroke-width:1.0;stroke-dasharray:2.0,2.0;" x1="1242.9473" x2="1433.7559" y1="525.3906" y2="525.3906"/><text fill="#000000" font-family="sans-serif" font-size="13" lengthAdjust="spacing" textLength="105.7393" x="1254.9473" y="520.3247">List&lt;FoodItem&gt;</text><polygon fill="#444444" points="1091.3291,550.5234,1081.3291,554.5234,1091.3291,558.5234,1087.3291,554.5234" style="stroke:#444444;stroke-width:1.0;"/><line style="stroke:#444444;stroke-width:1.0;stroke-dasharray:2.0,2.0;" x1="1085.3291" x2="1236.9473" y1="554.5234" y2="554.5234"/><text fill="#000000" font-family="sans-serif" font-size="13" lengthAdjust="spacing" textLength="113.8643" x="1097.3291" y="549.4575">ToolResult(foods)</text><polygon fill="#444444" points="824.8613,579.6563,814.8613,583.6563,824.8613,587.6563,820.8613,583.6563" style="stroke:#444444;stroke-width:1.0;"/><line style="stroke:#444444;stroke-width:1.0;stroke-dasharray:2.0,2.0;" x1="818.8613" x2="1079.3291" y1="583.6563" y2="583.6563"/><text fill="#000000" font-family="sans-serif" font-size="13" lengthAdjust="spacing" textLength="64.3145" x="830.8613" y="578.5903">permitted</text><text fill="#000000" font-family="sans-serif" font-size="13" lengthAdjust="spacing" textLength="4.1323" x="895.1758" y="578.5903">&#160;</text><text fill="#000000" font-family="sans-serif" font-size="13" lengthAdjust="spacing" textLength="35.5088" x="899.3081" y="578.5903">foods</text><text fill="#000000" font-family="sans-serif" font-size="13" lengthAdjust="spacing" textLength="4.1323" x="934.8169" y="578.5903">&#160;</text><text fill="#000000" font-family="sans-serif" font-size="13" lengthAdjust="spacing" textLength="27.498" x="938.9492" y="578.5903">only</text><rect fill="none" height="53.0703" style="stroke:#000000;stroke-width:1.5;" width="927.3887" x="710.4321" y="591.6563"/><path d="M710.4321,591.6563 L775.4321,591.6563 L775.4321,598.6563 L765.4321,608.6563 L710.4321,608.6563 L710.4321,591.6563 " fill="#EEEEEE" style="stroke:#000000;stroke-width:2.0;"/><text fill="#000000" font-family="sans-serif" font-size="13" font-weight="bold" lengthAdjust="spacing" textLength="20.8838" x="723.4321" y="605.7231">ref</text><text fill="#000000" font-family="sans-serif" font-size="12" lengthAdjust="spacing" textLength="100.3594" x="1123.9468" y="623.7949">UC14 agent loop</text><text fill="#000000" font-family="sans-serif" font-size="12" lengthAdjust="spacing" textLength="66.3223" x="1140.9653" y="637.7637">(see SD03)</text><polygon fill="#444444" points="1707.9746,666.8594,1717.9746,670.8594,1707.9746,674.8594,1711.9746,670.8594" style="stroke:#444444;stroke-width:1.0;"/><line style="stroke:#444444;stroke-width:1.0;" x1="813.8613" x2="1713.9746" y1="670.8594" y2="670.8594"/><text fill="#000000" font-family="sans-serif" font-size="13" lengthAdjust="spacing" textLength="79.625" x="820.8613" y="665.7935">toMeal(json,</text><text fill="#000000" font-family="sans-serif" font-size="13" lengthAdjust="spacing" textLength="4.1323" x="900.4863" y="665.7935">&#160;</text><text fill="#000000" font-family="sans-serif" font-size="13" lengthAdjust="spacing" textLength="83.7319" x="904.6187" y="665.7935">foodCatalog)</text><path d="M1724,683.8594 L1724,723.8594 L1999,723.8594 L1999,693.8594 L1989,683.8594 L1724,683.8594 " fill="#FEFFDD" style="stroke:#181818;stroke-width:0.5;"/><path d="M1989,683.8594 L1989,693.8594 L1999,693.8594 L1989,683.8594 " fill="#FEFFDD" style="stroke:#181818;stroke-width:0.5;"/><text fill="#000000" font-family="sans-serif" font-size="13" lengthAdjust="spacing" textLength="244.0674" x="1730" y="700.9263">gram amounts come from the model,</text><text fill="#000000" font-family="sans-serif" font-size="13" lengthAdjust="spacing" textLength="254.0078" x="1730" y="716.0591">nutrition values come from the catalog</text><polygon fill="#444444" points="824.8613,746.2578,814.8613,750.2578,824.8613,754.2578,820.8613,750.2578" style="stroke:#444444;stroke-width:1.0;"/><line style="stroke:#444444;stroke-width:1.0;stroke-dasharray:2.0,2.0;" x1="818.8613" x2="1718.9746" y1="750.2578" y2="750.2578"/><text fill="#000000" font-family="sans-serif" font-size="13" lengthAdjust="spacing" textLength="103.4604" x="830.8613" y="745.1919">MealSuggestion</text><polygon fill="#444444" points="1853.6265,790.5234,1863.6265,794.5234,1853.6265,798.5234,1857.6265,794.5234" style="stroke:#444444;stroke-width:1.0;"/><line style="stroke:#444444;stroke-width:1.0;" x1="813.8613" x2="1859.6265" y1="794.5234" y2="794.5234"/><text fill="#000000" font-family="sans-serif" font-size="13" lengthAdjust="spacing" textLength="124.4331" x="820.8613" y="774.3247">validateMeal(meal,</text><text fill="#000000" font-family="sans-serif" font-size="13" lengthAdjust="spacing" textLength="4.1323" x="945.2944" y="774.3247">&#160;</text><text fill="#000000" font-family="sans-serif" font-size="13" lengthAdjust="spacing" textLength="76.375" x="949.4268" y="774.3247">constraints,</text><text fill="#000000" font-family="sans-serif" font-size="13" lengthAdjust="spacing" textLength="70.9985" x="820.8613" y="789.4575">remaining)</text><polygon fill="#444444" points="824.8613,819.6563,814.8613,823.6563,824.8613,827.6563,820.8613,823.6563" style="stroke:#444444;stroke-width:1.0;"/><line style="stroke:#444444;stroke-width:1.0;stroke-dasharray:2.0,2.0;" x1="818.8613" x2="1869.6265" y1="823.6563" y2="823.6563"/><text fill="#000000" font-family="sans-serif" font-size="13" lengthAdjust="spacing" textLength="108.8813" x="830.8613" y="818.5903">ValidationReport</text><path d="M20,838.6563 L84.4429,838.6563 L84.4429,845.7891 L74.4429,855.7891 L20,855.7891 L20,838.6563 " fill="#EEEEEE" style="stroke:#000000;stroke-width:1.5;"/><rect fill="none" height="428.6016" style="stroke:#000000;stroke-width:1.5;" width="1624.8208" x="20" y="838.6563"/><text fill="#000000" font-family="sans-serif" font-size="13" font-weight="bold" lengthAdjust="spacing" textLength="19.4429" x="35" y="851.7231">alt</text><text fill="#000000" font-family="sans-serif" font-size="11" font-weight="bold" lengthAdjust="spacing" textLength="40.063" x="99.4429" y="850.8667">[valid]</text><polygon fill="#444444" points="463.522,872.9219,453.522,876.9219,463.522,880.9219,459.522,876.9219" style="stroke:#444444;stroke-width:1.0;"/><line style="stroke:#444444;stroke-width:1.0;stroke-dasharray:2.0,2.0;" x1="457.522" x2="802.8613" y1="876.9219" y2="876.9219"/><text fill="#000000" font-family="sans-serif" font-size="13" lengthAdjust="spacing" textLength="121.6147" x="469.522" y="871.856">AgentResult(meal)</text><polygon fill="#444444" points="253.457,917.1875,243.457,921.1875,253.457,925.1875,249.457,921.1875" style="stroke:#444444;stroke-width:1.0;"/><line style="stroke:#444444;stroke-width:1.0;stroke-dasharray:2.0,2.0;" x1="247.457" x2="441.522" y1="921.1875" y2="921.1875"/><text fill="#000000" font-family="sans-serif" font-size="13" lengthAdjust="spacing" textLength="32.2397" x="259.457" y="900.9888">meal</text><text fill="#000000" font-family="sans-serif" font-size="13" lengthAdjust="spacing" textLength="4.1323" x="291.6968" y="900.9888">&#160;</text><text fill="#000000" font-family="sans-serif" font-size="13" lengthAdjust="spacing" textLength="27.5806" x="295.8291" y="900.9888">with</text><text fill="#000000" font-family="sans-serif" font-size="13" lengthAdjust="spacing" textLength="4.1323" x="323.4097" y="900.9888">&#160;</text><text fill="#000000" font-family="sans-serif" font-size="13" lengthAdjust="spacing" textLength="20.0396" x="327.542" y="900.9888">full</text><text fill="#000000" font-family="sans-serif" font-size="13" lengthAdjust="spacing" textLength="4.1323" x="347.5815" y="900.9888">&#160;</text><text fill="#000000" font-family="sans-serif" font-size="13" lengthAdjust="spacing" textLength="55.4341" x="351.7139" y="900.9888">nutrition</text><text fill="#000000" font-family="sans-serif" font-size="13" lengthAdjust="spacing" textLength="72.1665" x="259.457" y="916.1216">breakdown</text><polygon fill="#444444" points="72.2383,946.3203,62.2383,950.3203,72.2383,954.3203,68.2383,950.3203" style="stroke:#444444;stroke-width:1.0;"/><line style="stroke:#444444;stroke-width:1.0;stroke-dasharray:2.0,2.0;" x1="66.2383" x2="241.457" y1="950.3203" y2="950.3203"/><text fill="#000000" font-family="sans-serif" font-size="13" lengthAdjust="spacing" textLength="71.189" x="78.2383" y="945.2544">suggestion</text><text fill="#000000" font-family="sans-serif" font-size="13" lengthAdjust="spacing" textLength="4.1323" x="149.4272" y="945.2544">&#160;</text><text fill="#000000" font-family="sans-serif" font-size="13" lengthAdjust="spacing" textLength="41.8374" x="153.5596" y="945.2544">shown</text><path d="M30,965.3203 L99.4512,965.3203 L99.4512,972.4531 L89.4512,982.4531 L30,982.4531 L30,965.3203 " fill="#EEEEEE" style="stroke:#000000;stroke-width:1.5;"/><rect fill="none" height="75.3984" style="stroke:#000000;stroke-width:1.5;" width="486.8535" x="30" y="965.3203"/><text fill="#000000" font-family="sans-serif" font-size="13" font-weight="bold" lengthAdjust="spacing" textLength="24.4512" x="45" y="978.3872">opt</text><text fill="#000000" font-family="sans-serif" font-size="11" font-weight="bold" lengthAdjust="spacing" textLength="131.667" x="114.4512" y="977.5308">[Lifter logs the meal]</text><polygon fill="#444444" points="230.457,999.5859,240.457,1003.5859,230.457,1007.5859,234.457,1003.5859" style="stroke:#444444;stroke-width:1.0;"/><line style="stroke:#444444;stroke-width:1.0;" x1="61.2383" x2="236.457" y1="1003.5859" y2="1003.5859"/><text fill="#000000" font-family="sans-serif" font-size="13" lengthAdjust="spacing" textLength="87.3184" x="68.2383" y="998.52">logThisMeal()</text><polygon fill="#444444" points="430.522,1028.7188,440.522,1032.7188,430.522,1036.7188,434.522,1032.7188" style="stroke:#444444;stroke-width:1.0;"/><line style="stroke:#444444;stroke-width:1.0;" x1="242.457" x2="436.522" y1="1032.7188" y2="1032.7188"/><text fill="#000000" font-family="sans-serif" font-size="13" lengthAdjust="spacing" textLength="115.686" x="249.457" y="1027.6528">logIntake(entries)</text><line style="stroke:#000000;stroke-width:1.0;stroke-dasharray:2.0,2.0;" x1="20" x2="1644.8208" y1="1048.7188" y2="1048.7188"/><text fill="#000000" font-family="sans-serif" font-size="11" font-weight="bold" lengthAdjust="spacing" textLength="301.5601" x="25" y="1058.9292">[non permitted item or totals exceed remaining]</text><polygon fill="#444444" points="1559.2471,1079.6563,1569.2471,1083.6563,1559.2471,1087.6563,1563.2471,1083.6563" style="stroke:#444444;stroke-width:1.0;"/><line style="stroke:#444444;stroke-width:1.0;" x1="813.8613" x2="1565.2471" y1="1083.6563" y2="1083.6563"/><text fill="#000000" font-family="sans-serif" font-size="13" lengthAdjust="spacing" textLength="31.478" x="820.8613" y="1078.5903">retry</text><text fill="#000000" font-family="sans-serif" font-size="13" lengthAdjust="spacing" textLength="4.1323" x="852.3394" y="1078.5903">&#160;</text><text fill="#000000" font-family="sans-serif" font-size="13" lengthAdjust="spacing" textLength="27.5806" x="856.4717" y="1078.5903">with</text><text fill="#000000" font-family="sans-serif" font-size="13" lengthAdjust="spacing" textLength="4.1323" x="884.0522" y="1078.5903">&#160;</text><text fill="#000000" font-family="sans-serif" font-size="13" lengthAdjust="spacing" textLength="64.0034" x="888.1846" y="1078.5903">validation</text><text fill="#000000" font-family="sans-serif" font-size="13" lengthAdjust="spacing" textLength="4.1323" x="952.188" y="1078.5903">&#160;</text><text fill="#000000" font-family="sans-serif" font-size="13" lengthAdjust="spacing" textLength="38.7588" x="956.3203" y="1078.5903">errors</text><polygon fill="#444444" points="824.8613,1108.7891,814.8613,1112.7891,824.8613,1116.7891,820.8613,1112.7891" style="stroke:#444444;stroke-width:1.0;"/><line style="stroke:#444444;stroke-width:1.0;stroke-dasharray:2.0,2.0;" x1="818.8613" x2="1570.2471" y1="1112.7891" y2="1112.7891"/><text fill="#000000" font-family="sans-serif" font-size="13" lengthAdjust="spacing" textLength="62.2832" x="830.8613" y="1107.7231">corrected</text><text fill="#000000" font-family="sans-serif" font-size="13" lengthAdjust="spacing" textLength="4.1323" x="893.1445" y="1107.7231">&#160;</text><text fill="#000000" font-family="sans-serif" font-size="13" lengthAdjust="spacing" textLength="32.2397" x="897.2769" y="1107.7231">meal</text><polygon fill="#444444" points="463.522,1137.9219,453.522,1141.9219,463.522,1145.9219,459.522,1141.9219" style="stroke:#444444;stroke-width:1.0;"/><line style="stroke:#444444;stroke-width:1.0;stroke-dasharray:2.0,2.0;" x1="457.522" x2="802.8613" y1="1141.9219" y2="1141.9219"/><text fill="#000000" font-family="sans-serif" font-size="13" lengthAdjust="spacing" textLength="116.543" x="469.522" y="1136.856">AgentResult(meal</text><text fill="#000000" font-family="sans-serif" font-size="13" lengthAdjust="spacing" textLength="4.1323" x="586.0649" y="1136.856">&#160;</text><text fill="#000000" font-family="sans-serif" font-size="13" lengthAdjust="spacing" textLength="13.2983" x="590.1973" y="1136.856">or</text><text fill="#000000" font-family="sans-serif" font-size="13" lengthAdjust="spacing" textLength="4.1323" x="603.4956" y="1136.856">&#160;</text><text fill="#000000" font-family="sans-serif" font-size="13" lengthAdjust="spacing" textLength="46.4204" x="607.6279" y="1136.856">failure)</text><line style="stroke:#000000;stroke-width:1.0;stroke-dasharray:2.0,2.0;" x1="20" x2="1644.8208" y1="1150.9219" y2="1150.9219"/><text fill="#000000" font-family="sans-serif" font-size="11" font-weight="bold" lengthAdjust="spacing" textLength="81.2378" x="25" y="1161.1323">[no foods fit]</text><polygon fill="#444444" points="463.522,1196.9922,453.522,1200.9922,463.522,1204.9922,459.522,1200.9922" style="stroke:#444444;stroke-width:1.0;"/><line style="stroke:#444444;stroke-width:1.0;stroke-dasharray:2.0,2.0;" x1="457.522" x2="802.8613" y1="1200.9922" y2="1200.9922"/><text fill="#000000" font-family="sans-serif" font-size="13" lengthAdjust="spacing" textLength="135.1543" x="469.522" y="1180.7935">AgentResult(success</text><text fill="#000000" font-family="sans-serif" font-size="13" lengthAdjust="spacing" textLength="4.1323" x="604.6763" y="1180.7935">&#160;</text><text fill="#000000" font-family="sans-serif" font-size="13" lengthAdjust="spacing" textLength="10.8926" x="608.8086" y="1180.7935">=</text><text fill="#000000" font-family="sans-serif" font-size="13" lengthAdjust="spacing" textLength="4.1323" x="619.7012" y="1180.7935">&#160;</text><text fill="#000000" font-family="sans-serif" font-size="13" lengthAdjust="spacing" textLength="35.0581" x="623.8335" y="1180.7935">false,</text><text fill="#000000" font-family="sans-serif" font-size="13" lengthAdjust="spacing" textLength="81.7007" x="469.522" y="1195.9263">explanation)</text><polygon fill="#444444" points="253.457,1226.125,243.457,1230.125,253.457,1234.125,249.457,1230.125" style="stroke:#444444;stroke-width:1.0;"/><line style="stroke:#444444;stroke-width:1.0;stroke-dasharray:2.0,2.0;" x1="247.457" x2="441.522" y1="1230.125" y2="1230.125"/><text fill="#000000" font-family="sans-serif" font-size="13" lengthAdjust="spacing" textLength="76.6289" x="259.457" y="1225.0591">explanation</text><text fill="#000000" font-family="sans-serif" font-size="13" lengthAdjust="spacing" textLength="4.1323" x="336.0859" y="1225.0591">&#160;</text><text fill="#000000" font-family="sans-serif" font-size="13" lengthAdjust="spacing" textLength="12.5303" x="340.2183" y="1225.0591">of</text><text fill="#000000" font-family="sans-serif" font-size="13" lengthAdjust="spacing" textLength="4.1323" x="352.7485" y="1225.0591">&#160;</text><text fill="#000000" font-family="sans-serif" font-size="13" lengthAdjust="spacing" textLength="21.3345" x="356.8809" y="1225.0591">the</text><text fill="#000000" font-family="sans-serif" font-size="13" lengthAdjust="spacing" textLength="4.1323" x="378.2153" y="1225.0591">&#160;</text><text fill="#000000" font-family="sans-serif" font-size="13" lengthAdjust="spacing" textLength="53.1743" x="382.3477" y="1225.0591">shortfall</text><polygon fill="#444444" points="72.2383,1255.2578,62.2383,1259.2578,72.2383,1263.2578,68.2383,1259.2578" style="stroke:#444444;stroke-width:1.0;"/><line style="stroke:#444444;stroke-width:1.0;stroke-dasharray:2.0,2.0;" x1="66.2383" x2="241.457" y1="1259.2578" y2="1259.2578"/><text fill="#000000" font-family="sans-serif" font-size="13" lengthAdjust="spacing" textLength="16.1929" x="78.2383" y="1254.1919">no</text><text fill="#000000" font-family="sans-serif" font-size="13" lengthAdjust="spacing" textLength="4.1323" x="94.4312" y="1254.1919">&#160;</text><text fill="#000000" font-family="sans-serif" font-size="13" lengthAdjust="spacing" textLength="32.2397" x="98.5635" y="1254.1919">meal</text><text fill="#000000" font-family="sans-serif" font-size="13" lengthAdjust="spacing" textLength="4.1323" x="130.8032" y="1254.1919">&#160;</text><text fill="#000000" font-family="sans-serif" font-size="13" lengthAdjust="spacing" textLength="57.1289" x="134.9355" y="1254.1919">invented</text><!--SRC=[XLNRRjj647tdLqprH05ocxG52WIkW8Q10mDsOJXsdm844t94RRpSLNU7IfIdV4I-i5_IsGl5bHeqUj6IU-Psvipm1sLQFNO4xpmVDFsena5Nh5WJl7drx3VuvyjNU4qCjuGQtenzJvwLDL1VFNy6Fy5Zy_pdPLLXozR1ZTemkUgz7Ks7xW2BFqTsAi3lq91-QoulNpzUhzSBG0-FrrLh3JkhOT5ORBTDUjBa0l0AM-meOnjskjgXOzMg7Hg6nIsspZuuR9_8HKXyuSz0alESyXyz6OxOU3g5FbYhRz5Wdzs5vpDlLzPshrw6YuYu2gV_8XfarBPFQQVpAQZHA7GtMatPtDpSdYBkoU-iyNI7pkTqql4KTgVH_8LQTIZSHzJngQfIA-1YBJp32x0cyn0eaTX2MrSlAxaJH61NC7v6o9LqLEsHAN4V8G9DB0ku9xwd0PLHfg_PTdWeJ78lClXY3f6wPeKLNxl9V5brT6vQeMOu8g0L6fqY3uRGmMTojeBaysAgSC7e92aFg1rXTu21U26eKA9WCXylm5Yv4IaReewwYhGd65AYATxHyphfH6pSQEfulgU_Hw5epdq5ec7FJfxOBvTYUwmaYGoo4_4M9INUw1Er8rCTdXlKkbxio0sAcRft6r6GNqH72IvsKMY5NH5n9Qb_QZ8vmIXX0-59Ug6jGbcxhJj5mj2X-H_ZoUQY27gZF5y6NLyp3UivGb5F-1V9Zfhhc7wHVC7XiKQ8856aFbI2TBG1kvVMHE0gJ8EWPQty2XXDjRMxjwRs51VIBykgv3JDXHYmZRhzuArPnGYvc92CiT8Ef_ejWzrCemJownqEW8EiAz5DQmU2ZRC3y5OaOJlIguWoqnA3FMff_ncopKCEGAQBiUIOyoe9E5r6PH77iHNKFfqfLXE4UgAm5HHJKsXj7dmel9NHyrk9V4yxwu8mYwah5eTubT6BQSJgSvRp3ET1YFqE2IuZx7GOuuHzLBo5pQXrmU1xcSsdpduqqUXyDltyUV7R2MHtF264Pf-w8_xZ9S3PeXF8mrRvlCGIv6JB2U3QC3vHBMLCoe-z2nqCsy18-5cjIdGFGYR7hIL3sChYcDjGShJEudN4yl6BvU-Fj0CvPvsF-00hczDQvwWDqOw5VPVsaDC6bHuTBUVCyt1j57_VYn_Rbho7tyMFMA-ajfryKcAstsfgSHtcAFH1kkHOhFKtspcjMcNs4fMwQgAvK5xQak5ryJB4_HS0]--></g></svg>