<svg xmlns="http://www.w3.org/2000/svg" xmlns:xlink="http://www.w3.org/1999/xlink" contentStyleType="text/css" height="1122px" preserveAspectRatio="none" style="width:1981px;height:1122px;background:#FFFFFF;" version="1.1" viewBox="0 0 1981 1122" width="1981px" zoomAndPan="magnify"><title>SD12 &#8212; Adopt an Existing Programme (F14 / UC19)</title><defs/><g><text fill="#000000" font-family="sans-serif" font-size="14" font-weight="bold" lengthAdjust="spacing" textLength="403.8945" x="789.7266" y="27.9951">SD12 &#8212; Adopt an Existing Programme (F14 / UC19)</text><rect fill="#EFEFEF" height="853.3359" style="stroke:#999999;stroke-width:1.0;" width="10" x="518.7734" y="178.8594"/><rect fill="#EFEFEF" height="87.3984" style="stroke:#999999;stroke-width:1.0;" width="10" x="770.5933" y="232.125"/><rect fill="#EFEFEF" height="131.4688" style="stroke:#999999;stroke-width:1.0;" width="10" x="1174.7539" y="436.5313"/><rect fill="#EFEFEF" height="94.5313" style="stroke:#999999;stroke-width:1.0;" width="10" x="1651.0352" y="619.2656"/><rect fill="none" height="382.1406" style="stroke:#000000;stroke-width:1.5;" width="1136.0952" x="454.4419" y="193.8594"/><rect fill="none" height="296.3984" style="stroke:#000000;stroke-width:1.5;" width="1964.3477" x="10" y="728.7969"/><line style="stroke:#999999;stroke-width:0.5;stroke-dasharray:5.0,5.0;" x1="41" x2="41" y1="118.5938" y2="1042.1953"/><line style="stroke:#999999;stroke-width:0.5;stroke-dasharray:5.0,5.0;" x1="296.6401" x2="296.6401" y1="118.5938" y2="1042.1953"/><line style="stroke:#999999;stroke-width:0.5;stroke-dasharray:5.0,5.0;" x1="523.4419" x2="523.4419" y1="118.5938" y2="1042.1953"/><line style="stroke:#999999;stroke-width:0.5;stroke-dasharray:5.0,5.0;" x1="775.5537" x2="775.5537" y1="118.5938" y2="1042.1953"/><line style="stroke:#999999;stroke-width:0.5;stroke-dasharray:5.0,5.0;" x1="980.6328" x2="980.6328" y1="118.5938" y2="1042.1953"/><line style="stroke:#999999;stroke-width:0.5;stroke-dasharray:5.0,5.0;" x1="1178.877" x2="1178.877" y1="118.5938" y2="1042.1953"/><line style="stroke:#999999;stroke-width:0.5;stroke-dasharray:5.0,5.0;" x1="1355.6309" x2="1355.6309" y1="118.5938" y2="1042.1953"/><line style="stroke:#999999;stroke-width:0.5;stroke-dasharray:5.0,5.0;" x1="1504.7783" x2="1504.7783" y1="118.5938" y2="1042.1953"/><line style="stroke:#999999;stroke-width:0.5;stroke-dasharray:5.0,5.0;" x1="1655.5371" x2="1655.5371" y1="118.5938" y2="1042.1953"/><line style="stroke:#999999;stroke-width:0.5;stroke-dasharray:5.0,5.0;" x1="1790.5332" x2="1790.5332" y1="118.5938" y2="1042.1953"/><line style="stroke:#999999;stroke-width:0.5;stroke-dasharray:5.0,5.0;" x1="1911.4697" x2="1911.4697" y1="118.5938" y2="1042.1953"/><text fill="#000000" font-family="sans-serif" font-size="14" lengthAdjust="spacing" textLength="36.4766" x="20" y="115.292">Lifter</text><ellipse cx="41.2383" cy="50.7969" fill="#FFFFFF" rx="8" ry="8" style="stroke:#444444;stroke-width:0.5;"/><path d="M41.2383,58.7969 L41.2383,85.7969 M28.2383,66.7969 L54.2383,66.7969 M41.2383,85.7969 L28.2383,100.7969 M41.2383,85.7969 L54.2383,100.7969 " fill="none" style="stroke:#444444;stroke-width:0.5;"/><text fill="#000000" font-family="sans-serif" font-size="14" lengthAdjust="spacing" textLength="36.4766" x="20" y="1054.1904">Lifter</text><ellipse cx="41.2383" cy="1065.9922" fill="#FFFFFF" rx="8" ry="8" style="stroke:#444444;stroke-width:0.5;"/><path d="M41.2383,1073.9922 L41.2383,1100.9922 M28.2383,1081.9922 L54.2383,1081.9922 M41.2383,1100.9922 L28.2383,1115.9922 M41.2383,1100.9922 L54.2383,1115.9922 " fill="none" style="stroke:#444444;stroke-width:0.5;"/><text fill="#000000" font-family="sans-serif" font-size="14" lengthAdjust="spacing" textLength="68.1816" x="259.6401" y="98.9951">PlanPanel</text><text fill="#000000" font-family="sans-serif" font-size="14" lengthAdjust="spacing" textLength="42.3555" x="272.5532" y="115.292">&#171;GUI&#187;</text><path d="M276.231,58 L276.231,82 M276.231,70 L293.231,70 " fill="none" style="stroke:#181818;stroke-width:0.5;"/><ellipse cx="305.231" cy="70" fill="#E2E2F0" rx="12" ry="12" style="stroke:#181818;stroke-width:0.5;"/><text fill="#000000" font-family="sans-serif" font-size="14" lengthAdjust="spacing" textLength="68.1816" x="259.6401" y="1054.1904">PlanPanel</text><text fill="#000000" font-family="sans-serif" font-size="14" lengthAdjust="spacing" textLength="42.3555" x="272.5532" y="1070.4873">&#171;GUI&#187;</text><path d="M276.231,1077.7891 L276.231,1101.7891 M276.231,1089.7891 L293.231,1089.7891 " fill="none" style="stroke:#181818;stroke-width:0.5;"/><ellipse cx="305.231" cy="1089.7891" fill="#E2E2F0" rx="12" ry="12" style="stroke:#181818;stroke-width:0.5;"/><text fill="#000000" font-family="sans-serif" font-size="14" lengthAdjust="spacing" textLength="112.6631" x="464.4419" y="98.9951">CoachController</text><text fill="#000000" font-family="sans-serif" font-size="14" lengthAdjust="spacing" textLength="67.5391" x="487.0039" y="115.292">&#171;Facade&#187;</text><ellipse cx="523.7734" cy="70" fill="#E2E2F0" rx="12" ry="12" style="stroke:#181818;stroke-width:0.5;"/><polygon fill="#181818" points="519.7734,58,525.7734,53,523.7734,58,525.7734,63,519.7734,58" style="stroke:#181818;stroke-width:1.0;"/><text fill="#000000" font-family="sans-serif" font-size="14" lengthAdjust="spacing" textLength="112.6631" x="464.4419" y="1054.1904">CoachController</text><text fill="#000000" font-family="sans-serif" font-size="14" lengthAdjust="spacing" textLength="67.5391" x="487.0039" y="1070.4873">&#171;Facade&#187;</text><ellipse cx="523.7734" cy="1089.7891" fill="#E2E2F0" rx="12" ry="12" style="stroke:#181818;stroke-width:0.5;"/><polygon fill="#181818" points="519.7734,1077.7891,525.7734,1072.7891,523.7734,1077.7891,525.7734,1082.7891,519.7734,1077.7891" style="stroke:#181818;stroke-width:1.0;"/><rect fill="#FFFFFF" height="30.2969" rx="2.5" ry="2.5" style="stroke:#444444;stroke-width:0.5;" width="194.0791" x="678.5537" y="87.2969"/><text fill="#000000" font-family="sans-serif" font-size="14" lengthAdjust="spacing" textLength="180.0791" x="685.5537" y="107.292">ProgrammeImportService</text><rect fill="#FFFFFF" height="30.2969" rx="2.5" ry="2.5" style="stroke:#444444;stroke-width:0.5;" width="194.0791" x="678.5537" y="1041.1953"/><text fill="#000000" font-family="sans-serif" font-size="14" lengthAdjust="spacing" textLength="180.0791" x="685.5537" y="1061.1904">ProgrammeImportService</text><rect fill="#FFFFFF" height="30.2969" rx="2.5" ry="2.5" style="stroke:#444444;stroke-width:0.5;" width="148.2441" x="906.6328" y="87.2969"/><text fill="#000000" font-family="sans-serif" font-size="14" lengthAdjust="spacing" textLength="134.2441" x="913.6328" y="107.292">DataSourceFactory</text><rect fill="#FFFFFF" height="30.2969" rx="2.5" ry="2.5" style="stroke:#444444;stroke-width:0.5;" width="148.2441" x="906.6328" y="1041.1953"/><text fill="#000000" font-family="sans-serif" font-size="14" lengthAdjust="spacing" textLength="134.2441" x="913.6328" y="1061.1904">DataSourceFactory</text><rect fill="#FFFFFF" height="30.2969" rx="2.5" ry="2.5" style="stroke:#444444;stroke-width:0.5;" width="181.7539" x="1088.877" y="87.2969"/><text fill="#000000" font-family="sans-serif" font-size="14" lengthAdjust="spacing" textLength="167.7539" x="1095.877" y="107.292">ProgrammeParserAgent</text><rect fill="#FFFFFF" height="30.2969" rx="2.5" ry="2.5" style="stroke:#444444;stroke-width:0.5;" width="181.7539" x="1088.877" y="1041.1953"/><text fill="#000000" font-family="sans-serif" font-size="14" lengthAdjust="spacing" textLength="167.7539" x="1095.877" y="1061.1904">ProgrammeParserAgent</text><rect fill="#FFFFFF" height="30.2969" rx="2.5" ry="2.5" style="stroke:#444444;stroke-width:0.5;" width="103.1475" x="1304.6309" y="87.2969"/><text fill="#000000" font-family="sans-serif" font-size="14" lengthAdjust="spacing" textLength="89.1475" x="1311.6309" y="107.292">ClaudeClient</text><rect fill="#FFFFFF" height="30.2969" rx="2.5" ry="2.5" style="stroke:#444444;stroke-width:0.5;" width="103.1475" x="1304.6309" y="1041.1953"/><text fill="#000000" font-family="sans-serif" font-size="14" lengthAdjust="spacing" textLength="89.1475" x="1311.6309" y="1061.1904">ClaudeClient</text><rect fill="#FFFFFF" height="30.2969" rx="2.5" ry="2.5" style="stroke:#444444;stroke-width:0.5;" width="126.7588" x="1441.7783" y="87.2969"/><text fill="#000000" font-family="sans-serif" font-size="14" lengthAdjust="spacing" textLength="112.7588" x="1448.7783" y="107.292">ExerciseCatalog</text><rect fill="#FFFFFF" height="30.2969" rx="2.5" ry="2.5" style="stroke:#444444;stroke-width:0.5;" width="126.7588" x="1441.7783" y="1041.1953"/><text fill="#000000" font-family="sans-serif" font-size="14" lengthAdjust="spacing" textLength="112.7588" x="1448.7783" y="1061.1904">ExerciseCatalog</text><rect fill="#FFFFFF" height="30.2969" rx="2.5" ry="2.5" style="stroke:#444444;stroke-width:0.5;" width="106.9961" x="1602.5371" y="87.2969"/><text fill="#000000" font-family="sans-serif" font-size="14" lengthAdjust="spacing" textLength="92.9961" x="1609.5371" y="107.292">PlanValidator</text><rect fill="#FFFFFF" height="30.2969" rx="2.5" ry="2.5" style="stroke:#444444;stroke-width:0.5;" width="106.9961" x="1602.5371" y="1041.1953"/><text fill="#000000" font-family="sans-serif" font-size="14" lengthAdjust="spacing" textLength="92.9961" x="1609.5371" y="1061.1904">PlanValidator</text><text fill="#000000" font-family="sans-serif" font-size="14" lengthAdjust="spacing" textLength="112.9365" x="1731.5332" y="115.292">BlockRepository</text><path d="M1773.0015,66.2969 C1773.0015,56.2969 1791.0015,56.2969 1791.0015,56.2969 C1791.0015,56.2969 1809.0015,56.2969 1809.0015,66.2969 L1809.0015,92.2969 C1809.0015,102.2969 1791.0015,102.2969 1791.0015,102.2969 C1791.0015,102.2969 1773.0015,102.2969 1773.0015,92.2969 L1773.0015,66.2969 " fill="#E2E2F0" style="stroke:#181818;stroke-width:1.5;"/><path d="M1773.0015,66.2969 C1773.0015,76.2969 1791.0015,76.2969 1791.0015,76.2969 C1791.0015,76.2969 1809.0015,76.2969 1809.0015,66.2969 " fill="none" style="stroke:#181818;stroke-width:1.5;"/><text fill="#000000" font-family="sans-serif" font-size="14" lengthAdjust="spacing" textLength="112.9365" x="1731.5332" y="1054.1904">BlockRepository</text><path d="M1773.0015,1067.4922 C1773.0015,1057.4922 1791.0015,1057.4922 1791.0015,1057.4922 C1791.0015,1057.4922 1809.0015,1057.4922 1809.0015,1067.4922 L1809.0015,1093.4922 C1809.0015,1103.4922 1791.0015,1103.4922 1791.0015,1103.4922 C1791.0015,1103.4922 1773.0015,1103.4922 1773.0015,1093.4922 L1773.0015,1067.4922 " fill="#E2E2F0" style="stroke:#181818;stroke-width:1.5;"/><path d="M1773.0015,1067.4922 C1773.0015,1077.4922 1791.0015,1077.4922 1791.0015,1077.4922 C1791.0015,1077.4922 1809.0015,1077.4922 1809.0015,1067.4922 " fill="none" style="stroke:#181818;stroke-width:1.5;"/><rect fill="#FFFFFF" height="30.2969" rx="2.5" ry="2.5" style="stroke:#444444;stroke-width:0.5;" width="79.8779" x="1872.4697" y="87.2969"/><text fill="#000000" font-family="sans-serif" font-size="14" lengthAdjust="spacing" textLength="65.8779" x="1879.4697" y="107.292">EventBus</text><rect fill="#FFFFFF" height="30.2969" rx="2.5" ry="2.5" style="stroke:#444444;stroke-width:0.5;" width="79.8779" x="1872.4697" y="1041.1953"/><text fill="#000000" font-family="sans-serif" font-size="14" lengthAdjust="spacing" textLength="65.8779" x="1879.4697" y="1061.1904">EventBus</text><rect fill="#EFEFEF" height="853.3359" style="stroke:#999999;stroke-width:1.0;" width="10" x="518.7734" y="178.8594"/><rect fill="#EFEFEF" height="87.3984" style="stroke:#999999;stroke-width:1.0;" width="10" x="770.5933" y="232.125"/><rect fill="#EFEFEF" height="131.4688" style="stroke:#999999;stroke-width:1.0;" width="10" x="1174.7539" y="436.5313"/><rect fill="#EFEFEF" height="94.5313" style="stroke:#999999;stroke-width:1.0;" width="10" x="1651.0352" y="619.2656"/><polygon fill="#444444" points="284.731,145.7266,294.731,149.7266,284.731,153.7266,288.731,149.7266" style="stroke:#444444;stroke-width:1.0;"/><line style="stroke:#444444;stroke-width:1.0;" x1="41.2383" x2="290.731" y1="149.7266" y2="149.7266"/><text fill="#000000" font-family="sans-serif" font-size="13" lengthAdjust="spacing" textLength="231.4927" x="48.2383" y="144.6606">onAdoptProgrammeClicked(source)</text><polygon fill="#444444" points="506.7734,174.8594,516.7734,178.8594,506.7734,182.8594,510.7734,178.8594" style="stroke:#444444;stroke-width:1.0;"/><line style="stroke:#444444;stroke-width:1.0;" x1="296.731" x2="512.7734" y1="178.8594" y2="178.8594"/><text fill="#000000" font-family="sans-serif" font-size="13" lengthAdjust="spacing" textLength="166.207" x="303.731" y="173.7935">adoptProgramme(source,</text><text fill="#000000" font-family="sans-serif" font-size="13" lengthAdjust="spacing" textLength="4.1323" x="469.938" y="173.7935">&#160;</text><text fill="#000000" font-family="sans-serif" font-size="13" lengthAdjust="spacing" textLength="32.7031" x="474.0703" y="173.7935">kind)</text><path d="M454.4419,193.8594 L518.8848,193.8594 L518.8848,200.9922 L508.8848,210.9922 L454.4419,210.9922 L454.4419,193.8594 " fill="#EEEEEE" style="stroke:#000000;stroke-width:1.5;"/><rect fill="none" height="382.1406" style="stroke:#000000;stroke-width:1.5;" width="1136.0952" x="454.4419" y="193.8594"/><text fill="#000000" font-family="sans-serif" font-size="13" font-weight="bold" lengthAdjust="spacing" textLength="19.4429" x="469.4419" y="206.9263">alt</text><text fill="#000000" font-family="sans-serif" font-size="11" font-weight="bold" lengthAdjust="spacing" textLength="109.8604" x="533.8848" y="206.0698">[kind = CSV_FILE]</text><polygon fill="#444444" points="758.5933,228.125,768.5933,232.125,758.5933,236.125,762.5933,232.125" style="stroke:#444444;stroke-width:1.0;"/><line style="stroke:#444444;stroke-width:1.0;" x1="528.7734" x2="764.5933" y1="232.125" y2="232.125"/><text fill="#000000" font-family="sans-serif" font-size="13" lengthAdjust="spacing" textLength="92.8408" x="535.7734" y="227.0591">fromCsv(path,</text><text fill="#000000" font-family="sans-serif" font-size="13" lengthAdjust="spacing" textLength="4.1323" x="628.6143" y="227.0591">&#160;</text><text fill="#000000" font-family="sans-serif" font-size="13" lengthAdjust="spacing" textLength="62.3086" x="632.7466" y="227.0591">mapping)</text><polygon fill="#444444" points="968.7549,257.2578,978.7549,261.2578,968.7549,265.2578,972.7549,261.2578" style="stroke:#444444;stroke-width:1.0;"/><line style="stroke:#444444;stroke-width:1.0;" x1="780.5933" x2="974.7549" y1="261.2578" y2="261.2578"/><text fill="#000000" font-family="sans-serif" font-size="13" lengthAdjust="spacing" textLength="108.9321" x="787.5933" y="256.1919">create(mapping)</text><polygon fill="#444444" points="1493.1577,286.3906,1503.1577,290.3906,1493.1577,294.3906,1497.1577,290.3906" style="stroke:#444444;stroke-width:1.0;"/><line style="stroke:#444444;stroke-width:1.0;" x1="780.5933" x2="1499.1577" y1="290.3906" y2="290.3906"/><text fill="#000000" font-family="sans-serif" font-size="13" lengthAdjust="spacing" textLength="119.0059" x="787.5933" y="285.3247">byName(exercise)</text><polygon fill="#444444" points="539.7734,315.5234,529.7734,319.5234,539.7734,323.5234,535.7734,319.5234" style="stroke:#444444;stroke-width:1.0;"/><line style="stroke:#444444;stroke-width:1.0;stroke-dasharray:2.0,2.0;" x1="533.7734" x2="774.5933" y1="319.5234" y2="319.5234"/><text fill="#000000" font-family="sans-serif" font-size="13" lengthAdjust="spacing" textLength="130.4507" x="545.7734" y="314.4575">TrainingBlock(origin</text><text fill="#000000" font-family="sans-serif" font-size="13" lengthAdjust="spacing" textLength="4.1323" x="676.2241" y="314.4575">&#160;</text><text fill="#000000" font-family="sans-serif" font-size="13" lengthAdjust="spacing" textLength="10.8926" x="680.3564" y="314.4575">=</text><text fill="#000000" font-family="sans-serif" font-size="13" lengthAdjust="spacing" textLength="4.1323" x="691.249" y="314.4575">&#160;</text><text fill="#000000" font-family="sans-serif" font-size="13" lengthAdjust="spacing" textLength="68.2119" x="695.3813" y="314.4575">ADOPTED)</text><line style="stroke:#000000;stroke-width:1.0;stroke-dasharray:2.0,2.0;" x1="454.4419" x2="1590.5371" y1="328.5234" y2="328.5234"/><text fill="#000000" font-family="sans-serif" font-size="11" font-weight="bold" lengthAdjust="spacing" textLength="153.001" x="459.4419" y="338.7339">[kind = MANUAL_ENTRY]</text><polygon fill="#444444" points="763.5933,359.4609,773.5933,363.4609,763.5933,367.4609,767.5933,363.4609" style="stroke:#444444;stroke-width:1.0;"/><line style="stroke:#444444;stroke-width:1.0;" x1="528.7734" x2="769.5933" y1="363.4609" y2="363.4609"/><text fill="#000000" font-family="sans-serif" font-size="13" lengthAdjust="spacing" textLength="163.4395" x="535.7734" y="358.395">fromManualEntry(weeks)</text><polygon fill="#444444" points="539.7734,388.5938,529.7734,392.5938,539.7734,396.5938,535.7734,392.5938" style="stroke:#444444;stroke-width:1.0;"/><line style="stroke:#444444;stroke-width:1.0;stroke-dasharray:2.0,2.0;" x1="533.7734" x2="774.5933" y1="392.5938" y2="392.5938"/><text fill="#000000" font-family="sans-serif" font-size="13" lengthAdjust="spacing" textLength="130.4507" x="545.7734" y="387.5278">TrainingBlock(origin</text><text fill="#000000" font-family="sans-serif" font-size="13" lengthAdjust="spacing" textLength="4.1323" x="676.2241" y="387.5278">&#160;</text><text fill="#000000" font-family="sans-serif" font-size="13" lengthAdjust="spacing" textLength="10.8926" x="680.3564" y="387.5278">=</text><text fill="#000000" font-family="sans-serif" font-size="13" lengthAdjust="spacing" textLength="4.1323" x="691.249" y="387.5278">&#160;</text><text fill="#000000" font-family="sans-serif" font-size="13" lengthAdjust="spacing" textLength="68.2119" x="695.3813" y="387.5278">ADOPTED)</text><line style="stroke:#000000;stroke-width:1.0;stroke-dasharray:2.0,2.0;" x1="454.4419" x2="1590.5371" y1="401.5938" y2="401.5938"/><text fill="#000000" font-family="sans-serif" font-size="11" font-weight="bold" lengthAdjust="spacing" textLength="138.8696" x="459.4419" y="411.8042">[kind = PASTED_TEXT]</text><polygon fill="#444444" points="1162.7539,432.5313,1172.7539,436.5313,1162.7539,440.5313,1166.7539,436.5313" style="stroke:#444444;stroke-width:1.0;"/><line style="stroke:#444444;stroke-width:1.0;" x1="528.7734" x2="1168.7539" y1="436.5313" y2="436.5313"/><text fill="#000000" font-family="sans-serif" font-size="13" lengthAdjust="spacing" textLength="159.8657" x="535.7734" y="431.4653">run(AgentRequest(text))</text><rect fill="none" height="53.0703" style="stroke:#000000;stroke-width:1.5;" width="348.9014" x="1073.877" y="444.5313"/><path d="M1073.877,444.5313 L1138.877,444.5313 L1138.877,451.5313 L1128.877,461.5313 L1073.877,461.5313 L1073.877,444.5313 " fill="#EEEEEE" style="stroke:#000000;stroke-width:2.0;"/><text fill="#000000" font-family="sans-serif" font-size="13" font-weight="bold" lengthAdjust="spacing" textLength="20.8838" x="1086.877" y="458.5981">ref</text><text fill="#000000" font-family="sans-serif" font-size="12" lengthAdjust="spacing" textLength="100.3594" x="1198.1479" y="476.6699">UC14 agent loop</text><text fill="#000000" font-family="sans-serif" font-size="12" lengthAdjust="spacing" textLength="66.3223" x="1215.1665" y="490.6387">(see SD03)</text><polygon fill="#444444" points="1493.1577,534.8672,1503.1577,538.8672,1493.1577,542.8672,1497.1577,538.8672" style="stroke:#444444;stroke-width:1.0;"/><line style="stroke:#444444;stroke-width:1.0;" x1="1184.7539" x2="1499.1577" y1="538.8672" y2="538.8672"/><text fill="#000000" font-family="sans-serif" font-size="13" lengthAdjust="spacing" textLength="54.2979" x="1191.7539" y="518.6685">byName</text><text fill="#000000" font-family="sans-serif" font-size="13" lengthAdjust="spacing" textLength="4.1323" x="1246.0518" y="518.6685">&#160;</text><text fill="#000000" font-family="sans-serif" font-size="13" lengthAdjust="spacing" textLength="24.4575" x="1250.1841" y="518.6685">and</text><text fill="#000000" font-family="sans-serif" font-size="13" lengthAdjust="spacing" textLength="4.1323" x="1274.6416" y="518.6685">&#160;</text><text fill="#000000" font-family="sans-serif" font-size="13" lengthAdjust="spacing" textLength="99.7915" x="1278.7739" y="518.6685">closestMatches</text><text fill="#000000" font-family="sans-serif" font-size="13" lengthAdjust="spacing" textLength="4.1323" x="1378.5654" y="518.6685">&#160;</text><text fill="#000000" font-family="sans-serif" font-size="13" lengthAdjust="spacing" textLength="17.875" x="1382.6978" y="518.6685">for</text><text fill="#000000" font-family="sans-serif" font-size="13" lengthAdjust="spacing" textLength="31.3511" x="1191.7539" y="533.8013">each</text><text fill="#000000" font-family="sans-serif" font-size="13" lengthAdjust="spacing" textLength="4.1323" x="1223.105" y="533.8013">&#160;</text><text fill="#000000" font-family="sans-serif" font-size="13" lengthAdjust="spacing" textLength="70.3066" x="1227.2373" y="533.8013">movement</text><polygon fill="#444444" points="539.7734,564,529.7734,568,539.7734,572,535.7734,568" style="stroke:#444444;stroke-width:1.0;"/><line style="stroke:#444444;stroke-width:1.0;stroke-dasharray:2.0,2.0;" x1="533.7734" x2="1178.7539" y1="568" y2="568"/><text fill="#000000" font-family="sans-serif" font-size="13" lengthAdjust="spacing" textLength="130.4507" x="545.7734" y="562.9341">TrainingBlock(origin</text><text fill="#000000" font-family="sans-serif" font-size="13" lengthAdjust="spacing" textLength="4.1323" x="676.2241" y="562.9341">&#160;</text><text fill="#000000" font-family="sans-serif" font-size="13" lengthAdjust="spacing" textLength="10.8926" x="680.3564" y="562.9341">=</text><text fill="#000000" font-family="sans-serif" font-size="13" lengthAdjust="spacing" textLength="4.1323" x="691.249" y="562.9341">&#160;</text><text fill="#000000" font-family="sans-serif" font-size="13" lengthAdjust="spacing" textLength="68.2119" x="695.3813" y="562.9341">ADOPTED)</text><polygon fill="#444444" points="1639.0352,615.2656,1649.0352,619.2656,1639.0352,623.2656,1643.0352,619.2656" style="stroke:#444444;stroke-width:1.0;"/><line style="stroke:#444444;stroke-width:1.0;" x1="528.7734" x2="1645.0352" y1="619.2656" y2="619.2656"/><text fill="#000000" font-family="sans-serif" font-size="13" lengthAdjust="spacing" textLength="185.7515" x="535.7734" y="599.0669">validateAdoptedBlock(block,</text><text fill="#000000" font-family="sans-serif" font-size="13" lengthAdjust="spacing" textLength="46.4204" x="535.7734" y="614.1997">profile)</text><path d="M1666,632.2656 L1666,687.2656 L1956,687.2656 L1956,642.2656 L1946,632.2656 L1666,632.2656 " fill="#FEFFDD" style="stroke:#181818;stroke-width:0.5;"/><path d="M1946,632.2656 L1946,642.2656 L1956,642.2656 L1946,632.2656 " fill="#FEFFDD" style="stroke:#181818;stroke-width:0.5;"/><text fill="#000000" font-family="sans-serif" font-size="13" lengthAdjust="spacing" textLength="269.5786" x="1672" y="649.3325">exercises exist, sessions per week do not</text><text fill="#000000" font-family="sans-serif" font-size="13" lengthAdjust="spacing" textLength="249.4058" x="1672" y="664.4653">exceed the lifter's training days, loads</text><text fill="#000000" font-family="sans-serif" font-size="13" lengthAdjust="spacing" textLength="246.5112" x="1672" y="679.5981">are plausible against current strength</text><polygon fill="#444444" points="539.7734,709.7969,529.7734,713.7969,539.7734,717.7969,535.7734,713.7969" style="stroke:#444444;stroke-width:1.0;"/><line style="stroke:#444444;stroke-width:1.0;stroke-dasharray:2.0,2.0;" x1="533.7734" x2="1655.0352" y1="713.7969" y2="713.7969"/><text fill="#000000" font-family="sans-serif" font-size="13" lengthAdjust="spacing" textLength="108.8813" x="545.7734" y="708.731">ValidationReport</text><path d="M10,728.7969 L74.4429,728.7969 L74.4429,735.9297 L64.4429,745.9297 L10,745.9297 L10,728.7969 " fill="#EEEEEE" style="stroke:#000000;stroke-width:1.5;"/><rect fill="none" height="296.3984" style="stroke:#000000;stroke-width:1.5;" width="1964.3477" x="10" y="728.7969"/><text fill="#000000" font-family="sans-serif" font-size="13" font-weight="bold" lengthAdjust="spacing" textLength="19.4429" x="25" y="741.8638">alt</text><text fill="#000000" font-family="sans-serif" font-size="11" font-weight="bold" lengthAdjust="spacing" textLength="40.063" x="89.4429" y="741.0073">[valid]</text><polygon fill="#444444" points="1779.0015,763.0625,1789.0015,767.0625,1779.0015,771.0625,1783.0015,767.0625" style="stroke:#444444;stroke-width:1.0;"/><line style="stroke:#444444;stroke-width:1.0;" x1="528.7734" x2="1785.0015" y1="767.0625" y2="767.0625"/><text fill="#000000" font-family="sans-serif" font-size="13" lengthAdjust="spacing" textLength="75.0674" x="535.7734" y="761.9966">save(block)</text><polygon fill="#444444" points="1900.4087,792.1953,1910.4087,796.1953,1900.4087,800.1953,1904.4087,796.1953" style="stroke:#444444;stroke-width:1.0;"/><line style="stroke:#444444;stroke-width:1.0;" x1="528.7734" x2="1906.4087" y1="796.1953" y2="796.1953"/><text fill="#000000" font-family="sans-serif" font-size="13" lengthAdjust="spacing" textLength="159.7451" x="535.7734" y="791.1294">publish(PLAN_UPDATED)</text><polygon fill="#444444" points="307.731,821.3281,297.731,825.3281,307.731,829.3281,303.731,825.3281" style="stroke:#444444;stroke-width:1.0;"/><line style="stroke:#444444;stroke-width:1.0;" x1="301.731" x2="1911.4087" y1="825.3281" y2="825.3281"/><text fill="#000000" font-family="sans-serif" font-size="13" lengthAdjust="spacing" textLength="71.5762" x="313.731" y="820.2622">onEvent(e)</text><polygon fill="#444444" points="307.731,850.4609,297.731,854.4609,307.731,858.4609,303.731,854.4609" style="stroke:#444444;stroke-width:1.0;"/><line style="stroke:#444444;stroke-width:1.0;stroke-dasharray:2.0,2.0;" x1="301.731" x2="517.7734" y1="854.4609" y2="854.4609"/><text fill="#000000" font-family="sans-serif" font-size="13" lengthAdjust="spacing" textLength="53.771" x="313.731" y="849.395">adopted</text><text fill="#000000" font-family="sans-serif" font-size="13" lengthAdjust="spacing" textLength="4.1323" x="367.502" y="849.395">&#160;</text><text fill="#000000" font-family="sans-serif" font-size="13" lengthAdjust="spacing" textLength="76.4385" x="371.6343" y="849.395">programme</text><polygon fill="#444444" points="52.2383,924.9922,42.2383,928.9922,52.2383,932.9922,48.2383,928.9922" style="stroke:#444444;stroke-width:1.0;"/><line style="stroke:#444444;stroke-width:1.0;stroke-dasharray:2.0,2.0;" x1="46.2383" x2="295.731" y1="928.9922" y2="928.9922"/><text fill="#000000" font-family="sans-serif" font-size="13" lengthAdjust="spacing" textLength="28.0693" x="58.2383" y="878.5278">plan</text><text fill="#000000" font-family="sans-serif" font-size="13" lengthAdjust="spacing" textLength="4.1323" x="86.3076" y="878.5278">&#160;</text><text fill="#000000" font-family="sans-serif" font-size="13" lengthAdjust="spacing" textLength="46.2173" x="90.4399" y="878.5278">shown;</text><text fill="#000000" font-family="sans-serif" font-size="13" lengthAdjust="spacing" textLength="4.1323" x="136.6572" y="878.5278">&#160;</text><text fill="#000000" font-family="sans-serif" font-size="13" lengthAdjust="spacing" textLength="73.3154" x="140.7896" y="878.5278">adherence,</text><text fill="#000000" font-family="sans-serif" font-size="13" lengthAdjust="spacing" textLength="76.9844" x="58.2383" y="893.6606">substitution</text><text fill="#000000" font-family="sans-serif" font-size="13" lengthAdjust="spacing" textLength="24.4575" x="58.2383" y="908.7935">and</text><text fill="#000000" font-family="sans-serif" font-size="13" lengthAdjust="spacing" textLength="4.1323" x="82.6958" y="908.7935">&#160;</text><text fill="#000000" font-family="sans-serif" font-size="13" lengthAdjust="spacing" textLength="57.1733" x="86.8281" y="908.7935">recovery</text><text fill="#000000" font-family="sans-serif" font-size="13" lengthAdjust="spacing" textLength="4.1323" x="144.0015" y="908.7935">&#160;</text><text fill="#000000" font-family="sans-serif" font-size="13" lengthAdjust="spacing" textLength="73.9375" x="148.1338" y="908.7935">adjustment</text><text fill="#000000" font-family="sans-serif" font-size="13" lengthAdjust="spacing" textLength="4.1323" x="222.0713" y="908.7935">&#160;</text><text fill="#000000" font-family="sans-serif" font-size="13" lengthAdjust="spacing" textLength="26.8252" x="226.2036" y="908.7935">now</text><text fill="#000000" font-family="sans-serif" font-size="13" lengthAdjust="spacing" textLength="35.7754" x="58.2383" y="923.9263">apply</text><text fill="#000000" font-family="sans-serif" font-size="13" lengthAdjust="spacing" textLength="4.1323" x="94.0137" y="923.9263">&#160;</text><text fill="#000000" font-family="sans-serif" font-size="13" lengthAdjust="spacing" textLength="13.0508" x="98.146" y="923.9263">to</text><text fill="#000000" font-family="sans-serif" font-size="13" lengthAdjust="spacing" textLength="4.1323" x="111.1968" y="923.9263">&#160;</text><text fill="#000000" font-family="sans-serif" font-size="13" lengthAdjust="spacing" textLength="8.709" x="115.3291" y="923.9263">it</text><line style="stroke:#000000;stroke-width:1.0;stroke-dasharray:2.0,2.0;" x1="10" x2="1974.3477" y1="937.9922" y2="937.9922"/><text fill="#000000" font-family="sans-serif" font-size="11" font-weight="bold" lengthAdjust="spacing" textLength="270.2949" x="15" y="948.2026">[unresolved exercises or implausible loads]</text><polygon fill="#444444" points="307.731,968.9297,297.731,972.9297,307.731,976.9297,303.731,972.9297" style="stroke:#444444;stroke-width:1.0;"/><line style="stroke:#444444;stroke-width:1.0;stroke-dasharray:2.0,2.0;" x1="301.731" x2="517.7734" y1="972.9297" y2="972.9297"/><text fill="#000000" font-family="sans-serif" font-size="13" lengthAdjust="spacing" textLength="21.3345" x="313.731" y="967.8638">the</text><text fill="#000000" font-family="sans-serif" font-size="13" lengthAdjust="spacing" textLength="4.1323" x="335.0654" y="967.8638">&#160;</text><text fill="#000000" font-family="sans-serif" font-size="13" lengthAdjust="spacing" textLength="49.1182" x="339.1978" y="967.8638">specific</text><text fill="#000000" font-family="sans-serif" font-size="13" lengthAdjust="spacing" textLength="4.1323" x="388.3159" y="967.8638">&#160;</text><text fill="#000000" font-family="sans-serif" font-size="13" lengthAdjust="spacing" textLength="60.8486" x="392.4482" y="967.8638">problems</text><polygon fill="#444444" points="52.2383,1013.1953,42.2383,1017.1953,52.2383,1021.1953,48.2383,1017.1953" style="stroke:#444444;stroke-width:1.0;"/><line style="stroke:#444444;stroke-width:1.0;stroke-dasharray:2.0,2.0;" x1="46.2383" x2="295.731" y1="1017.1953" y2="1017.1953"/><text fill="#000000" font-family="sans-serif" font-size="13" lengthAdjust="spacing" textLength="28.8818" x="58.2383" y="996.9966">map</text><text fill="#000000" font-family="sans-serif" font-size="13" lengthAdjust="spacing" textLength="4.1323" x="87.1201" y="996.9966">&#160;</text><text fill="#000000" font-family="sans-serif" font-size="13" lengthAdjust="spacing" textLength="21.3345" x="91.2524" y="996.9966">the</text><text fill="#000000" font-family="sans-serif" font-size="13" lengthAdjust="spacing" textLength="4.1323" x="112.5869" y="996.9966">&#160;</text><text fill="#000000" font-family="sans-serif" font-size="13" lengthAdjust="spacing" textLength="59.0713" x="116.7192" y="996.9966">unknown</text><text fill="#000000" font-family="sans-serif" font-size="13" lengthAdjust="spacing" textLength="4.1323" x="175.7905" y="996.9966">&#160;</text><text fill="#000000" font-family="sans-serif" font-size="13" lengthAdjust="spacing" textLength="77.0796" x="179.9229" y="996.9966">movements</text><text fill="#000000" font-family="sans-serif" font-size="13" lengthAdjust="spacing" textLength="13.2983" x="58.2383" y="1012.1294">or</text><text fill="#000000" font-family="sans-serif" font-size="13" lengthAdjust="spacing" textLength="4.1323" x="71.5366" y="1012.1294">&#160;</text><text fill="#000000" font-family="sans-serif" font-size="13" lengthAdjust="spacing" textLength="46.0332" x="75.6689" y="1012.1294">correct</text><text fill="#000000" font-family="sans-serif" font-size="13" lengthAdjust="spacing" textLength="4.1323" x="121.7021" y="1012.1294">&#160;</text><text fill="#000000" font-family="sans-serif" font-size="13" lengthAdjust="spacing" textLength="21.3345" x="125.8345" y="1012.1294">the</text><text fill="#000000" font-family="sans-serif" font-size="13" lengthAdjust="spacing" textLength="4.1323" x="147.1689" y="1012.1294">&#160;</text><text fill="#000000" font-family="sans-serif" font-size="13" lengthAdjust="spacing" textLength="34.5566" x="151.3013" y="1012.1294">loads</text><!--SRC=[dLNRRkCs47tNLqppKXbmTvjsNxhT3U2rdIA0angnlMY100PDZItM5AcIb1E_zIFwXVsI7bBoBTXzsHUBqXpEd3bpyNVAIDqKJ4iVzfhVgARIML11Cyr6rp_HV__yIuF2re64eV6Bya6P3KsTtJXHLKpvxVKxUakBuVKllImJCbX74xKExBALRKmXt9wkfbgOgJ2idyo73xyjxcvkhaXuMjnbqfhWhAQheHMo7BPlcbq4tWef2kwmm-1qLWiNb5IrC05E3npkgjgwC6EtKv8J65ykiICHnCmsJl9jehXFC9o_ud8gd6StsB092PbEbzYX5f1jgDK1CvdSNoB6B-oayZn4S6qtRHhYbPiepMUXLI50Aq7mbk5Dh8HdklgahTm-ScszElAEhwz2xS3YK-EJ6SyiQsj0Fzn0PNfFrgGY7XC4Rxdb8lT9b5u64A1HP8351RJ3z6chJD6B9LOx4RYjI2PqI0RwICFPv-NjtMISKUi83b48-5ixMmtzBgz5AFjKYRf63_K0E_gA1QE4nYMK1PUaOrZoCtHdXeGmh_OF0jouq_XeFsKnTq8PN4qAvjQfZJ9WEHZzFfsFH_52mHS4M4FmBfVxmSDYC5cE7-QFVtundtjX6g77wDTz_ioyzT_0u3pWT333j-Ly_CVyB5xgEtXoZSdJ-P7_RjY7FF1Bw5r8sBOeaUCrsHrAdpxqOrl20URp7OdaJLjRFvdSSvpm7t-EJjemhxJ5m1SajVM8To-2BDdJ6jCDqKgg4A9g0tQNlr7ubZQR8iiEIMC0u6NN3WMdlkMYTRQAltsgdLqhpMVD68V6M1mGhGnar-aBqQ4_F4xONNt2qIjhFDMGA1QE2akucR2IkQ1GCkaqFTzx2bqkL8YzxqCxKVYekcEgiG2yMc5HYWr0Ff1id8jQ-8379fGnhUYRivZIcKBTm8D776KNiZD18kyqLKc0irw8KDprOiUj3hqp8sOUjhfPQUNBV3ePF2mNqz6WqpjQJviWBOkSJzSF9j5A7ULjHn-8k1XWxzR9-vYr8L_QP_Chy2KZqxWRVBF2FqDeOavF9dQEOndRS0_KNuqFiLcWnJDXdlMUWYKLsW5eZ6DlzGw1JzL2dwdgfF11zqk-iLA-PgdMIaRIG5R-2vonGnAsCLimCCVczKy6SQH5rMHewvxYn6uygqWC-Zy0]--></g></svg>