<svg xmlns="http://www.w3.org/2000/svg" xmlns:xlink="http://www.w3.org/1999/xlink" contentStyleType="text/css" height="1075px" preserveAspectRatio="none" style="width:2605px;height:1075px;background:#FFFFFF;" version="1.1" viewBox="0 0 2605 1075" width="2605px" zoomAndPan="magnify"><title>Spotter &#8212; System Overview</title><defs/><g><text fill="#000000" font-family="sans-serif" font-size="14" font-weight="bold" lengthAdjust="spacing" textLength="220.2266" x="1185.7217" y="22.9951">Spotter &#8212; System Overview</text><text fill="#000000" font-family="sans-serif" font-size="14" font-weight="bold" lengthAdjust="spacing" textLength="543.7236" x="1023.9731" y="39.292">what the agent is made of, what each part does, and what it talks to</text><!--cluster P--><g id="cluster_P"><path d="M103,397.5938 L197.9258,397.5938 A3.75,3.75 0 0 1 200.4258,400.0938 L207.4258,431.5313 L350,431.5313 A2.5,2.5 0 0 1 352.5,434.0313 L352.5,606.0938 A2.5,2.5 0 0 1 350,608.5938 L103,608.5938 A2.5,2.5 0 0 1 100.5,606.0938 L100.5,400.0938 A2.5,2.5 0 0 1 103,397.5938 " fill="#F8F8F8" style="stroke:#AAAAAA;stroke-width:1.5;"/><line style="stroke:#AAAAAA;stroke-width:1.5;" x1="100.5" x2="207.4258" y1="431.5313" y2="431.5313"/><text fill="#000000" font-family="sans-serif" font-size="12" font-weight="bold" lengthAdjust="spacing" textLength="87.1465" x="107.8896" y="410.7324">Presentation</text><text fill="#000000" font-family="sans-serif" font-size="12" font-weight="bold" lengthAdjust="spacing" textLength="93.9258" x="104.5" y="424.7012">how it is used</text></g><!--cluster A--><g id="cluster_A"><path d="M388,397.5938 L465.541,397.5938 A3.75,3.75 0 0 1 468.041,400.0938 L475.041,431.5313 L889,431.5313 A2.5,2.5 0 0 1 891.5,434.0313 L891.5,693.0938 A2.5,2.5 0 0 1 889,695.5938 L388,695.5938 A2.5,2.5 0 0 1 385.5,693.0938 L385.5,400.0938 A2.5,2.5 0 0 1 388,397.5938 " fill="#F8F8F8" style="stroke:#AAAAAA;stroke-width:1.5;"/><line style="stroke:#AAAAAA;stroke-width:1.5;" x1="385.5" x2="475.041" y1="431.5313" y2="431.5313"/><text fill="#000000" font-family="sans-serif" font-size="12" font-weight="bold" lengthAdjust="spacing" textLength="76.541" x="389.5" y="410.7324">Application</text><text fill="#000000" font-family="sans-serif" font-size="12" font-weight="bold" lengthAdjust="spacing" textLength="72.9434" x="391.2988" y="424.7012">one way in</text></g><!--cluster D--><g id="cluster_D"><path d="M1937,59.5938 L2154.2402,59.5938 A3.75,3.75 0 0 1 2156.7402,62.0938 L2163.7402,93.5313 L2246,93.5313 A2.5,2.5 0 0 1 2248.5,96.0313 L2248.5,616.0938 A2.5,2.5 0 0 1 2246,618.5938 L1937,618.5938 A2.5,2.5 0 0 1 1934.5,616.0938 L1934.5,62.0938 A2.5,2.5 0 0 1 1937,59.5938 " fill="#F8F8F8" style="stroke:#AAAAAA;stroke-width:1.5;"/><line style="stroke:#AAAAAA;stroke-width:1.5;" x1="1934.5" x2="2163.7402" y1="93.5313" y2="93.5313"/><text fill="#000000" font-family="sans-serif" font-size="12" font-weight="bold" lengthAdjust="spacing" textLength="51.4629" x="2020.8887" y="72.7324">Domain</text><text fill="#000000" font-family="sans-serif" font-size="12" font-weight="bold" lengthAdjust="spacing" textLength="216.2402" x="1938.5" y="86.7012">every number is computed here</text></g><!--cluster G--><g id="cluster_G"><path d="M1037,490.5938 L1202.1738,490.5938 A3.75,3.75 0 0 1 1204.6738,493.0938 L1211.6738,524.5313 L1765,524.5313 A2.5,2.5 0 0 1 1767.5,527.0313 L1767.5,1033.0938 A2.5,2.5 0 0 1 1765,1035.5938 L1037,1035.5938 A2.5,2.5 0 0 1 1034.5,1033.0938 L1034.5,493.0938 A2.5,2.5 0 0 1 1037,490.5938 " fill="#F8F8F8" style="stroke:#AAAAAA;stroke-width:1.5;"/><line style="stroke:#AAAAAA;stroke-width:1.5;" x1="1034.5" x2="1211.6738" y1="524.5313" y2="524.5313"/><text fill="#000000" font-family="sans-serif" font-size="12" font-weight="bold" lengthAdjust="spacing" textLength="40.2949" x="1100.4395" y="503.7324">Agent</text><text fill="#000000" font-family="sans-serif" font-size="12" font-weight="bold" lengthAdjust="spacing" textLength="164.1738" x="1038.5" y="517.7012">judgement, inside limits</text></g><!--cluster I--><g id="cluster_I"><path d="M1958.5,654.5938 L2062.9648,654.5938 A3.75,3.75 0 0 1 2065.4648,657.0938 L2072.4648,688.5313 L2487,688.5313 A2.5,2.5 0 0 1 2489.5,691.0313 L2489.5,849.0938 A2.5,2.5 0 0 1 2487,851.5938 L1958.5,851.5938 A2.5,2.5 0 0 1 1956,849.0938 L1956,657.0938 A2.5,2.5 0 0 1 1958.5,654.5938 " fill="#F8F8F8" style="stroke:#AAAAAA;stroke-width:1.5;"/><line style="stroke:#AAAAAA;stroke-width:1.5;" x1="1956" x2="2072.4648" y1="688.5313" y2="688.5313"/><text fill="#000000" font-family="sans-serif" font-size="12" font-weight="bold" lengthAdjust="spacing" textLength="95.0332" x="1964.2158" y="667.7324">Infrastructure</text><text fill="#000000" font-family="sans-serif" font-size="12" font-weight="bold" lengthAdjust="spacing" textLength="103.4648" x="1960" y="681.7012">data in and out</text></g><!--entity GUI--><g id="elem_GUI"><rect fill="#FFFFFF" height="61.9063" rx="2.5" ry="2.5" style="stroke:#444444;stroke-width:0.5;" width="219.916" x="116.5" y="530.5938"/><text fill="#000000" font-family="sans-serif" font-size="12" font-weight="bold" lengthAdjust="spacing" textLength="123.293" x="126.5" y="551.7324">JavaFX Dashboard</text><text fill="#000000" font-family="sans-serif" font-size="12" lengthAdjust="spacing" textLength="178.2305" x="126.5" y="565.7012">7 tabs: Profile, Log, Analytics,</text><text fill="#000000" font-family="sans-serif" font-size="12" lengthAdjust="spacing" textLength="199.916" x="126.5" y="579.6699">Plan, Meet, Nutrition, Coach Chat</text></g><!--entity CLI--><g id="elem_CLI"><rect fill="#FFFFFF" height="61.9063" rx="2.5" ry="2.5" style="stroke:#444444;stroke-width:0.5;" width="187.1152" x="133" y="443.5938"/><text fill="#000000" font-family="sans-serif" font-size="12" font-weight="bold" lengthAdjust="spacing" textLength="20.918" x="143" y="464.7324">CLI</text><text fill="#000000" font-family="sans-serif" font-size="12" lengthAdjust="spacing" textLength="47.5195" x="167.7324" y="464.7324">(picocli)</text><text fill="#000000" font-family="sans-serif" font-size="12" lengthAdjust="spacing" textLength="167.1152" x="143" y="478.7012">same operations, scriptable</text><text fill="#000000" font-family="sans-serif" font-size="12" lengthAdjust="spacing" textLength="142.2891" x="143" y="492.6699">spotter plan generate 6</text></g><!--entity Ctrl--><g id="elem_Ctrl"><rect fill="#FFFFFF" height="61.9063" rx="2.5" ry="2.5" style="stroke:#444444;stroke-width:0.5;" width="198.7637" x="401.5" y="443.5938"/><text fill="#000000" font-family="sans-serif" font-size="12" font-weight="bold" lengthAdjust="spacing" textLength="108.5801" x="411.5" y="464.7324">CoachController</text><text fill="#000000" font-family="sans-serif" font-size="12" lengthAdjust="spacing" textLength="57.8906" x="523.8945" y="464.7324">&#171;Facade&#187;</text><text fill="#000000" font-family="sans-serif" font-size="12" lengthAdjust="spacing" textLength="178.7637" x="411.5" y="478.7012">one method per feature; both</text><text fill="#000000" font-family="sans-serif" font-size="12" lengthAdjust="spacing" textLength="172.7168" x="411.5" y="492.6699">interfaces call only this class</text></g><!--entity Fx--><g id="elem_Fx"><rect fill="#FFFFFF" height="61.9063" rx="2.5" ry="2.5" style="stroke:#444444;stroke-width:0.5;" width="152.4219" x="685.5" y="530.5938"/><text fill="#000000" font-family="sans-serif" font-size="12" font-weight="bold" lengthAdjust="spacing" textLength="96.2695" x="695.5" y="551.7324">FxTaskRunner</text><text fill="#000000" font-family="sans-serif" font-size="12" lengthAdjust="spacing" textLength="132.4219" x="695.5" y="565.7012">agent calls run off the</text><text fill="#000000" font-family="sans-serif" font-size="12" lengthAdjust="spacing" textLength="83.8828" x="695.5" y="579.6699">JavaFX thread</text></g><!--entity Bus--><g id="elem_Bus"><rect fill="#FFFFFF" height="61.9063" rx="2.5" ry="2.5" style="stroke:#444444;stroke-width:0.5;" width="228.2246" x="647.5" y="617.5938"/><text fill="#000000" font-family="sans-serif" font-size="12" font-weight="bold" lengthAdjust="spacing" textLength="63.2695" x="657.5" y="638.7324">EventBus</text><text fill="#000000" font-family="sans-serif" font-size="12" lengthAdjust="spacing" textLength="69.7324" x="724.584" y="638.7324">&#171;Observer&#187;</text><text fill="#000000" font-family="sans-serif" font-size="12" lengthAdjust="spacing" textLength="208.2246" x="657.5" y="652.7012">PLAN_UPDATED, DATA_IMPORTED,</text><text fill="#000000" font-family="sans-serif" font-size="12" lengthAdjust="spacing" textLength="128.4199" x="657.5" y="666.6699">RECOVERY_FLAGGED</text></g><!--entity Hist--><g id="elem_Hist"><rect fill="#FFFFFF" height="61.9063" rx="2.5" ry="2.5" style="stroke:#444444;stroke-width:0.5;" width="205.3789" x="659" y="443.5938"/><text fill="#000000" font-family="sans-serif" font-size="12" font-weight="bold" lengthAdjust="spacing" textLength="105.2051" x="669" y="464.7324">PlanEditHistory</text><text fill="#000000" font-family="sans-serif" font-size="12" lengthAdjust="spacing" textLength="76.3594" x="778.0195" y="464.7324">&#171;Command&#187;</text><text fill="#000000" font-family="sans-serif" font-size="12" lengthAdjust="spacing" textLength="153.5977" x="669" y="478.7012">undo stack for every plan</text><text fill="#000000" font-family="sans-serif" font-size="12" lengthAdjust="spacing" textLength="151.3008" x="669" y="492.6699">change, manual or agent</text></g><!--entity Ent--><g id="elem_Ent"><rect fill="#FFFFFF" height="75.875" rx="2.5" ry="2.5" style="stroke:#444444;stroke-width:0.5;" width="281.5332" x="1950.5" y="526.5938"/><text fill="#000000" font-family="sans-serif" font-size="12" font-weight="bold" lengthAdjust="spacing" textLength="51.7207" x="1960.5" y="547.7324">Entities</text><text fill="#000000" font-family="sans-serif" font-size="12" lengthAdjust="spacing" textLength="261.0938" x="1960.5" y="561.7012">LifterProfile, TrainingGoal, WorkoutSession,</text><text fill="#000000" font-family="sans-serif" font-size="12" lengthAdjust="spacing" textLength="242.2031" x="1960.5" y="575.6699">SetEntry, RecoveryDay, TrainingBlock &gt;</text><text fill="#000000" font-family="sans-serif" font-size="12" lengthAdjust="spacing" textLength="261.5332" x="1960.5" y="589.6387">Week &gt; Session &gt; Prescription, DailyIntake</text></g><!--entity An--><g id="elem_An"><rect fill="#FFFFFF" height="61.9063" rx="2.5" ry="2.5" style="stroke:#444444;stroke-width:0.5;" width="251.334" x="1966" y="352.5938"/><text fill="#000000" font-family="sans-serif" font-size="12" font-weight="bold" lengthAdjust="spacing" textLength="121.8164" x="1976" y="373.7324">StrengthAnalytics</text><text fill="#000000" font-family="sans-serif" font-size="12" lengthAdjust="spacing" textLength="70.002" x="2101.6309" y="373.7324">+ RPEChart</text><text fill="#000000" font-family="sans-serif" font-size="12" lengthAdjust="spacing" textLength="193.9277" x="1976" y="387.7012">estimated 1RM, tonnage, trends</text><text fill="#000000" font-family="sans-serif" font-size="12" font-weight="bold" lengthAdjust="spacing" textLength="101.959" x="1976" y="401.6699">PlanAdherence</text><text fill="#000000" font-family="sans-serif" font-size="12" lengthAdjust="spacing" textLength="125.5605" x="2081.7734" y="401.6699">prescribed vs logged</text></g><!--entity Calc--><g id="elem_Calc"><rect fill="#FFFFFF" height="61.9063" rx="2.5" ry="2.5" style="stroke:#444444;stroke-width:0.5;" width="211.7598" x="1985.5" y="105.5938"/><text fill="#000000" font-family="sans-serif" font-size="12" font-weight="bold" lengthAdjust="spacing" textLength="124.5117" x="1995.5" y="126.7324">AttemptCalculator</text><text fill="#000000" font-family="sans-serif" font-size="12" lengthAdjust="spacing" textLength="191.7598" x="1995.5" y="140.7012">meet attempts or test day plan,</text><text fill="#000000" font-family="sans-serif" font-size="12" lengthAdjust="spacing" textLength="87.8672" x="1995.5" y="154.6699">plate rounding</text></g><!--entity Mac--><g id="elem_Mac"><rect fill="#FFFFFF" height="47.9375" rx="2.5" ry="2.5" style="stroke:#444444;stroke-width:0.5;" width="200.3281" x="1991.5" y="279.5938"/><text fill="#000000" font-family="sans-serif" font-size="12" font-weight="bold" lengthAdjust="spacing" textLength="92.666" x="2001.5" y="300.7324">MacroTracker</text><text fill="#000000" font-family="sans-serif" font-size="12" lengthAdjust="spacing" textLength="180.3281" x="2001.5" y="314.7012">remaining macros, adherence</text></g><!--entity Rules--><g id="elem_Rules"><rect fill="#FFFFFF" height="61.9063" rx="2.5" ry="2.5" style="stroke:#444444;stroke-width:0.5;" width="158.5977" x="2012" y="192.5938"/><text fill="#000000" font-family="sans-serif" font-size="12" font-weight="bold" lengthAdjust="spacing" textLength="138.5977" x="2022" y="213.7324">RecoveryRuleEngine</text><text fill="#000000" font-family="sans-serif" font-size="12" lengthAdjust="spacing" textLength="120.2344" x="2022" y="227.7012">flags poor recovery,</text><text fill="#000000" font-family="sans-serif" font-size="12" lengthAdjust="spacing" textLength="129.4512" x="2022" y="241.6699">deterministic fallback</text></g><!--entity Prog--><g id="elem_Prog"><rect fill="#FFFFFF" height="61.9063" rx="2.5" ry="2.5" style="stroke:#444444;stroke-width:0.5;" width="229.3848" x="1977" y="439.5938"/><text fill="#000000" font-family="sans-serif" font-size="12" font-weight="bold" lengthAdjust="spacing" textLength="139.4707" x="1987" y="460.7324">ProgressionStrategy</text><text fill="#000000" font-family="sans-serif" font-size="12" lengthAdjust="spacing" textLength="66.0996" x="2130.2852" y="460.7324">&#171;Strategy&#187;</text><text fill="#000000" font-family="sans-serif" font-size="12" lengthAdjust="spacing" textLength="157.0254" x="1987" y="474.7012">RPE, linear or percentage,</text><text fill="#000000" font-family="sans-serif" font-size="12" lengthAdjust="spacing" textLength="174.7734" x="1987" y="488.6699">picked from the training goal</text></g><!--entity Agent--><g id="elem_Agent"><rect fill="#FFFFFF" height="117.7813" rx="2.5" ry="2.5" style="stroke:#444444;stroke-width:0.5;" width="309.4414" x="1050.5" y="689.5938"/><text fill="#000000" font-family="sans-serif" font-size="12" font-weight="bold" lengthAdjust="spacing" textLength="81.0996" x="1060.5" y="710.7324">CoachAgent</text><text fill="#000000" font-family="sans-serif" font-size="12" lengthAdjust="spacing" textLength="120.2988" x="1145.4141" y="710.7324">&#171;Template Method&#187;</text><text fill="#000000" font-family="sans-serif" font-size="12" lengthAdjust="spacing" textLength="277.1133" x="1060.5" y="724.7012">gather context &gt; build prompt &gt; call model &gt;</text><text fill="#000000" font-family="sans-serif" font-size="12" lengthAdjust="spacing" textLength="249.5039" x="1060.5" y="738.6699">run tools &gt; parse &gt; validate &gt; retry once</text><text fill="#000000" font-family="sans-serif" font-size="12" lengthAdjust="spacing" textLength="3.8145" x="1060.5" y="752.6387">&#160;</text><text fill="#000000" font-family="sans-serif" font-size="12" lengthAdjust="spacing" textLength="272.9473" x="1060.5" y="766.6074">Seven agents: BlockGeneration, Substitution,</text><text fill="#000000" font-family="sans-serif" font-size="12" lengthAdjust="spacing" textLength="289.4414" x="1060.5" y="780.5762">Adjustment, AttemptRationale, MealSuggestion,</text><text fill="#000000" font-family="sans-serif" font-size="12" lengthAdjust="spacing" textLength="105.9023" x="1060.5" y="794.5449">Progression, Chat</text></g><!--entity Tools--><g id="elem_Tools"><rect fill="#FFFFFF" height="75.875" rx="2.5" ry="2.5" style="stroke:#444444;stroke-width:0.5;" width="344.8086" x="1406.5" y="536.5938"/><text fill="#000000" font-family="sans-serif" font-size="12" font-weight="bold" lengthAdjust="spacing" textLength="35.9297" x="1416.5" y="557.7324">Tools</text><text fill="#000000" font-family="sans-serif" font-size="12" lengthAdjust="spacing" textLength="173.2852" x="1416.5" y="571.7012">what the agent may look up:</text><text fill="#000000" font-family="sans-serif" font-size="12" lengthAdjust="spacing" textLength="264.3223" x="1416.5" y="585.6699">AnalyticsTool, ExerciseDBTool, FoodDBTool,</text><text fill="#000000" font-family="sans-serif" font-size="12" lengthAdjust="spacing" textLength="324.8086" x="1416.5" y="599.6387">PlanLookupTool, RecoveryLookupTool, AdherenceTool</text></g><!--entity Prompt--><g id="elem_Prompt"><rect fill="#FFFFFF" height="47.9375" rx="2.5" ry="2.5" style="stroke:#444444;stroke-width:0.5;" width="231.2422" x="1463.5" y="724.5938"/><text fill="#000000" font-family="sans-serif" font-size="12" font-weight="bold" lengthAdjust="spacing" textLength="98.3496" x="1473.5" y="745.7324">PromptBuilder</text><text fill="#000000" font-family="sans-serif" font-size="12" lengthAdjust="spacing" textLength="57.123" x="1575.6641" y="745.7324">&#171;Builder&#187;</text><text fill="#000000" font-family="sans-serif" font-size="12" lengthAdjust="spacing" textLength="211.2422" x="1473.5" y="759.7012">instructions, context, JSON schema</text></g><!--entity Parse--><g id="elem_Parse"><rect fill="#FFFFFF" height="61.9063" rx="2.5" ry="2.5" style="stroke:#444444;stroke-width:0.5;" width="190.1152" x="1484" y="637.5938"/><text fill="#000000" font-family="sans-serif" font-size="12" font-weight="bold" lengthAdjust="spacing" textLength="109.1895" x="1494" y="658.7324">ResponseParser</text><text fill="#000000" font-family="sans-serif" font-size="12" lengthAdjust="spacing" textLength="155.9941" x="1494" y="672.7012">JSON into domain objects,</text><text fill="#000000" font-family="sans-serif" font-size="12" lengthAdjust="spacing" textLength="170.1152" x="1494" y="686.6699">facts read from the catalogs</text></g><!--entity Val--><g id="elem_Val"><rect fill="#FFFFFF" height="61.9063" rx="2.5" ry="2.5" style="stroke:#444444;stroke-width:0.5;" width="301.9004" x="1428" y="797.5938"/><text fill="#000000" font-family="sans-serif" font-size="12" font-weight="bold" lengthAdjust="spacing" textLength="91.7461" x="1438" y="818.7324">PlanValidator</text><text fill="#000000" font-family="sans-serif" font-size="12" lengthAdjust="spacing" textLength="244.4355" x="1438" y="832.7012">the gate: loads in range, exercise exists,</text><text fill="#000000" font-family="sans-serif" font-size="12" lengthAdjust="spacing" textLength="281.9004" x="1438" y="846.6699">meal permitted, numbers match the calculator</text></g><!--entity Mem--><g id="elem_Mem"><rect fill="#FFFFFF" height="47.9375" rx="2.5" ry="2.5" style="stroke:#444444;stroke-width:0.5;" width="273.6055" x="1442" y="971.5938"/><text fill="#000000" font-family="sans-serif" font-size="12" font-weight="bold" lengthAdjust="spacing" textLength="113.8945" x="1452" y="992.7324">MemoryManager</text><text fill="#000000" font-family="sans-serif" font-size="12" lengthAdjust="spacing" textLength="135.8965" x="1569.709" y="992.7324">+ ConversationHistory</text><text fill="#000000" font-family="sans-serif" font-size="12" lengthAdjust="spacing" textLength="177.6973" x="1452" y="1006.7012">recall, remember, summarise</text></g><!--entity LLM--><g id="elem_LLM"><rect fill="#FFFFFF" height="61.9063" rx="2.5" ry="2.5" style="stroke:#444444;stroke-width:0.5;" width="196.3379" x="1481" y="884.5938"/><text fill="#000000" font-family="sans-serif" font-size="12" font-weight="bold" lengthAdjust="spacing" textLength="66.6855" x="1491" y="905.7324">LLMClient</text><text fill="#000000" font-family="sans-serif" font-size="12" lengthAdjust="spacing" textLength="66.0996" x="1561.5" y="905.7324">&#171;Strategy&#187;</text><text fill="#000000" font-family="sans-serif" font-size="12" lengthAdjust="spacing" textLength="176.3379" x="1491" y="919.7012">ClaudeClient via LangChain4j</text><text fill="#000000" font-family="sans-serif" font-size="12" lengthAdjust="spacing" textLength="161.6953" x="1491" y="933.6699">ScriptedLLMClient for tests</text></g><!--entity DS--><g id="elem_DS"><rect fill="#FFFFFF" height="61.9063" rx="2.5" ry="2.5" style="stroke:#444444;stroke-width:0.5;" width="239.1113" x="1972" y="773.5938"/><text fill="#000000" font-family="sans-serif" font-size="12" font-weight="bold" lengthAdjust="spacing" textLength="78.4922" x="1982" y="794.7324">DataSource</text><text fill="#000000" font-family="sans-serif" font-size="12" lengthAdjust="spacing" textLength="62.502" x="2064.3066" y="794.7324">&#171;Adapter&#187;</text><text fill="#000000" font-family="sans-serif" font-size="12" lengthAdjust="spacing" textLength="219.1113" x="1982" y="808.7012">HevyCsvAdapter, WhoopCsvAdapter</text><text fill="#000000" font-family="sans-serif" font-size="12" lengthAdjust="spacing" textLength="105.9082" x="1982" y="822.6699">CsvImportService</text></g><!--entity Cat--><g id="elem_Cat"><rect fill="#FFFFFF" height="47.9375" rx="2.5" ry="2.5" style="stroke:#444444;stroke-width:0.5;" width="199.5664" x="1991.5" y="700.5938"/><text fill="#000000" font-family="sans-serif" font-size="12" font-weight="bold" lengthAdjust="spacing" textLength="58.8281" x="2001.5" y="721.7324">Catalogs</text><text fill="#000000" font-family="sans-serif" font-size="12" lengthAdjust="spacing" textLength="179.5664" x="2001.5" y="735.7012">ExerciseCatalog, FoodCatalog</text></g><!--entity Repo--><g id="elem_Repo"><rect fill="#FFFFFF" height="61.9063" rx="2.5" ry="2.5" style="stroke:#444444;stroke-width:0.5;" width="184.959" x="2288.5" y="700.5938"/><text fill="#000000" font-family="sans-serif" font-size="12" font-weight="bold" lengthAdjust="spacing" textLength="101.4844" x="2298.5" y="721.7324">Repository&lt;T&gt;</text><text fill="#000000" font-family="sans-serif" font-size="12" lengthAdjust="spacing" textLength="164.959" x="2298.5" y="735.7012">profile, workouts, recovery,</text><text fill="#000000" font-family="sans-serif" font-size="12" lengthAdjust="spacing" textLength="140.8184" x="2298.5" y="749.6699">blocks, intake, memory</text></g><!--entity User--><g id="elem_User"><ellipse cx="33" cy="497.5938" fill="#F1F1F1" rx="16" ry="16" style="stroke:#181818;stroke-width:0.5;"/><path d="M33,517.5938 C37,517.5938 40,517.5938 44,513.5938 C52,513.5938 60,521.5938 60,529.5938 L60,533.5938 C60,537.5938 56,541.5938 52,541.5938 L14,541.5938 C10,541.5938 6,537.5938 6,533.5938 L6,529.5938 C6,521.5938 14,513.5938 22,513.5938 C26,517.5938 29,517.5938 33,517.5938 " fill="#F1F1F1" style="stroke:#181818;stroke-width:0.5;"/><text fill="#000000" font-family="sans-serif" font-size="12" lengthAdjust="spacing" textLength="31.2656" x="17.3672" y="553.2324">Lifter</text></g><!--entity Claude--><g id="elem_Claude"><path d="M2044.2031,896.5638 C2046.1308,890.2101 2052.5912,888.4575 2057.3887,893.1326 C2059.4054,887.711 2064.6906,887.2047 2068.2572,891.3765 C2070.6005,885.5082 2076.5409,884.3757 2080.2756,889.91 C2082.974,883.8523 2086.7875,882.3439 2091.6318,887.7921 C2096.3398,882.1688 2101.7225,883.0416 2105.1424,889.2614 C2109.6476,883.7818 2113.8189,883.6038 2117.1325,890.4231 C2122.112,886.7091 2125.4714,887.8395 2127.9963,893.3226 C2133.3892,887.6806 2137.7728,888.6854 2140.4434,895.9483 C2150.9239,899.8589 2153.1277,908.7138 2144.1691,916.2005 C2152.1634,925.5084 2150.4195,931.8968 2139.9284,937.5294 C2137.5607,942.9803 2132.9962,944.2765 2128.7568,939.5924 C2124.7593,946.8048 2120.4285,947.6191 2115.2703,940.7001 C2111.5434,945.6252 2108.5175,945.3631 2105.1877,940.2992 C2101.6857,947.3631 2096.906,947.2375 2091.6921,942.2098 C2086.9589,946.9074 2083.1888,947.3178 2079.9918,940.6309 C2076.8699,944.9874 2071.7909,945.6846 2069.2834,939.9772 C2065.1466,945.8284 2061.4364,946.1531 2057.3852,939.8931 C2052.2089,944.8541 2048.649,944.3345 2046.1046,937.3978 C2034.635,932.7308 2032.9364,924.323 2042.2613,915.9328 C2034.3406,909.8288 2034.2965,900.8804 2044.2031,896.5638 " fill="#F1F1F1" style="stroke:#181818;stroke-width:0.5;"/><text fill="#000000" font-family="sans-serif" font-size="12" font-weight="bold" lengthAdjust="spacing" textLength="46.2891" x="2051" y="912.7324">Claude</text><text fill="#000000" font-family="sans-serif" font-size="12" lengthAdjust="spacing" textLength="80.748" x="2051" y="926.7012">Anthropic API</text></g><!--entity Hevy--><g id="elem_Hevy"><path d="M2341.5,929.0938 L2341.5,958.0625 A2.5,2.5 0 0 0 2344,960.5625 L2417.6289,960.5625 A2.5,2.5 0 0 0 2420.1289,958.0625 L2420.1289,936.5938 L2410.1289,926.5938 L2344,926.5938 A2.5,2.5 0 0 0 2341.5,929.0938 " fill="#F1F1F1" style="stroke:#181818;stroke-width:0.5;"/><path d="M2410.1289,926.5938 L2410.1289,934.0938 A2.5,2.5 0 0 0 2412.6289,936.5938 L2420.1289,936.5938 " fill="#F1F1F1" style="stroke:#181818;stroke-width:0.5;"/><text fill="#000000" font-family="sans-serif" font-size="12" lengthAdjust="spacing" textLength="58.6289" x="2351.5" y="947.7324">Hevy CSV</text></g><!--entity Whoop--><g id="elem_Whoop"><path d="M2336,870.0938 L2336,899.0625 A2.5,2.5 0 0 0 2338.5,901.5625 L2423.291,901.5625 A2.5,2.5 0 0 0 2425.791,899.0625 L2425.791,877.5938 L2415.791,867.5938 L2338.5,867.5938 A2.5,2.5 0 0 0 2336,870.0938 " fill="#F1F1F1" style="stroke:#181818;stroke-width:0.5;"/><path d="M2415.791,867.5938 L2415.791,875.0938 A2.5,2.5 0 0 0 2418.291,877.5938 L2425.791,877.5938 " fill="#F1F1F1" style="stroke:#181818;stroke-width:0.5;"/><text fill="#000000" font-family="sans-serif" font-size="12" lengthAdjust="spacing" textLength="69.791" x="2346" y="888.7324">Whoop CSV</text></g><!--entity DB--><g id="elem_DB"><path d="M2529.5,720.0938 C2529.5,710.0938 2559.085,710.0938 2559.085,710.0938 C2559.085,710.0938 2588.6699,710.0938 2588.6699,720.0938 L2588.6699,743.0625 C2588.6699,753.0625 2559.085,753.0625 2559.085,753.0625 C2559.085,753.0625 2529.5,753.0625 2529.5,743.0625 L2529.5,720.0938 " fill="#F1F1F1" style="stroke:#181818;stroke-width:0.5;"/><path d="M2529.5,720.0938 C2529.5,730.0938 2559.085,730.0938 2559.085,730.0938 C2559.085,730.0938 2588.6699,730.0938 2588.6699,720.0938 " fill="none" style="stroke:#181818;stroke-width:0.5;"/><text fill="#000000" font-family="sans-serif" font-size="12" lengthAdjust="spacing" textLength="39.1699" x="2539.5" y="745.2324">SQLite</text></g><!--link User to GUI--><g id="link_User_GUI"><path d="M60.63,524.5738 C75.63,527.9438 89.6358,531.0893 110.3458,535.7393 " fill="none" id="User-to-GUI" style="stroke:#444444;stroke-width:1.0;"/><polygon fill="#444444" points="116.2,537.0538,108.2949,531.1792,111.3215,535.9584,106.5423,538.9849,116.2,537.0538" style="stroke:#444444;stroke-width:1.0;"/></g><!--link User to CLI--><g id="link_User_CLI"><path d="M60.63,512.4738 C79.64,508.1138 100.5928,503.299 127.0628,497.209 " fill="none" id="User-to-CLI" style="stroke:#444444;stroke-width:1.0;"/><polygon fill="#444444" points="132.91,495.8638,123.2423,493.9835,128.0373,496.9848,125.036,501.7798,132.91,495.8638" style="stroke:#444444;stroke-width:1.0;"/></g><!--link GUI to Ctrl--><g id="link_GUI_Ctrl"><path d="M324.72,530.5538 C350.1,522.4538 371.7243,515.5486 397.0943,507.4486 " fill="none" id="GUI-to-Ctrl" style="stroke:#444444;stroke-width:1.0;"/><polygon fill="#444444" points="402.81,505.6238,393.0198,504.5506,398.0469,507.1445,395.453,512.1716,402.81,505.6238" style="stroke:#444444;stroke-width:1.0;"/></g><!--link CLI to Ctrl--><g id="link_CLI_Ctrl"><path d="M320.14,474.5938 C346.21,474.5938 368.67,474.5938 395.1,474.5938 " fill="none" id="CLI-to-Ctrl" style="stroke:#444444;stroke-width:1.0;"/><polygon fill="#444444" points="401.1,474.5938,392.1,470.5938,396.1,474.5938,392.1,478.5938,401.1,474.5938" style="stroke:#444444;stroke-width:1.0;"/></g><!--link Ctrl to Fx--><g id="link_Ctrl_Fx"><path d="M594.23,505.6337 C624.1,515.6838 651.1631,524.8008 679.6431,534.3808 " fill="none" id="Ctrl-to-Fx" style="stroke:#444444;stroke-width:1.0;"/><polygon fill="#444444" points="685.33,536.2938,678.075,529.6331,680.5909,534.6996,675.5244,537.2156,685.33,536.2938" style="stroke:#444444;stroke-width:1.0;"/></g><!--link Ctrl to Bus--><g id="link_Ctrl_Bus"><path d="M530.38,505.6838 C558,534.4638 602.31,576.8738 647.5,604.5938 C655.13,609.2738 657.9202,611.0397 666.3002,615.0197 " fill="none" id="Ctrl-to-Bus" style="stroke:#444444;stroke-width:1.0;"/><polygon fill="#444444" points="671.72,617.5938,665.3064,610.1194,667.2035,615.4487,661.8743,617.3458,671.72,617.5938" style="stroke:#444444;stroke-width:1.0;"/></g><!--link Ctrl to Hist--><g id="link_Ctrl_Hist"><path d="M600.83,474.5938 C619.79,474.5938 633.67,474.5938 652.72,474.5938 " fill="none" id="Ctrl-to-Hist" style="stroke:#444444;stroke-width:1.0;"/><polygon fill="#444444" points="658.72,474.5938,649.72,470.5938,653.72,474.5938,649.72,478.5938,658.72,474.5938" style="stroke:#444444;stroke-width:1.0;"/></g><!--link Bus to GUI--><g id="link_Bus_GUI"><path d="M647.36,630.1238 C555.67,615.1637 433.1716,595.1704 342.5716,580.3804 " fill="none" id="Bus-to-GUI" style="stroke:#444444;stroke-width:1.0;"/><polygon fill="#444444" points="336.65,579.4137,344.888,584.8115,341.5847,580.2193,346.1769,576.916,336.65,579.4137" style="stroke:#444444;stroke-width:1.0;"/><text fill="#000000" font-family="sans-serif" font-size="12" lengthAdjust="spacing" textLength="42.7148" x="480" y="583.7324">refresh</text></g><!--link Ctrl to An--><g id="link_Ctrl_An"><path d="M541.01,443.3837 C589.49,407.8238 676.14,354.5938 760.5,354.5938 C760.5,354.5938 760.5,354.5938 1580,354.5938 C1711.83,354.5938 1856.5088,363.8789 1959.7988,372.0789 " fill="none" id="Ctrl-to-An" style="stroke:#444444;stroke-width:1.0;"/><polygon fill="#444444" points="1965.78,372.5538,1957.1248,367.854,1960.7957,372.1581,1956.4917,375.829,1965.78,372.5538" style="stroke:#444444;stroke-width:1.0;"/></g><!--link Ctrl to Calc--><g id="link_Ctrl_Calc"><path d="M511.15,443.5438 C536.51,364.6238 615.59,162.5938 760.5,162.5938 C760.5,162.5938 760.5,162.5938 1580,162.5938 C1720.44,162.5938 1876.3362,153.104 1979.4962,145.514 " fill="none" id="Ctrl-to-Calc" style="stroke:#444444;stroke-width:1.0;"/><polygon fill="#444444" points="1985.48,145.0738,1976.2108,141.7449,1980.4935,145.4406,1976.7978,149.7234,1985.48,145.0738" style="stroke:#444444;stroke-width:1.0;"/></g><!--link Ctrl to Mac--><g id="link_Ctrl_Mac"><path d="M526.96,443.2338 C569.31,393.8638 660.41,303.5938 760.5,303.5938 C760.5,303.5938 760.5,303.5938 1580,303.5938 C1722.91,303.5938 1882.33,303.5938 1985.2,303.5938 " fill="none" id="Ctrl-to-Mac" style="stroke:#444444;stroke-width:1.0;"/><polygon fill="#444444" points="1991.2,303.5938,1982.2,299.5938,1986.2,303.5938,1982.2,307.5938,1991.2,303.5938" style="stroke:#444444;stroke-width:1.0;"/></g><!--link Ctrl to Rules--><g id="link_Ctrl_Rules"><path d="M517.53,443.2537 C551.79,379.0638 640.48,238.5938 760.5,238.5938 C760.5,238.5938 760.5,238.5938 1580,238.5938 C1732.95,238.5938 1905.5759,232.0493 2005.8159,227.6093 " fill="none" id="Ctrl-to-Rules" style="stroke:#444444;stroke-width:1.0;"/><polygon fill="#444444" points="2011.81,227.3438,2002.6418,223.7459,2006.8149,227.565,2002.9958,231.7381,2011.81,227.3438" style="stroke:#444444;stroke-width:1.0;"/></g><!--link Ctrl to Prog--><g id="link_Ctrl_Prog"><path d="M576.95,443.5237 C627.81,425.2138 697.1,405.5938 760.5,405.5938 C760.5,405.5938 760.5,405.5938 1580,405.5938 C1717.37,405.5938 1867.9666,427.9714 1971.0766,446.7014 " fill="none" id="Ctrl-to-Prog" style="stroke:#444444;stroke-width:1.0;"/><polygon fill="#444444" points="1976.98,447.7737,1968.8398,442.2296,1972.0605,446.8801,1967.41,450.1008,1976.98,447.7737" style="stroke:#444444;stroke-width:1.0;"/></g><!--link Ctrl to DS--><g id="link_Ctrl_DS"><path d="M544.63,505.6337 C564.02,521.6438 585.86,542.6238 600.5,565.5938 C725.71,761.9738 527.6,1064.5938 760.5,1064.5938 C760.5,1064.5938 760.5,1064.5938 1580,1064.5938 C1667.97,1064.5938 1694.85,1068.7338 1775.5,1033.5938 C1849.51,1001.3538 1877.29,991.0138 1918.5,921.5938 C1929.54,902.9938 1913.09,890.5638 1926.5,873.5938 C1939.14,857.6038 1950.8436,848.0259 1969.1436,838.5359 " fill="none" id="Ctrl-to-DS" style="stroke:#444444;stroke-width:1.0;"/><polygon fill="#444444" points="1974.47,835.7738,1964.639,836.3661,1970.0313,838.0755,1968.3218,843.4679,1974.47,835.7738" style="stroke:#444444;stroke-width:1.0;"/></g><!--link Fx to Agent--><g id="link_Fx_Agent"><path d="M837.81,583.1837 C858.03,589.5438 879.77,596.8738 899.5,604.5938 C963.35,629.5738 1027.2056,659.2365 1083.5056,686.9165 " fill="none" id="Fx-to-Agent" style="stroke:#444444;stroke-width:1.0;"/><polygon fill="#444444" points="1088.89,689.5638,1082.5782,682.0032,1084.403,687.3577,1079.0485,689.1825,1088.89,689.5638" style="stroke:#444444;stroke-width:1.0;"/><text fill="#000000" font-family="sans-serif" font-size="12" lengthAdjust="spacing" textLength="71.127" x="927.6865" y="591.7324">runs agents</text><text fill="#000000" font-family="sans-serif" font-size="12" lengthAdjust="spacing" textLength="109.5" x="908.5" y="605.7012">in the background</text></g><!--link Agent to Prompt--><g id="link_Agent_Prompt"><path d="M1359.72,748.5938 C1394.43,748.5938 1424.67,748.5938 1457.43,748.5938 " fill="none" id="Agent-to-Prompt" style="stroke:#444444;stroke-width:1.0;"/><polygon fill="#444444" points="1463.43,748.5938,1454.43,744.5938,1458.43,748.5938,1454.43,752.5938,1463.43,748.5938" style="stroke:#444444;stroke-width:1.0;"/></g><!--link Agent to LLM--><g id="link_Agent_LLM"><path d="M1289.81,807.7738 C1324.64,830.2638 1366.27,854.5538 1406.5,871.5938 C1429.85,881.4838 1450.1534,888.0627 1474.8234,894.4827 " fill="none" id="Agent-to-LLM" style="stroke:#444444;stroke-width:1.0;"/><polygon fill="#444444" points="1480.63,895.9938,1472.9275,889.8561,1475.7912,894.7345,1470.9127,897.5982,1480.63,895.9938" style="stroke:#444444;stroke-width:1.0;"/></g><!--link Agent to Tools--><g id="link_Agent_Tools"><path d="M1290.04,689.5738 C1324.9,666.9838 1366.49,642.4038 1406.5,624.5938 C1415.99,620.3738 1420.3091,618.4657 1430.4191,614.7457 " fill="none" id="Agent-to-Tools" style="stroke:#444444;stroke-width:1.0;"/><polygon fill="#444444" points="1436.05,612.6737,1426.2224,612.0277,1431.3576,614.4003,1428.9849,619.5356,1436.05,612.6737" style="stroke:#444444;stroke-width:1.0;"/></g><!--link Agent to Parse--><g id="link_Agent_Parse"><path d="M1359.72,715.5338 C1401.83,706.4838 1440.3341,698.1951 1478.0041,690.0951 " fill="none" id="Agent-to-Parse" style="stroke:#444444;stroke-width:1.0;"/><polygon fill="#444444" points="1483.87,688.8338,1474.2302,686.8151,1478.9817,689.8849,1475.912,694.6363,1483.87,688.8338" style="stroke:#444444;stroke-width:1.0;"/></g><!--link Agent to Val--><g id="link_Agent_Val"><path d="M1359.72,781.6538 C1384.22,786.9237 1403.6341,791.0921 1427.9041,796.3121 " fill="none" id="Agent-to-Val" style="stroke:#444444;stroke-width:1.0;"/><polygon fill="#444444" points="1433.77,797.5738,1425.8123,791.7707,1428.8818,796.5224,1424.1301,799.5919,1433.77,797.5738" style="stroke:#444444;stroke-width:1.0;"/></g><!--link Agent to Mem--><g id="link_Agent_Mem"><path d="M1246.25,807.6837 C1282.46,856.1338 1340.09,922.5438 1406.5,959.5938 C1417.53,965.7438 1423.8061,968.9025 1436.1061,973.1325 " fill="none" id="Agent-to-Mem" style="stroke:#444444;stroke-width:1.0;"/><polygon fill="#444444" points="1441.78,975.0838,1434.5701,968.3743,1437.0518,973.4577,1431.9684,975.9394,1441.78,975.0838" style="stroke:#444444;stroke-width:1.0;"/></g><!--link LLM to Claude--><g id="link_LLM_Claude"><path d="M1677.22,915.5938 C1783.54,915.5938 1944.15,915.5938 2029.73,915.5938 " fill="none" id="LLM-to-Claude" style="stroke:#444444;stroke-width:1.0;"/><polygon fill="#444444" points="2035.73,915.5938,2026.73,911.5938,2030.73,915.5938,2026.73,919.5938,2035.73,915.5938" style="stroke:#444444;stroke-width:1.0;"/><text fill="#000000" font-family="sans-serif" font-size="12" lengthAdjust="spacing" textLength="106.9512" x="1798" y="898.7324">tool schemas out,</text><text fill="#000000" font-family="sans-serif" font-size="12" lengthAdjust="spacing" textLength="105.9609" x="1798.4951" y="912.7012">JSON replies back</text></g><!--link Tools to An--><g id="link_Tools_An"><path d="M1659.9,536.4838 C1729.29,504.3438 1833.06,458.6038 1926.5,426.5938 C1939.17,422.2537 1946.7597,419.7828 1960.1397,415.8828 " fill="none" id="Tools-to-An" style="stroke:#444444;stroke-width:1.0;"/><polygon fill="#444444" points="1965.9,414.2038,1956.1402,412.8821,1961.0998,415.6029,1958.3789,420.5625,1965.9,414.2038" style="stroke:#444444;stroke-width:1.0;"/></g><!--link Tools to Cat--><g id="link_Tools_Cat"><path d="M1751.66,603.7438 C1760.48,609.5838 1768.55,616.4838 1775.5,624.5938 C1787.55,638.6737 1770.13,694.7638 1783.5,707.5938 C1812.43,735.3638 1907.1574,736.6915 1985.4374,732.8015 " fill="none" id="Tools-to-Cat" style="stroke:#444444;stroke-width:1.0;"/><polygon fill="#444444" points="1991.43,732.5038,1982.2426,728.9554,1986.4362,732.7519,1982.6396,736.9455,1991.43,732.5038" style="stroke:#444444;stroke-width:1.0;"/></g><!--link Tools to Repo--><g id="link_Tools_Repo"><path d="M1751.69,594.7438 C1889.5,612.9538 2087.21,643.6737 2256.5,687.5938 C2270.49,691.2238 2279.4556,693.8435 2293.5756,698.6135 " fill="none" id="Tools-to-Repo" style="stroke:#444444;stroke-width:1.0;"/><polygon fill="#444444" points="2299.26,700.5338,2292.0136,693.8637,2294.523,698.9335,2289.4532,701.4429,2299.26,700.5338" style="stroke:#444444;stroke-width:1.0;"/></g><!--link Val to Prog--><g id="link_Val_Prog"><path d="M1730.3,816.3338 C1747.56,809.1038 1763.31,798.8838 1775.5,784.5938 C1793.71,763.2538 1772.04,684.2038 1783.5,658.5938 C1820.48,575.9838 1848.15,558.9137 1926.5,513.5938 C1941.92,504.6838 1953.4927,499.4249 1970.9127,493.7749 " fill="none" id="Val-to-Prog" style="stroke:#444444;stroke-width:1.0;"/><polygon fill="#444444" points="1976.62,491.9238,1966.825,490.8955,1971.8639,493.4663,1969.2931,498.5053,1976.62,491.9238" style="stroke:#444444;stroke-width:1.0;"/></g><!--link Val to Ent--><g id="link_Val_Ent"><path d="M1730.05,801.1538 C1745.68,796.4337 1761.1,790.9538 1775.5,784.5938 C1803.8,772.1038 1951.627,665.732 2033.577,606.152 " fill="none" id="Val-to-Ent" style="stroke:#444444;stroke-width:1.0;"/><polygon fill="#444444" points="2038.43,602.6238,2028.7984,604.6808,2034.3859,605.564,2033.5027,611.1515,2038.43,602.6238" style="stroke:#444444;stroke-width:1.0;"/><text fill="#000000" font-family="sans-serif" font-size="12" lengthAdjust="spacing" textLength="128.3906" x="1787.2363" y="676.7324">only validated output</text><text fill="#000000" font-family="sans-serif" font-size="12" lengthAdjust="spacing" textLength="133.8633" x="1784.5" y="690.7012">becomes domain data</text></g><!--link Parse to Cat--><g id="link_Parse_Cat"><path d="M1674.18,669.6238 C1709.84,674.6438 1748.35,686.3138 1775.5,711.5938 C1784.66,720.1238 1773.47,731.1038 1783.5,738.5938 C1831.58,774.4938 1858.55,741.0338 1918.5,738.5938 C1942.15,737.6338 1961.5987,736.4075 1985.4587,734.5175 " fill="none" id="Parse-to-Cat" style="stroke:#444444;stroke-width:1.0;"/><polygon fill="#444444" points="1991.44,734.0438,1982.1522,730.7669,1986.4556,734.4386,1982.784,738.7419,1991.44,734.0438" style="stroke:#444444;stroke-width:1.0;"/></g><!--link Hist to Ent--><g id="link_Hist_Ent"><path d="M864.06,476.5438 C1046.75,480.6938 1442.77,492.5838 1775.5,522.5938 C1832.92,527.7738 1890.0074,534.896 1944.4974,542.486 " fill="none" id="Hist-to-Ent" style="stroke:#444444;stroke-width:1.0;"/><polygon fill="#444444" points="1950.44,543.3138,1942.0779,538.1104,1945.4878,542.624,1940.9742,546.0339,1950.44,543.3138" style="stroke:#444444;stroke-width:1.0;"/></g><!--link DS to Hevy--><g id="link_DS_Hevy"><path d="M2188.79,835.7238 C2212.2,845.7538 2236.29,858.3238 2256.5,873.5938 C2274.66,887.3238 2269.79,900.6238 2288.5,913.5938 C2304.16,924.4538 2318.2218,930.0507 2335.4318,934.6307 " fill="none" id="DS-to-Hevy" style="stroke:#444444;stroke-width:1.0;"/><polygon fill="#444444" points="2341.23,936.1737,2333.5614,929.9937,2336.3982,934.8879,2331.504,937.7247,2341.23,936.1737" style="stroke:#444444;stroke-width:1.0;"/></g><!--link DS to Whoop--><g id="link_DS_Whoop"><path d="M2204.07,835.6438 C2250.16,848.4638 2295.1197,860.9748 2330.2197,870.7448 " fill="none" id="DS-to-Whoop" style="stroke:#444444;stroke-width:1.0;"/><polygon fill="#444444" points="2336,872.3538,2328.4022,866.0869,2331.1831,871.013,2326.257,873.7939,2336,872.3538" style="stroke:#444444;stroke-width:1.0;"/></g><!--link DS to Repo--><g id="link_DS_Repo"><path d="M2211.1,774.4838 C2236.93,767.9237 2258.0649,762.5618 2282.6549,756.3118 " fill="none" id="DS-to-Repo" style="stroke:#444444;stroke-width:1.0;"/><polygon fill="#444444" points="2288.47,754.8338,2278.762,753.174,2283.6241,756.0654,2280.7327,760.9275,2288.47,754.8338" style="stroke:#444444;stroke-width:1.0;"/></g><!--link Cat to Repo--><g id="link_Cat_Repo"><path d="M2191.84,727.0138 C2223.17,727.7738 2251.6118,728.4675 2282.3718,729.2175 " fill="none" id="Cat-to-Repo" style="stroke:#444444;stroke-width:1.0;"/><polygon fill="#444444" points="2288.37,729.3638,2279.4702,725.1456,2283.3715,729.2419,2279.2752,733.1432,2288.37,729.3638" style="stroke:#444444;stroke-width:1.0;"/></g><!--link Ent to Repo--><g id="link_Ent_Repo"><path d="M2213.44,602.6038 C2231.42,610.1637 2249.33,618.8238 2265.5,628.5938 C2298,648.2238 2325.4902,673.4692 2347.2602,695.8892 " fill="none" id="Ent-to-Repo" style="stroke:#444444;stroke-width:1.0;"/><polygon fill="#444444" points="2351.44,700.1937,2348.04,690.9504,2347.9568,696.6066,2342.3006,696.5234,2351.44,700.1937" style="stroke:#444444;stroke-width:1.0;"/></g><!--link Repo to DB--><g id="link_Repo_DB"><path d="M2473.61,731.5938 C2493.82,731.5938 2507.78,731.5938 2523.21,731.5938 " fill="none" id="Repo-to-DB" style="stroke:#444444;stroke-width:1.0;"/><polygon fill="#444444" points="2529.21,731.5938,2520.21,727.5938,2524.21,731.5938,2520.21,735.5938,2529.21,731.5938" style="stroke:#444444;stroke-width:1.0;"/></g><!--SRC=[TLVRRYCt4dtlho2Sbrsdyv1WTXDu5mPaNHm7ybYHF9C4432WkYc98pRP8DcojOi0-OZyHJvXt-PJyYLxgaXTB4yyWDr5iYwiEdMA4tKqIinQ5wFoui_VVXUpNOYg4GzRvRTQFStjqrf64TTAo9MoKUWW6bahuPQbu2qbgxLefO-YTYgKGjewRMYeIRC98hgY21jjSKWs8gnbxPwqNOcbD46TxDHgAJiJHyx6cVwF4bz_Sx9fNQs2QiKt_pXPzD9kQF7DYqLLHMbNkDT_2o5kPBLPUTVPkk-Cy-AB4V_GZlEryddr3VyKlvxOQQ69E_-5bU_etxcL7lzWbUyGTuXXuKpzmcpFU_VqqkjnKrRH-QGedrHmZIgCMYAHJdYzMYF7cgwddIqAFYikndg9sbq86SIxe7nHxEE-c7Xap4P9n-TsxPwe9AXV5rJDvoTyjsE-BYulVv1REVfP36HOBvpqzUNbt7wBEYx2bPXujzH6bMBiLgNeMMbsKLUXdDk9aROKzqh5KhpjejVaiXHzHzZe0mpixlRTtRcx_lZkybByhTMLgup- -zm6sG1RhV8SDU0KAgzR-3SAcncdBTm9e95EAV5FDWvBIFFnyhssDRhATtTMYIUv4zhosTxhUtEeVLJDEsEKHr2V_XZ92aZ_zB-atwYuThL0Q6AfPEoy-XUA6zTpgos2MifA1L59OuIpPeUEGQOh8qD8uKLlpdsEdXzbs4mxQydXtAO68nD1-CwYnPRKU7ERYnBNNibKkT7pkR7X5ietNU387nP00ZgOOf-CUsy_l9iCUe_3GIdmf_VXxdxoC2LnRgV3_iFxuVIN3wDnx_PsE63hC7DkdYeyh7NyNWUWRiTU-gvfqEta18tXH8X8lbW2b0g-TrockQtMC0BGu6WdaHoVY8GTaRKNLHkuHcee9GEsQnP8DoNIDMqNLItMoYjM7RokuT1604y5ocNgYWDY7ptCWdDkdJIb-CdvZUlYJ8L0E9tRcOfGzhjIJ5NboFT0xevQDyRXOjTp-vDI-2ko8hwenHYWZFU1r6PtXuxRf1XXypp6MVJAhkBwq3t8v9TYEXcYItp4nKFKZQIRVZszBz7tbc213wZLOMvJ9NervS5M2jfj2c41bMqGngrMkRjxzjnv3ztJjB4lJTKPYJfIfXfqhP1f9r1v8c8GjKprGtBm1rt6v8TS93J3mhdnUrbvXunLcuHchvgKFLGUEpGPzb6p3Pm_Dx5F_hGpQcXNsYeoj3Ho5KJh49hF1n1LhL3V1WwGi8f6YLd0DLiczTS0zcxbKzrG0znebK2y5mZ5A4Cf3DnAJub0grV4dyW_ig1niLeilMju6iQC3R42f1ARmiDB2YASp-t7hbwf1fyb-2Tep4wZ6nqJBzp-1HMnBWVuYC9m1UwPW2ZEbKG47aq1udcEWE6YqmRKXDXQ4fc56WnCGw0bAedEWLIkQKu7XRzRQNHDHg_X6y07PrKW6ke4y4ZgK30-0_ys4IqZVDOjaE_OnTGtlVfZ5sAwMmRNb4zAQhfx9Ssi0nv3FdvIW_8u5lYgvqbuf82f-cVFZmQuDCvjHDTUmV- -Y-XuAORFg9WEQd2Jv95pTVvECseCpQvDctkmdQuT-ef43exZ-0oMSDCRIdeU5VcRYeCQHzzLUNpb6fNYXzd3MmopDRfYZnROUDq1c74sg0dLYTk8zJ1X79vNr532BJv2WwOkHWuwbcR24PQOU18SaC35LZx7vEzJ-HC1a1eGfQwGM5a7EADt5P6Eold41zgCN3OeAVK5y0kEAZD3qvCmOjAd0FRamY70qokYK0qcoBqaOlDCVvYxg4HWvEG1G_n1C2wXsoXoWgT0XtdZ4K_Y3zMSMnwFx_j6xnldjBFxHdQrIfjYgwKOGma8rFRDHu2UALpL1tqUOiI3AOzOVz7OTtRfPQeodW7W8YITqaPFNymLrhbxtTW379kvpZDjV_gZLqiuPSnyhxQxVjZc5GoejNFjSG7nX-rTqpgFcOLdUMRGmUmLTUJgKrdtpP3NKZTa8PFuP-3Nkg0f__z-l2OZxNw0FgMH6SfJ3buGFGIYDHfv6F5SsSJ1i4GvguphQWwDAq0sUq2ST-1JqPlSfKXuho1Fue9o8Vgpz-c1026lSquE6omLbFY5140lPZ-ETSnfkIaAUWcBhxwwvZVdGQ0t8XRIDpt8i70Yu1TBU5mTlkafT13ukOALlMLnXMmimMZhudW8O_VmpNFo8D74EmXfI1r47Xu72PKTFIThp7fNz1uCcPQ9OhZL5eV_b1H5EfSj4R4S5mYzHoaHsibnveYZJ0rxbAZ9e9ykmrL2B3HCCfK5mdkPMSehFBdn2AQu2lQpJyXH8D0T9KO9F1vJi1U6V6j-IUzd5VSMNe707I3Om55cH491mVSukA1AxUqKWrcg7c4fVoVuP86ZWDPH6DeJWNwbgjpy7m00]--></g></svg>