<svg xmlns="http://www.w3.org/2000/svg" xmlns:xlink="http://www.w3.org/1999/xlink" contentStyleType="text/css" height="1116px" preserveAspectRatio="none" style="width:5086px;height:1116px;background:#FFFFFF;" version="1.1" viewBox="0 0 5086 1116" width="5086px" zoomAndPan="magnify"><title>Spotter &#8212; Agent Layer</title><defs/><g><text fill="#000000" font-family="sans-serif" font-size="14" font-weight="bold" lengthAdjust="spacing" textLength="179.0332" x="2446.4834" y="22.9951">Spotter &#8212; Agent Layer</text><!--cluster agent--><g id="cluster_agent"><rect fill="#F7F7F7" height="1066" rx="2.5" ry="2.5" style="stroke:#999999;stroke-width:1.5;" width="5073" x="7" y="44.2969"/><text fill="#000000" font-family="sans-serif" font-size="14" font-weight="bold" lengthAdjust="spacing" textLength="45.623" x="2520.6885" y="59.292">agent</text></g><g id="elem_N_COST"><path d="M4532,171.7969 L4532,287.7266 L4873.7217,287.7266 L4873.7217,181.7969 L4863.7217,171.7969 L4532,171.7969 " fill="#FEFFDD" style="stroke:#181818;stroke-width:0.5;"/><path d="M4863.7217,171.7969 L4863.7217,181.7969 L4873.7217,181.7969 L4863.7217,171.7969 " fill="#FEFFDD" style="stroke:#181818;stroke-width:1.0;"/><text fill="#000000" font-family="sans-serif" font-size="13" lengthAdjust="spacing" textLength="283.1436" x="4538" y="188.8638">Cost and latency are design concerns here:</text><text fill="#000000" font-family="sans-serif" font-size="13" lengthAdjust="spacing" textLength="320.7217" x="4538" y="203.9966">each agent declares a ModelTier, so simple tasks</text><text fill="#000000" font-family="sans-serif" font-size="13" lengthAdjust="spacing" textLength="319.4521" x="4538" y="219.1294">(substitution, rationale, meal) use the fast model</text><text fill="#000000" font-family="sans-serif" font-size="13" lengthAdjust="spacing" textLength="320.5186" x="4538" y="234.2622">and only block generation uses the stronger one.</text><text fill="#000000" font-family="sans-serif" font-size="13" lengthAdjust="spacing" textLength="304.0654" x="4538" y="249.395">CachingLLMClient returns a stored reply for an</text><text fill="#000000" font-family="sans-serif" font-size="13" lengthAdjust="spacing" textLength="311.9048" x="4538" y="264.5278">identical request, which matters most when the</text><text fill="#000000" font-family="sans-serif" font-size="13" lengthAdjust="spacing" textLength="266.9634" x="4538" y="279.6606">Stage 3 suites rerun the same scenarios.</text></g><g id="elem_N_LC4J"><path d="M3960.5,179.2969 L3960.5,280.0938 L4301.6631,280.0938 L4301.6631,189.2969 L4291.6631,179.2969 L3960.5,179.2969 " fill="#FEFFDD" style="stroke:#181818;stroke-width:0.5;"/><path d="M4291.6631,179.2969 L4291.6631,189.2969 L4301.6631,189.2969 L4291.6631,179.2969 " fill="#FEFFDD" style="stroke:#181818;stroke-width:1.0;"/><text fill="#000000" font-family="sans-serif" font-size="13" lengthAdjust="spacing" textLength="284.0259" x="3966.5" y="196.3638">ClaudeClient and ConversationHistory wrap</text><text fill="#000000" font-family="sans-serif" font-size="13" lengthAdjust="spacing" textLength="266.189" x="3966.5" y="211.4966">LangChain4j types (AnthropicChatModel,</text><text fill="#000000" font-family="sans-serif" font-size="13" lengthAdjust="spacing" textLength="320.1631" x="3966.5" y="226.6294">ToolSpecification, MessageWindowChatMemory).</text><text fill="#000000" font-family="sans-serif" font-size="13" lengthAdjust="spacing" textLength="284.1021" x="3966.5" y="241.7622">The rest of the system depends only on the</text><text fill="#000000" font-family="sans-serif" font-size="13" lengthAdjust="spacing" textLength="240.8618" x="3966.5" y="256.895">LLMClient and Tool interfaces, so the</text><text fill="#000000" font-family="sans-serif" font-size="13" lengthAdjust="spacing" textLength="192.8545" x="3966.5" y="272.0278">framework stays replaceable.</text></g><!--class CoachAgent--><g id="elem_CoachAgent"><rect codeLine="385" fill="#FFFFFF" height="300.7188" id="CoachAgent" rx="2.5" ry="2.5" style="stroke:#444444;stroke-width:0.5;" width="458.9336" x="3081.5" y="79.2969"/><ellipse cx="3248.5029" cy="99.4297" fill="#A9DCDF" rx="11" ry="11" style="stroke:#181818;stroke-width:1.0;"/><path d="M3248.6123,94.7734 L3247.4561,99.8516 L3249.7842,99.8516 L3248.6123,94.7734 Z M3247.1279,92.5391 L3250.1123,92.5391 L3253.4717,104.9297 L3251.0186,104.9297 L3250.2529,101.8672 L3246.9717,101.8672 L3246.2217,104.9297 L3243.7842,104.9297 L3247.1279,92.5391 Z " fill="#000000"/><text fill="#000000" font-family="sans-serif" font-size="12" font-style="italic" lengthAdjust="spacing" textLength="120.4277" x="3267.0029" y="95.4355">&#171;Template Method&#187;</text><text fill="#000000" font-family="sans-serif" font-size="14" font-style="italic" lengthAdjust="spacing" textLength="84.9297" x="3284.752" y="111.2607">CoachAgent</text><line style="stroke:#444444;stroke-width:0.5;" x1="3082.5" x2="3539.4336" y1="119.5625" y2="119.5625"/><text fill="#000000" font-family="sans-serif" font-size="14" lengthAdjust="spacing" textLength="114.9736" x="3087.5" y="136.5576">#llm : LLMClient</text><text fill="#000000" font-family="sans-serif" font-size="14" lengthAdjust="spacing" textLength="150.0898" x="3087.5" y="152.8545">#tools : ToolManager</text><text fill="#000000" font-family="sans-serif" font-size="14" lengthAdjust="spacing" textLength="184.1533" x="3087.5" y="169.1514">#prompts : PromptBuilder</text><text fill="#000000" font-family="sans-serif" font-size="14" lengthAdjust="spacing" textLength="182.54" x="3087.5" y="185.4482">#parser : ResponseParser</text><text fill="#000000" font-family="sans-serif" font-size="14" lengthAdjust="spacing" textLength="180.2637" x="3087.5" y="201.7451">#validator : PlanValidator</text><text fill="#000000" font-family="sans-serif" font-size="14" lengthAdjust="spacing" textLength="117.9404" x="3087.5" y="218.042">#tier : ModelTier</text><text fill="#000000" font-family="sans-serif" font-size="14" lengthAdjust="spacing" textLength="153.0225" x="3087.5" y="234.3389">#maxRetries : int = 1</text><text fill="#000000" font-family="sans-serif" font-size="14" lengthAdjust="spacing" textLength="185.4316" x="3087.5" y="250.6357">#maxToolRounds : int = 5</text><line style="stroke:#444444;stroke-width:0.5;" x1="3082.5" x2="3539.4336" y1="257.9375" y2="257.9375"/><text fill="#000000" font-family="sans-serif" font-size="14" lengthAdjust="spacing" textLength="333.334" x="3087.5" y="274.9326">+run(req : AgentRequest) : AgentResult {final}</text><text fill="#000000" font-family="sans-serif" font-size="14" font-style="italic" lengthAdjust="spacing" textLength="209.4941" x="3087.5" y="291.2295">#createToolset() : List&lt;Tool&gt;</text><text fill="#000000" font-family="sans-serif" font-size="14" font-style="italic" lengthAdjust="spacing" textLength="369.8994" x="3087.5" y="307.5264">#gatherContext(req : AgentRequest) : AgentContext</text><text fill="#000000" font-family="sans-serif" font-size="14" font-style="italic" lengthAdjust="spacing" textLength="362.3867" x="3087.5" y="323.8232">#buildPrompt(ctx : AgentContext) : List&lt;Message&gt;</text><text fill="#000000" font-family="sans-serif" font-size="14" font-style="italic" lengthAdjust="spacing" textLength="199.7256" x="3087.5" y="340.1201">#parse(raw : String) : object</text><text fill="#000000" font-family="sans-serif" font-size="14" font-style="italic" lengthAdjust="spacing" textLength="446.9336" x="3087.5" y="356.417">#validate(result : object, ctx : AgentContext) : ValidationReport</text><text fill="#000000" font-family="sans-serif" font-size="14" lengthAdjust="spacing" textLength="345.4883" x="3087.5" y="372.7139">-toolLoop(msgs : List&lt;Message&gt;) : LLMResponse</text></g><!--class BlockGenerationAgent--><g id="elem_BlockGenerationAgent"><rect codeLine="402" fill="#FFFFFF" height="56.2969" id="BlockGenerationAgent" rx="2.5" ry="2.5" style="stroke:#444444;stroke-width:0.5;" width="230.9824" x="3195.5" y="480.2969"/><ellipse cx="3229.2102" cy="496.2969" fill="#ADD1B2" rx="11" ry="11" style="stroke:#181818;stroke-width:1.0;"/><path d="M3232.1789,501.9375 Q3231.6008,502.2344 3230.9602,502.375 Q3230.3195,502.5313 3229.6164,502.5313 Q3227.1164,502.5313 3225.7883,500.8906 Q3224.4758,499.2344 3224.4758,496.1094 Q3224.4758,492.9844 3225.7883,491.3281 Q3227.1164,489.6719 3229.6164,489.6719 Q3230.3195,489.6719 3230.9602,489.8281 Q3231.6164,489.9844 3232.1789,490.2813 L3232.1789,493 Q3231.5539,492.4219 3230.9602,492.1563 Q3230.3664,491.875 3229.7414,491.875 Q3228.3977,491.875 3227.7102,492.9531 Q3227.0227,494.0156 3227.0227,496.1094 Q3227.0227,498.2031 3227.7102,499.2813 Q3228.3977,500.3438 3229.7414,500.3438 Q3230.3664,500.3438 3230.9602,500.0781 Q3231.5539,499.7969 3232.1789,499.2188 L3232.1789,501.9375 Z " fill="#000000"/><text fill="#000000" font-family="sans-serif" font-size="14" lengthAdjust="spacing" textLength="157.4043" x="3247.368" y="501.1436">BlockGenerationAgent</text><line style="stroke:#444444;stroke-width:0.5;" x1="3196.5" x2="3425.4824" y1="512.2969" y2="512.2969"/><text fill="#000000" font-family="sans-serif" font-size="14" lengthAdjust="spacing" textLength="218.9824" x="3201.5" y="529.292">-strategy : ProgressionStrategy</text></g><!--class SubstitutionAgent--><g id="elem_SubstitutionAgent"><rect codeLine="405" fill="#FFFFFF" height="32" id="SubstitutionAgent" rx="2.5" ry="2.5" style="stroke:#444444;stroke-width:0.5;" width="157.9385" x="3467" y="492.2969"/><ellipse cx="3482" cy="508.2969" fill="#ADD1B2" rx="11" ry="11" style="stroke:#181818;stroke-width:1.0;"/><path d="M3484.9688,513.9375 Q3484.3906,514.2344 3483.75,514.375 Q3483.1094,514.5313 3482.4063,514.5313 Q3479.9063,514.5313 3478.5781,512.8906 Q3477.2656,511.2344 3477.2656,508.1094 Q3477.2656,504.9844 3478.5781,503.3281 Q3479.9063,501.6719 3482.4063,501.6719 Q3483.1094,501.6719 3483.75,501.8281 Q3484.4063,501.9844 3484.9688,502.2813 L3484.9688,505 Q3484.3438,504.4219 3483.75,504.1563 Q3483.1563,503.875 3482.5313,503.875 Q3481.1875,503.875 3480.5,504.9531 Q3479.8125,506.0156 3479.8125,508.1094 Q3479.8125,510.2031 3480.5,511.2813 Q3481.1875,512.3438 3482.5313,512.3438 Q3483.1563,512.3438 3483.75,512.0781 Q3484.3438,511.7969 3484.9688,511.2188 L3484.9688,513.9375 Z " fill="#000000"/><text fill="#000000" font-family="sans-serif" font-size="14" lengthAdjust="spacing" textLength="125.9385" x="3496" y="513.1436">SubstitutionAgent</text></g><!--class AdjustmentAgent--><g id="elem_AdjustmentAgent"><rect codeLine="406" fill="#FFFFFF" height="32" id="AdjustmentAgent" rx="2.5" ry="2.5" style="stroke:#444444;stroke-width:0.5;" width="154.0625" x="3665" y="492.2969"/><ellipse cx="3680" cy="508.2969" fill="#ADD1B2" rx="11" ry="11" style="stroke:#181818;stroke-width:1.0;"/><path d="M3682.9688,513.9375 Q3682.3906,514.2344 3681.75,514.375 Q3681.1094,514.5313 3680.4063,514.5313 Q3677.9063,514.5313 3676.5781,512.8906 Q3675.2656,511.2344 3675.2656,508.1094 Q3675.2656,504.9844 3676.5781,503.3281 Q3677.9063,501.6719 3680.4063,501.6719 Q3681.1094,501.6719 3681.75,501.8281 Q3682.4063,501.9844 3682.9688,502.2813 L3682.9688,505 Q3682.3438,504.4219 3681.75,504.1563 Q3681.1563,503.875 3680.5313,503.875 Q3679.1875,503.875 3678.5,504.9531 Q3677.8125,506.0156 3677.8125,508.1094 Q3677.8125,510.2031 3678.5,511.2813 Q3679.1875,512.3438 3680.5313,512.3438 Q3681.1563,512.3438 3681.75,512.0781 Q3682.3438,511.7969 3682.9688,511.2188 L3682.9688,513.9375 Z " fill="#000000"/><text fill="#000000" font-family="sans-serif" font-size="14" lengthAdjust="spacing" textLength="122.0625" x="3694" y="513.1436">AdjustmentAgent</text></g><!--class AttemptRationaleAgent--><g id="elem_AttemptRationaleAgent"><rect codeLine="407" fill="#FFFFFF" height="32" id="AttemptRationaleAgent" rx="2.5" ry="2.5" style="stroke:#444444;stroke-width:0.5;" width="196.8281" x="3859.5" y="492.2969"/><ellipse cx="3874.5" cy="508.2969" fill="#ADD1B2" rx="11" ry="11" style="stroke:#181818;stroke-width:1.0;"/><path d="M3877.4688,513.9375 Q3876.8906,514.2344 3876.25,514.375 Q3875.6094,514.5313 3874.9063,514.5313 Q3872.4063,514.5313 3871.0781,512.8906 Q3869.7656,511.2344 3869.7656,508.1094 Q3869.7656,504.9844 3871.0781,503.3281 Q3872.4063,501.6719 3874.9063,501.6719 Q3875.6094,501.6719 3876.25,501.8281 Q3876.9063,501.9844 3877.4688,502.2813 L3877.4688,505 Q3876.8438,504.4219 3876.25,504.1563 Q3875.6563,503.875 3875.0313,503.875 Q3873.6875,503.875 3873,504.9531 Q3872.3125,506.0156 3872.3125,508.1094 Q3872.3125,510.2031 3873,511.2813 Q3873.6875,512.3438 3875.0313,512.3438 Q3875.6563,512.3438 3876.25,512.0781 Q3876.8438,511.7969 3877.4688,511.2188 L3877.4688,513.9375 Z " fill="#000000"/><text fill="#000000" font-family="sans-serif" font-size="14" lengthAdjust="spacing" textLength="164.8281" x="3888.5" y="513.1436">AttemptRationaleAgent</text></g><!--class MealSuggestionAgent--><g id="elem_MealSuggestionAgent"><rect codeLine="408" fill="#FFFFFF" height="32" id="MealSuggestionAgent" rx="2.5" ry="2.5" style="stroke:#444444;stroke-width:0.5;" width="184.8584" x="4096.5" y="492.2969"/><ellipse cx="4111.5" cy="508.2969" fill="#ADD1B2" rx="11" ry="11" style="stroke:#181818;stroke-width:1.0;"/><path d="M4114.4688,513.9375 Q4113.8906,514.2344 4113.25,514.375 Q4112.6094,514.5313 4111.9063,514.5313 Q4109.4063,514.5313 4108.0781,512.8906 Q4106.7656,511.2344 4106.7656,508.1094 Q4106.7656,504.9844 4108.0781,503.3281 Q4109.4063,501.6719 4111.9063,501.6719 Q4112.6094,501.6719 4113.25,501.8281 Q4113.9063,501.9844 4114.4688,502.2813 L4114.4688,505 Q4113.8438,504.4219 4113.25,504.1563 Q4112.6563,503.875 4112.0313,503.875 Q4110.6875,503.875 4110,504.9531 Q4109.3125,506.0156 4109.3125,508.1094 Q4109.3125,510.2031 4110,511.2813 Q4110.6875,512.3438 4112.0313,512.3438 Q4112.6563,512.3438 4113.25,512.0781 Q4113.8438,511.7969 4114.4688,511.2188 L4114.4688,513.9375 Z " fill="#000000"/><text fill="#000000" font-family="sans-serif" font-size="14" lengthAdjust="spacing" textLength="152.8584" x="4125.5" y="513.1436">MealSuggestionAgent</text></g><!--class ChatAgent--><g id="elem_ChatAgent"><rect codeLine="409" fill="#FFFFFF" height="56.2969" id="ChatAgent" rx="2.5" ry="2.5" style="stroke:#444444;stroke-width:0.5;" width="207.4668" x="4321.5" y="480.2969"/><ellipse cx="4383.9053" cy="496.2969" fill="#ADD1B2" rx="11" ry="11" style="stroke:#181818;stroke-width:1.0;"/><path d="M4386.874,501.9375 Q4386.2959,502.2344 4385.6553,502.375 Q4385.0146,502.5313 4384.3115,502.5313 Q4381.8115,502.5313 4380.4834,500.8906 Q4379.1709,499.2344 4379.1709,496.1094 Q4379.1709,492.9844 4380.4834,491.3281 Q4381.8115,489.6719 4384.3115,489.6719 Q4385.0146,489.6719 4385.6553,489.8281 Q4386.3115,489.9844 4386.874,490.2813 L4386.874,493 Q4386.249,492.4219 4385.6553,492.1563 Q4385.0615,491.875 4384.4365,491.875 Q4383.0928,491.875 4382.4053,492.9531 Q4381.7178,494.0156 4381.7178,496.1094 Q4381.7178,498.2031 4382.4053,499.2813 Q4383.0928,500.3438 4384.4365,500.3438 Q4385.0615,500.3438 4385.6553,500.0781 Q4386.249,499.7969 4386.874,499.2188 L4386.874,501.9375 Z " fill="#000000"/><text fill="#000000" font-family="sans-serif" font-size="14" lengthAdjust="spacing" textLength="74.1563" x="4404.4053" y="501.1436">ChatAgent</text><line style="stroke:#444444;stroke-width:0.5;" x1="4322.5" x2="4527.9668" y1="512.2969" y2="512.2969"/><text fill="#000000" font-family="sans-serif" font-size="14" lengthAdjust="spacing" textLength="195.4668" x="4327.5" y="529.292">-memory : MemoryManager</text></g><!--class AgentRequest--><g id="elem_AgentRequest"><rect codeLine="412" fill="#FFFFFF" height="72.5938" id="AgentRequest" rx="2.5" ry="2.5" style="stroke:#444444;stroke-width:0.5;" width="236.9092" x="4568.5" y="471.7969"/><ellipse cx="4633.2363" cy="487.7969" fill="#ADD1B2" rx="11" ry="11" style="stroke:#181818;stroke-width:1.0;"/><path d="M4636.2051,493.4375 Q4635.627,493.7344 4634.9863,493.875 Q4634.3457,494.0313 4633.6426,494.0313 Q4631.1426,494.0313 4629.8145,492.3906 Q4628.502,490.7344 4628.502,487.6094 Q4628.502,484.4844 4629.8145,482.8281 Q4631.1426,481.1719 4633.6426,481.1719 Q4634.3457,481.1719 4634.9863,481.3281 Q4635.6426,481.4844 4636.2051,481.7813 L4636.2051,484.5 Q4635.5801,483.9219 4634.9863,483.6563 Q4634.3926,483.375 4633.7676,483.375 Q4632.4238,483.375 4631.7363,484.4531 Q4631.0488,485.5156 4631.0488,487.6094 Q4631.0488,489.7031 4631.7363,490.7813 Q4632.4238,491.8438 4633.7676,491.8438 Q4634.3926,491.8438 4634.9863,491.5781 Q4635.5801,491.2969 4636.2051,490.7188 L4636.2051,493.4375 Z " fill="#000000"/><text fill="#000000" font-family="sans-serif" font-size="14" lengthAdjust="spacing" textLength="98.9365" x="4653.7363" y="492.6436">AgentRequest</text><line style="stroke:#444444;stroke-width:0.5;" x1="4569.5" x2="4804.4092" y1="503.7969" y2="503.7969"/><text fill="#000000" font-family="sans-serif" font-size="14" lengthAdjust="spacing" textLength="96.8857" x="4574.5" y="520.792">+kind : String</text><text fill="#000000" font-family="sans-serif" font-size="14" lengthAdjust="spacing" textLength="224.9092" x="4574.5" y="537.0889">+params : Map&lt;String, object&gt;</text></g><!--class AgentContext--><g id="elem_AgentContext"><rect codeLine="416" fill="#FFFFFF" height="72.5938" id="AgentContext" rx="2.5" ry="2.5" style="stroke:#444444;stroke-width:0.5;" width="218.165" x="4846" y="471.7969"/><ellipse cx="4902.5674" cy="487.7969" fill="#ADD1B2" rx="11" ry="11" style="stroke:#181818;stroke-width:1.0;"/><path d="M4905.5361,493.4375 Q4904.958,493.7344 4904.3174,493.875 Q4903.6768,494.0313 4902.9736,494.0313 Q4900.4736,494.0313 4899.1455,492.3906 Q4897.833,490.7344 4897.833,487.6094 Q4897.833,484.4844 4899.1455,482.8281 Q4900.4736,481.1719 4902.9736,481.1719 Q4903.6768,481.1719 4904.3174,481.3281 Q4904.9736,481.4844 4905.5361,481.7813 L4905.5361,484.5 Q4904.9111,483.9219 4904.3174,483.6563 Q4903.7236,483.375 4903.0986,483.375 Q4901.7549,483.375 4901.0674,484.4531 Q4900.3799,485.5156 4900.3799,487.6094 Q4900.3799,489.7031 4901.0674,490.7813 Q4901.7549,491.8438 4903.0986,491.8438 Q4903.7236,491.8438 4904.3174,491.5781 Q4904.9111,491.2969 4905.5361,490.7188 L4905.5361,493.4375 Z " fill="#000000"/><text fill="#000000" font-family="sans-serif" font-size="14" lengthAdjust="spacing" textLength="96.5303" x="4923.0674" y="492.6436">AgentContext</text><line style="stroke:#444444;stroke-width:0.5;" x1="4847" x2="5063.165" y1="503.7969" y2="503.7969"/><text fill="#000000" font-family="sans-serif" font-size="14" lengthAdjust="spacing" textLength="150.4385" x="4852" y="520.792">+profile : LifterProfile</text><text fill="#000000" font-family="sans-serif" font-size="14" lengthAdjust="spacing" textLength="206.165" x="4852" y="537.0889">+facts : Map&lt;String, object&gt;</text></g><!--class AgentResult--><g id="elem_AgentResult"><rect codeLine="420" fill="#FFFFFF" height="105.1875" id="AgentResult" rx="2.5" ry="2.5" style="stroke:#444444;stroke-width:0.5;" width="168.8027" x="879.5" y="455.7969"/><ellipse cx="912.5659" cy="471.7969" fill="#ADD1B2" rx="11" ry="11" style="stroke:#181818;stroke-width:1.0;"/><path d="M915.5347,477.4375 Q914.9565,477.7344 914.3159,477.875 Q913.6753,478.0313 912.9722,478.0313 Q910.4722,478.0313 909.144,476.3906 Q907.8315,474.7344 907.8315,471.6094 Q907.8315,468.4844 909.144,466.8281 Q910.4722,465.1719 912.9722,465.1719 Q913.6753,465.1719 914.3159,465.3281 Q914.9722,465.4844 915.5347,465.7813 L915.5347,468.5 Q914.9097,467.9219 914.3159,467.6563 Q913.7222,467.375 913.0972,467.375 Q911.7534,467.375 911.0659,468.4531 Q910.3784,469.5156 910.3784,471.6094 Q910.3784,473.7031 911.0659,474.7813 Q911.7534,475.8438 913.0972,475.8438 Q913.7222,475.8438 914.3159,475.5781 Q914.9097,475.2969 915.5347,474.7188 L915.5347,477.4375 Z " fill="#000000"/><text fill="#000000" font-family="sans-serif" font-size="14" lengthAdjust="spacing" textLength="85.3262" x="930.5806" y="476.6436">AgentResult</text><rect fill="#FFFFFF" height="15.9688" style="stroke:#444444;stroke-width:1.0;stroke-dasharray:2.0,2.0;" width="9.3301" x="1041.9727" y="452.7969"/><text fill="#000000" font-family="sans-serif" font-size="12" font-style="italic" lengthAdjust="spacing" textLength="7.3301" x="1042.9727" y="464.9355">T</text><line style="stroke:#444444;stroke-width:0.5;" x1="880.5" x2="1047.3027" y1="487.7969" y2="487.7969"/><text fill="#000000" font-family="sans-serif" font-size="14" lengthAdjust="spacing" textLength="136.083" x="885.5" y="504.792">+success : boolean</text><text fill="#000000" font-family="sans-serif" font-size="14" lengthAdjust="spacing" textLength="114.2285" x="885.5" y="521.0889">+value : T [0..1]</text><text fill="#000000" font-family="sans-serif" font-size="14" lengthAdjust="spacing" textLength="156.8027" x="885.5" y="537.3857">+errors : List&lt;String&gt;</text><text fill="#000000" font-family="sans-serif" font-size="14" lengthAdjust="spacing" textLength="107.0781" x="885.5" y="553.6826">+attempts : int</text></g><!--class ModelTier--><g id="elem_ModelTier"><rect codeLine="427" fill="#FFFFFF" height="72.5938" id="ModelTier" rx="2.5" ry="2.5" style="stroke:#444444;stroke-width:0.5;" width="100.8447" x="23.5" y="471.7969"/><ellipse cx="38.5" cy="487.7969" fill="#EB937F" rx="11" ry="11" style="stroke:#181818;stroke-width:1.0;"/><path d="M42.6094,493.7969 L34.8906,493.7969 L34.8906,481.4063 L42.6094,481.4063 L42.6094,483.5625 L37.3438,483.5625 L37.3438,486.2344 L42.1094,486.2344 L42.1094,488.3906 L37.3438,488.3906 L37.3438,491.6406 L42.6094,491.6406 L42.6094,493.7969 Z " fill="#000000"/><text fill="#000000" font-family="sans-serif" font-size="14" lengthAdjust="spacing" textLength="68.8447" x="52.5" y="492.6436">ModelTier</text><line style="stroke:#444444;stroke-width:0.5;" x1="24.5" x2="123.3447" y1="503.7969" y2="503.7969"/><text fill="#000000" font-family="sans-serif" font-size="14" lengthAdjust="spacing" textLength="35.0684" x="29.5" y="520.792">FAST</text><text fill="#000000" font-family="sans-serif" font-size="14" lengthAdjust="spacing" textLength="78.3535" x="29.5" y="537.0889">STANDARD</text></g><!--class LLMClientProvider--><g id="elem_LLMClientProvider"><rect codeLine="431" fill="#FFFFFF" height="80.5938" id="LLMClientProvider" rx="2.5" ry="2.5" style="stroke:#444444;stroke-width:0.5;" width="275.375" x="194.5" y="189.2969"/><ellipse cx="264.7358" cy="205.2969" fill="#ADD1B2" rx="11" ry="11" style="stroke:#181818;stroke-width:1.0;"/><path d="M267.7046,210.9375 Q267.1265,211.2344 266.4858,211.375 Q265.8452,211.5313 265.1421,211.5313 Q262.6421,211.5313 261.314,209.8906 Q260.0015,208.2344 260.0015,205.1094 Q260.0015,201.9844 261.314,200.3281 Q262.6421,198.6719 265.1421,198.6719 Q265.8452,198.6719 266.4858,198.8281 Q267.1421,198.9844 267.7046,199.2813 L267.7046,202 Q267.0796,201.4219 266.4858,201.1563 Q265.8921,200.875 265.2671,200.875 Q263.9233,200.875 263.2358,201.9531 Q262.5483,203.0156 262.5483,205.1094 Q262.5483,207.2031 263.2358,208.2813 Q263.9233,209.3438 265.2671,209.3438 Q265.8921,209.3438 266.4858,209.0781 Q267.0796,208.7969 267.7046,208.2188 L267.7046,210.9375 Z " fill="#000000"/><text fill="#000000" font-family="sans-serif" font-size="14" lengthAdjust="spacing" textLength="126.4033" x="285.2358" y="210.1436">LLMClientProvider</text><line style="stroke:#444444;stroke-width:0.5;" x1="195.5" x2="468.875" y1="221.2969" y2="221.2969"/><text fill="#000000" font-family="sans-serif" font-size="14" lengthAdjust="spacing" textLength="263.375" x="200.5" y="238.292">-clients : Map&lt;ModelTier, LLMClient&gt;</text><line style="stroke:#444444;stroke-width:0.5;" x1="195.5" x2="468.875" y1="245.5938" y2="245.5938"/><text fill="#000000" font-family="sans-serif" font-size="14" lengthAdjust="spacing" textLength="238.4922" x="200.5" y="262.5889">+forTier(t : ModelTier) : LLMClient</text></g><!--class LLMClient--><g id="elem_LLMClient"><rect codeLine="435" fill="#FFFFFF" height="64.5625" id="LLMClient" rx="2.5" ry="2.5" style="stroke:#444444;stroke-width:0.5;" width="674.2588" x="165" y="475.7969"/><ellipse cx="463.7749" cy="495.9297" fill="#B4A7E5" rx="11" ry="11" style="stroke:#181818;stroke-width:1.0;"/><path d="M459.6968,491.6953 L459.6968,489.5391 L467.0874,489.5391 L467.0874,491.6953 L464.6187,491.6953 L464.6187,499.7734 L467.0874,499.7734 L467.0874,501.9297 L459.6968,501.9297 L459.6968,499.7734 L462.1655,499.7734 L462.1655,491.6953 L459.6968,491.6953 Z " fill="#000000"/><text fill="#000000" font-family="sans-serif" font-size="12" font-style="italic" lengthAdjust="spacing" textLength="66.2285" x="485.2651" y="491.9355">&#171;Strategy&#187;</text><text fill="#000000" font-family="sans-serif" font-size="14" font-style="italic" lengthAdjust="spacing" textLength="68.209" x="484.2749" y="507.7607">LLMClient</text><line style="stroke:#444444;stroke-width:0.5;" x1="166" x2="838.2588" y1="516.0625" y2="516.0625"/><text fill="#000000" font-family="sans-serif" font-size="14" lengthAdjust="spacing" textLength="662.2588" x="171" y="533.0576">+complete(msgs : List&lt;Message&gt;, tools : List&lt;ToolSchema&gt;, system : String) : LLMResponse</text></g><!--class ClaudeClient--><g id="elem_ClaudeClient"><rect codeLine="438" fill="#FFFFFF" height="145.7813" id="ClaudeClient" rx="2.5" ry="2.5" style="stroke:#444444;stroke-width:0.5;" width="473.1182" x="22.5" y="636.2969"/><ellipse cx="210.2354" cy="652.2969" fill="#ADD1B2" rx="11" ry="11" style="stroke:#181818;stroke-width:1.0;"/><path d="M213.2041,657.9375 Q212.626,658.2344 211.9854,658.375 Q211.3447,658.5313 210.6416,658.5313 Q208.1416,658.5313 206.8135,656.8906 Q205.501,655.2344 205.501,652.1094 Q205.501,648.9844 206.8135,647.3281 Q208.1416,645.6719 210.6416,645.6719 Q211.3447,645.6719 211.9854,645.8281 Q212.6416,645.9844 213.2041,646.2813 L213.2041,649 Q212.5791,648.4219 211.9854,648.1563 Q211.3916,647.875 210.7666,647.875 Q209.4229,647.875 208.7354,648.9531 Q208.0479,650.0156 208.0479,652.1094 Q208.0479,654.2031 208.7354,655.2813 Q209.4229,656.3438 210.7666,656.3438 Q211.3916,656.3438 211.9854,656.0781 Q212.5791,655.7969 213.2041,655.2188 L213.2041,657.9375 Z " fill="#000000"/><text fill="#000000" font-family="sans-serif" font-size="14" lengthAdjust="spacing" textLength="89.1475" x="230.7354" y="657.1436">ClaudeClient</text><line style="stroke:#444444;stroke-width:0.5;" x1="23.5" x2="494.6182" y1="668.2969" y2="668.2969"/><text fill="#000000" font-family="sans-serif" font-size="14" lengthAdjust="spacing" textLength="233.7002" x="28.5" y="685.292">-chatModel : AnthropicChatModel</text><text fill="#000000" font-family="sans-serif" font-size="14" lengthAdjust="spacing" textLength="145.3457" x="28.5" y="701.5889">-modelName : String</text><text fill="#000000" font-family="sans-serif" font-size="14" lengthAdjust="spacing" textLength="117.4277" x="28.5" y="717.8857">-maxTokens : int</text><text fill="#000000" font-family="sans-serif" font-size="14" lengthAdjust="spacing" textLength="150.2949" x="28.5" y="734.1826">-timeoutSeconds : int</text><line style="stroke:#444444;stroke-width:0.5;" x1="23.5" x2="494.6182" y1="741.4844" y2="741.4844"/><text fill="#000000" font-family="sans-serif" font-size="14" lengthAdjust="spacing" textLength="461.1182" x="28.5" y="758.4795">-toSpecifications(t : List&lt;ToolSchema&gt;) : List&lt;ToolSpecification&gt;</text><text fill="#000000" font-family="sans-serif" font-size="14" lengthAdjust="spacing" textLength="334.9336" x="28.5" y="774.7764">-fromAiMessage(m : AiMessage) : LLMResponse</text></g><!--class ScriptedLLMClient--><g id="elem_ScriptedLLMClient"><rect codeLine="446" fill="#FFFFFF" height="56.2969" id="ScriptedLLMClient" rx="2.5" ry="2.5" style="stroke:#444444;stroke-width:0.5;" width="245.3379" x="535.5" y="681.2969"/><ellipse cx="590.7617" cy="697.2969" fill="#ADD1B2" rx="11" ry="11" style="stroke:#181818;stroke-width:1.0;"/><path d="M593.7305,702.9375 Q593.1523,703.2344 592.5117,703.375 Q591.8711,703.5313 591.168,703.5313 Q588.668,703.5313 587.3398,701.8906 Q586.0273,700.2344 586.0273,697.1094 Q586.0273,693.9844 587.3398,692.3281 Q588.668,690.6719 591.168,690.6719 Q591.8711,690.6719 592.5117,690.8281 Q593.168,690.9844 593.7305,691.2813 L593.7305,694 Q593.1055,693.4219 592.5117,693.1563 Q591.918,692.875 591.293,692.875 Q589.9492,692.875 589.2617,693.9531 Q588.5742,695.0156 588.5742,697.1094 Q588.5742,699.2031 589.2617,700.2813 Q589.9492,701.3438 591.293,701.3438 Q591.918,701.3438 592.5117,701.0781 Q593.1055,700.7969 593.7305,700.2188 L593.7305,702.9375 Z " fill="#000000"/><text fill="#000000" font-family="sans-serif" font-size="14" lengthAdjust="spacing" textLength="126.3145" x="611.2617" y="702.1436">ScriptedLLMClient</text><line style="stroke:#444444;stroke-width:0.5;" x1="536.5" x2="779.8379" y1="713.2969" y2="713.2969"/><text fill="#000000" font-family="sans-serif" font-size="14" lengthAdjust="spacing" textLength="233.3379" x="541.5" y="730.292">-responses : List&lt;LLMResponse&gt;</text></g><!--class LLMClientDecorator--><g id="elem_LLMClientDecorator"><rect codeLine="449" fill="#FFFFFF" height="88.8594" id="LLMClientDecorator" rx="2.5" ry="2.5" style="stroke:#444444;stroke-width:0.5;" width="674.2588" x="821" y="664.7969"/><ellipse cx="1084.874" cy="684.9297" fill="#A9DCDF" rx="11" ry="11" style="stroke:#181818;stroke-width:1.0;"/><path d="M1084.9834,680.2734 L1083.8271,685.3516 L1086.1553,685.3516 L1084.9834,680.2734 Z M1083.499,678.0391 L1086.4834,678.0391 L1089.8428,690.4297 L1087.3896,690.4297 L1086.624,687.3672 L1083.3428,687.3672 L1082.5928,690.4297 L1080.1553,690.4297 L1083.499,678.0391 Z " fill="#000000"/><text fill="#000000" font-family="sans-serif" font-size="12" font-style="italic" lengthAdjust="spacing" textLength="74.6426" x="1137.0581" y="680.9355">&#171;Decorator&#187;</text><text fill="#000000" font-family="sans-serif" font-size="14" font-style="italic" lengthAdjust="spacing" textLength="138.0107" x="1105.374" y="696.7607">LLMClientDecorator</text><line style="stroke:#444444;stroke-width:0.5;" x1="822" x2="1494.2588" y1="705.0625" y2="705.0625"/><text fill="#000000" font-family="sans-serif" font-size="14" lengthAdjust="spacing" textLength="155.1279" x="827" y="722.0576">#delegate : LLMClient</text><line style="stroke:#444444;stroke-width:0.5;" x1="822" x2="1494.2588" y1="729.3594" y2="729.3594"/><text fill="#000000" font-family="sans-serif" font-size="14" lengthAdjust="spacing" textLength="662.2588" x="827" y="746.3545">+complete(msgs : List&lt;Message&gt;, tools : List&lt;ToolSchema&gt;, system : String) : LLMResponse</text></g><!--class CachingLLMClient--><g id="elem_CachingLLMClient"><rect codeLine="453" fill="#FFFFFF" height="129.4844" id="CachingLLMClient" rx="2.5" ry="2.5" style="stroke:#444444;stroke-width:0.5;" width="458.5166" x="679.5" y="837.2969"/><ellipse cx="842.1167" cy="853.2969" fill="#ADD1B2" rx="11" ry="11" style="stroke:#181818;stroke-width:1.0;"/><path d="M845.0854,858.9375 Q844.5073,859.2344 843.8667,859.375 Q843.2261,859.5313 842.5229,859.5313 Q840.0229,859.5313 838.6948,857.8906 Q837.3823,856.2344 837.3823,853.1094 Q837.3823,849.9844 838.6948,848.3281 Q840.0229,846.6719 842.5229,846.6719 Q843.2261,846.6719 843.8667,846.8281 Q844.5229,846.9844 845.0854,847.2813 L845.0854,850 Q844.4604,849.4219 843.8667,849.1563 Q843.2729,848.875 842.6479,848.875 Q841.3042,848.875 840.6167,849.9531 Q839.9292,851.0156 839.9292,853.1094 Q839.9292,855.2031 840.6167,856.2813 Q841.3042,857.3438 842.6479,857.3438 Q843.2729,857.3438 843.8667,857.0781 Q844.4604,856.7969 845.0854,856.2188 L845.0854,858.9375 Z " fill="#000000"/><text fill="#000000" font-family="sans-serif" font-size="14" lengthAdjust="spacing" textLength="124.7832" x="862.6167" y="858.1436">CachingLLMClient</text><line style="stroke:#444444;stroke-width:0.5;" x1="680.5" x2="1137.0166" y1="869.2969" y2="869.2969"/><text fill="#000000" font-family="sans-serif" font-size="14" lengthAdjust="spacing" textLength="259.3623" x="685.5" y="886.292">-cache : Map&lt;String, LLMResponse&gt;</text><text fill="#000000" font-family="sans-serif" font-size="14" lengthAdjust="spacing" textLength="62.4668" x="685.5" y="902.5889">-hits : int</text><text fill="#000000" font-family="sans-serif" font-size="14" lengthAdjust="spacing" textLength="84.9434" x="685.5" y="918.8857">-misses : int</text><line style="stroke:#444444;stroke-width:0.5;" x1="680.5" x2="1137.0166" y1="926.1875" y2="926.1875"/><text fill="#000000" font-family="sans-serif" font-size="14" lengthAdjust="spacing" textLength="446.5166" x="685.5" y="943.1826">-key(msgs : List&lt;Message&gt;, tools : List&lt;ToolSchema&gt;) : String</text><text fill="#000000" font-family="sans-serif" font-size="14" lengthAdjust="spacing" textLength="140.458" x="685.5" y="959.4795">+statistics() : String</text></g><!--class RecordingLLMClient--><g id="elem_RecordingLLMClient"><rect codeLine="460" fill="#FFFFFF" height="80.5938" id="RecordingLLMClient" rx="2.5" ry="2.5" style="stroke:#444444;stroke-width:0.5;" width="320.7178" x="1178.5" y="861.2969"/><ellipse cx="1265.0566" cy="877.2969" fill="#ADD1B2" rx="11" ry="11" style="stroke:#181818;stroke-width:1.0;"/><path d="M1268.0254,882.9375 Q1267.4473,883.2344 1266.8066,883.375 Q1266.166,883.5313 1265.4629,883.5313 Q1262.9629,883.5313 1261.6348,881.8906 Q1260.3223,880.2344 1260.3223,877.1094 Q1260.3223,873.9844 1261.6348,872.3281 Q1262.9629,870.6719 1265.4629,870.6719 Q1266.166,870.6719 1266.8066,870.8281 Q1267.4629,870.9844 1268.0254,871.2813 L1268.0254,874 Q1267.4004,873.4219 1266.8066,873.1563 Q1266.2129,872.875 1265.5879,872.875 Q1264.2441,872.875 1263.5566,873.9531 Q1262.8691,875.0156 1262.8691,877.1094 Q1262.8691,879.2031 1263.5566,880.2813 Q1264.2441,881.3438 1265.5879,881.3438 Q1266.2129,881.3438 1266.8066,881.0781 Q1267.4004,880.7969 1268.0254,880.2188 L1268.0254,882.9375 Z " fill="#000000"/><text fill="#000000" font-family="sans-serif" font-size="14" lengthAdjust="spacing" textLength="139.1045" x="1285.5566" y="882.1436">RecordingLLMClient</text><line style="stroke:#444444;stroke-width:0.5;" x1="1179.5" x2="1498.2178" y1="893.2969" y2="893.2969"/><text fill="#000000" font-family="sans-serif" font-size="14" lengthAdjust="spacing" textLength="116.3135" x="1184.5" y="910.292">-fixtureDir : Path</text><line style="stroke:#444444;stroke-width:0.5;" x1="1179.5" x2="1498.2178" y1="917.5938" y2="917.5938"/><text fill="#000000" font-family="sans-serif" font-size="14" lengthAdjust="spacing" textLength="308.7178" x="1184.5" y="934.5889">-record(key : String, r : LLMResponse) : void</text></g><!--class LLMResponse--><g id="elem_LLMResponse"><rect codeLine="464" fill="#FFFFFF" height="88.8906" id="LLMResponse" rx="2.5" ry="2.5" style="stroke:#444444;stroke-width:0.5;" width="200.9248" x="1899.5" y="664.7969"/><ellipse cx="1947.9395" cy="680.7969" fill="#ADD1B2" rx="11" ry="11" style="stroke:#181818;stroke-width:1.0;"/><path d="M1950.9082,686.4375 Q1950.3301,686.7344 1949.6895,686.875 Q1949.0488,687.0313 1948.3457,687.0313 Q1945.8457,687.0313 1944.5176,685.3906 Q1943.2051,683.7344 1943.2051,680.6094 Q1943.2051,677.4844 1944.5176,675.8281 Q1945.8457,674.1719 1948.3457,674.1719 Q1949.0488,674.1719 1949.6895,674.3281 Q1950.3457,674.4844 1950.9082,674.7813 L1950.9082,677.5 Q1950.2832,676.9219 1949.6895,676.6563 Q1949.0957,676.375 1948.4707,676.375 Q1947.127,676.375 1946.4395,677.4531 Q1945.752,678.5156 1945.752,680.6094 Q1945.752,682.7031 1946.4395,683.7813 Q1947.127,684.8438 1948.4707,684.8438 Q1949.0957,684.8438 1949.6895,684.5781 Q1950.2832,684.2969 1950.9082,683.7188 L1950.9082,686.4375 Z " fill="#000000"/><text fill="#000000" font-family="sans-serif" font-size="14" lengthAdjust="spacing" textLength="95.5459" x="1968.4395" y="685.6436">LLMResponse</text><line style="stroke:#444444;stroke-width:0.5;" x1="1900.5" x2="2099.4248" y1="696.7969" y2="696.7969"/><text fill="#000000" font-family="sans-serif" font-size="14" lengthAdjust="spacing" textLength="162.8184" x="1905.5" y="713.792">+content : String [0..1]</text><text fill="#000000" font-family="sans-serif" font-size="14" lengthAdjust="spacing" textLength="188.9248" x="1905.5" y="730.0889">+toolCalls : List&lt;ToolCall&gt;</text><text fill="#000000" font-family="sans-serif" font-size="14" lengthAdjust="spacing" textLength="156.5293" x="1905.5" y="746.3857">+finishReason : String</text></g><!--class Message--><g id="elem_Message"><rect codeLine="469" fill="#FFFFFF" height="72.5938" id="Message" rx="2.5" ry="2.5" style="stroke:#444444;stroke-width:0.5;" width="132.7295" x="2760.5" y="1021.2969"/><ellipse cx="2793.2166" cy="1037.2969" fill="#ADD1B2" rx="11" ry="11" style="stroke:#181818;stroke-width:1.0;"/><path d="M2796.1853,1042.9375 Q2795.6072,1043.2344 2794.9666,1043.375 Q2794.3259,1043.5313 2793.6228,1043.5313 Q2791.1228,1043.5313 2789.7947,1041.8906 Q2788.4822,1040.2344 2788.4822,1037.1094 Q2788.4822,1033.9844 2789.7947,1032.3281 Q2791.1228,1030.6719 2793.6228,1030.6719 Q2794.3259,1030.6719 2794.9666,1030.8281 Q2795.6228,1030.9844 2796.1853,1031.2813 L2796.1853,1034 Q2795.5603,1033.4219 2794.9666,1033.1563 Q2794.3728,1032.875 2793.7478,1032.875 Q2792.4041,1032.875 2791.7166,1033.9531 Q2791.0291,1035.0156 2791.0291,1037.1094 Q2791.0291,1039.2031 2791.7166,1040.2813 Q2792.4041,1041.3438 2793.7478,1041.3438 Q2794.3728,1041.3438 2794.9666,1041.0781 Q2795.5603,1040.7969 2796.1853,1040.2188 L2796.1853,1042.9375 Z " fill="#000000"/><text fill="#000000" font-family="sans-serif" font-size="14" lengthAdjust="spacing" textLength="61.3594" x="2811.1536" y="1042.1436">Message</text><line style="stroke:#444444;stroke-width:0.5;" x1="2761.5" x2="2892.2295" y1="1053.2969" y2="1053.2969"/><text fill="#000000" font-family="sans-serif" font-size="14" lengthAdjust="spacing" textLength="93.9531" x="2766.5" y="1070.292">+role : String</text><text fill="#000000" font-family="sans-serif" font-size="14" lengthAdjust="spacing" textLength="120.7295" x="2766.5" y="1086.5889">+content : String</text></g><!--class PromptBuilder--><g id="elem_PromptBuilder"><rect codeLine="473" fill="#FFFFFF" height="146.0469" id="PromptBuilder" rx="2.5" ry="2.5" style="stroke:#444444;stroke-width:0.5;" width="385.8779" x="1089" y="435.2969"/><ellipse cx="1227.5439" cy="455.4297" fill="#ADD1B2" rx="11" ry="11" style="stroke:#181818;stroke-width:1.0;"/><path d="M1230.5127,461.0703 Q1229.9346,461.3672 1229.2939,461.5078 Q1228.6533,461.6641 1227.9502,461.6641 Q1225.4502,461.6641 1224.1221,460.0234 Q1222.8096,458.3672 1222.8096,455.2422 Q1222.8096,452.1172 1224.1221,450.4609 Q1225.4502,448.8047 1227.9502,448.8047 Q1228.6533,448.8047 1229.2939,448.9609 Q1229.9502,449.1172 1230.5127,449.4141 L1230.5127,452.1328 Q1229.8877,451.5547 1229.2939,451.2891 Q1228.7002,451.0078 1228.0752,451.0078 Q1226.7314,451.0078 1226.0439,452.0859 Q1225.3564,453.1484 1225.3564,455.2422 Q1225.3564,457.3359 1226.0439,458.4141 Q1226.7314,459.4766 1228.0752,459.4766 Q1228.7002,459.4766 1229.2939,459.2109 Q1229.8877,458.9297 1230.5127,458.3516 L1230.5127,461.0703 Z " fill="#000000"/><text fill="#000000" font-family="sans-serif" font-size="12" font-style="italic" lengthAdjust="spacing" textLength="57.252" x="1269.563" y="451.4355">&#171;Builder&#187;</text><text fill="#000000" font-family="sans-serif" font-size="14" lengthAdjust="spacing" textLength="100.29" x="1248.0439" y="467.2607">PromptBuilder</text><line style="stroke:#444444;stroke-width:0.5;" x1="1090" x2="1473.8779" y1="475.5625" y2="475.5625"/><text fill="#000000" font-family="sans-serif" font-size="14" lengthAdjust="spacing" textLength="270.4502" x="1095" y="492.5576">+system(text : String) : PromptBuilder</text><text fill="#000000" font-family="sans-serif" font-size="14" lengthAdjust="spacing" textLength="373.8779" x="1095" y="508.8545">+context(key : String, value : object) : PromptBuilder</text><text fill="#000000" font-family="sans-serif" font-size="14" lengthAdjust="spacing" textLength="361.4502" x="1095" y="525.1514">+schema(s : Map&lt;String, Object&gt;) : PromptBuilder</text><text fill="#000000" font-family="sans-serif" font-size="14" lengthAdjust="spacing" textLength="334.626" x="1095" y="541.4482">+memory(snips : List&lt;String&gt;) : PromptBuilder</text><text fill="#000000" font-family="sans-serif" font-size="14" lengthAdjust="spacing" textLength="250.373" x="1095" y="557.7451">+user(text : String) : PromptBuilder</text><text fill="#000000" font-family="sans-serif" font-size="14" lengthAdjust="spacing" textLength="179.9902" x="1095" y="574.042">+build() : List&lt;Message&gt;</text></g><!--class ResponseParser--><g id="elem_ResponseParser"><rect codeLine="481" fill="#FFFFFF" height="105.1875" id="ResponseParser" rx="2.5" ry="2.5" style="stroke:#444444;stroke-width:0.5;" width="554.1035" x="1515" y="455.7969"/><ellipse cx="1731.6479" cy="471.7969" fill="#ADD1B2" rx="11" ry="11" style="stroke:#181818;stroke-width:1.0;"/><path d="M1734.6167,477.4375 Q1734.0386,477.7344 1733.3979,477.875 Q1732.7573,478.0313 1732.0542,478.0313 Q1729.5542,478.0313 1728.2261,476.3906 Q1726.9136,474.7344 1726.9136,471.6094 Q1726.9136,468.4844 1728.2261,466.8281 Q1729.5542,465.1719 1732.0542,465.1719 Q1732.7573,465.1719 1733.3979,465.3281 Q1734.0542,465.4844 1734.6167,465.7813 L1734.6167,468.5 Q1733.9917,467.9219 1733.3979,467.6563 Q1732.8042,467.375 1732.1792,467.375 Q1730.8354,467.375 1730.1479,468.4531 Q1729.4604,469.5156 1729.4604,471.6094 Q1729.4604,473.7031 1730.1479,474.7813 Q1730.8354,475.8438 1732.1792,475.8438 Q1732.8042,475.8438 1733.3979,475.5781 Q1733.9917,475.2969 1734.6167,474.7188 L1734.6167,477.4375 Z " fill="#000000"/><text fill="#000000" font-family="sans-serif" font-size="14" lengthAdjust="spacing" textLength="112.3076" x="1752.1479" y="476.6436">ResponseParser</text><line style="stroke:#444444;stroke-width:0.5;" x1="1516" x2="2068.1035" y1="487.7969" y2="487.7969"/><text fill="#000000" font-family="sans-serif" font-size="14" lengthAdjust="spacing" textLength="334.7285" x="1521" y="504.792">+parseJson(raw : String) : Map&lt;String, Object&gt;</text><text fill="#000000" font-family="sans-serif" font-size="14" lengthAdjust="spacing" textLength="542.1035" x="1521" y="521.0889">+toBlock(d : Map&lt;String, Object&gt;, catalog : ExerciseCatalog) : TrainingBlock</text><text fill="#000000" font-family="sans-serif" font-size="14" lengthAdjust="spacing" textLength="328.9453" x="1521" y="537.3857">+toSession(d : Map&lt;String, Object&gt;) : Session</text><text fill="#000000" font-family="sans-serif" font-size="14" lengthAdjust="spacing" textLength="515.2861" x="1521" y="553.6826">+toMeal(d : Map&lt;String, Object&gt;, foods : FoodCatalog) : MealSuggestion</text></g><!--class PlanValidator--><g id="elem_PlanValidator"><rect codeLine="487" fill="#FFFFFF" height="105.1875" id="PlanValidator" rx="2.5" ry="2.5" style="stroke:#444444;stroke-width:0.5;" width="734.8115" x="2109.5" y="455.7969"/><ellipse cx="2426.1577" cy="471.7969" fill="#ADD1B2" rx="11" ry="11" style="stroke:#181818;stroke-width:1.0;"/><path d="M2429.1265,477.4375 Q2428.5483,477.7344 2427.9077,477.875 Q2427.2671,478.0313 2426.564,478.0313 Q2424.064,478.0313 2422.7358,476.3906 Q2421.4233,474.7344 2421.4233,471.6094 Q2421.4233,468.4844 2422.7358,466.8281 Q2424.064,465.1719 2426.564,465.1719 Q2427.2671,465.1719 2427.9077,465.3281 Q2428.564,465.4844 2429.1265,465.7813 L2429.1265,468.5 Q2428.5015,467.9219 2427.9077,467.6563 Q2427.314,467.375 2426.689,467.375 Q2425.3452,467.375 2424.6577,468.4531 Q2423.9702,469.5156 2423.9702,471.6094 Q2423.9702,473.7031 2424.6577,474.7813 Q2425.3452,475.8438 2426.689,475.8438 Q2427.314,475.8438 2427.9077,475.5781 Q2428.5015,475.2969 2429.1265,474.7188 L2429.1265,477.4375 Z " fill="#000000"/><text fill="#000000" font-family="sans-serif" font-size="14" lengthAdjust="spacing" textLength="92.9961" x="2446.6577" y="476.6436">PlanValidator</text><line style="stroke:#444444;stroke-width:0.5;" x1="2110.5" x2="2843.3115" y1="487.7969" y2="487.7969"/><text fill="#000000" font-family="sans-serif" font-size="14" lengthAdjust="spacing" textLength="677.5234" x="2115.5" y="504.792">+validateBlock(b : TrainingBlock, ctx : AgentContext, s : ProgressionStrategy) : ValidationReport</text><text fill="#000000" font-family="sans-serif" font-size="14" lengthAdjust="spacing" textLength="558.7832" x="2115.5" y="521.0889">+validateSubstitution(e : Exercise, allowed : List&lt;Exercise&gt;) : ValidationReport</text><text fill="#000000" font-family="sans-serif" font-size="14" lengthAdjust="spacing" textLength="722.8115" x="2115.5" y="537.3857">+validateMeal(m : MealSuggestion, d : DietaryConstraints, remaining : MacroTotals) : ValidationReport</text><text fill="#000000" font-family="sans-serif" font-size="14" lengthAdjust="spacing" textLength="489.5898" x="2115.5" y="553.6826">+validateRationale(text : String, a : MeetAttempts) : ValidationReport</text></g><!--class ValidationReport--><g id="elem_ValidationReport"><rect codeLine="493" fill="#FFFFFF" height="72.5938" id="ValidationReport" rx="2.5" ry="2.5" style="stroke:#444444;stroke-width:0.5;" width="168.8027" x="2392.5" y="672.7969"/><ellipse cx="2416.2957" cy="688.7969" fill="#ADD1B2" rx="11" ry="11" style="stroke:#181818;stroke-width:1.0;"/><path d="M2419.2644,694.4375 Q2418.6863,694.7344 2418.0457,694.875 Q2417.405,695.0313 2416.7019,695.0313 Q2414.2019,695.0313 2412.8738,693.3906 Q2411.5613,691.7344 2411.5613,688.6094 Q2411.5613,685.4844 2412.8738,683.8281 Q2414.2019,682.1719 2416.7019,682.1719 Q2417.405,682.1719 2418.0457,682.3281 Q2418.7019,682.4844 2419.2644,682.7813 L2419.2644,685.5 Q2418.6394,684.9219 2418.0457,684.6563 Q2417.4519,684.375 2416.8269,684.375 Q2415.4832,684.375 2414.7957,685.4531 Q2414.1082,686.5156 2414.1082,688.6094 Q2414.1082,690.7031 2414.7957,691.7813 Q2415.4832,692.8438 2416.8269,692.8438 Q2417.4519,692.8438 2418.0457,692.5781 Q2418.6394,692.2969 2419.2644,691.7188 L2419.2644,694.4375 Z " fill="#000000"/><text fill="#000000" font-family="sans-serif" font-size="14" lengthAdjust="spacing" textLength="117.2568" x="2432.2502" y="693.6436">ValidationReport</text><line style="stroke:#444444;stroke-width:0.5;" x1="2393.5" x2="2560.3027" y1="704.7969" y2="704.7969"/><text fill="#000000" font-family="sans-serif" font-size="14" lengthAdjust="spacing" textLength="114.8506" x="2398.5" y="721.792">+valid : boolean</text><text fill="#000000" font-family="sans-serif" font-size="14" lengthAdjust="spacing" textLength="156.8027" x="2398.5" y="738.0889">+errors : List&lt;String&gt;</text></g><!--class ToolManager--><g id="elem_ToolManager"><rect codeLine="498" fill="#FFFFFF" height="129.4844" id="ToolManager" rx="2.5" ry="2.5" style="stroke:#444444;stroke-width:0.5;" width="271.2939" x="2884.5" y="443.7969"/><ellipse cx="2970.4277" cy="459.7969" fill="#ADD1B2" rx="11" ry="11" style="stroke:#181818;stroke-width:1.0;"/><path d="M2973.3965,465.4375 Q2972.8184,465.7344 2972.1777,465.875 Q2971.5371,466.0313 2970.834,466.0313 Q2968.334,466.0313 2967.0059,464.3906 Q2965.6934,462.7344 2965.6934,459.6094 Q2965.6934,456.4844 2967.0059,454.8281 Q2968.334,453.1719 2970.834,453.1719 Q2971.5371,453.1719 2972.1777,453.3281 Q2972.834,453.4844 2973.3965,453.7813 L2973.3965,456.5 Q2972.7715,455.9219 2972.1777,455.6563 Q2971.584,455.375 2970.959,455.375 Q2969.6152,455.375 2968.9277,456.4531 Q2968.2402,457.5156 2968.2402,459.6094 Q2968.2402,461.7031 2968.9277,462.7813 Q2969.6152,463.8438 2970.959,463.8438 Q2971.584,463.8438 2972.1777,463.5781 Q2972.7715,463.2969 2973.3965,462.7188 L2973.3965,465.4375 Z " fill="#000000"/><text fill="#000000" font-family="sans-serif" font-size="14" lengthAdjust="spacing" textLength="90.9385" x="2990.9277" y="464.6436">ToolManager</text><line style="stroke:#444444;stroke-width:0.5;" x1="2885.5" x2="3154.7939" y1="475.7969" y2="475.7969"/><text fill="#000000" font-family="sans-serif" font-size="14" lengthAdjust="spacing" textLength="185.7324" x="2890.5" y="492.792">-tools : Map&lt;String, Tool&gt;</text><text fill="#000000" font-family="sans-serif" font-size="14" lengthAdjust="spacing" textLength="171.6162" x="2890.5" y="509.0889">-callLog : List&lt;ToolCall&gt;</text><line style="stroke:#444444;stroke-width:0.5;" x1="2885.5" x2="3154.7939" y1="516.3906" y2="516.3906"/><text fill="#000000" font-family="sans-serif" font-size="14" lengthAdjust="spacing" textLength="168.875" x="2890.5" y="533.3857">+register(t : Tool) : void</text><text fill="#000000" font-family="sans-serif" font-size="14" lengthAdjust="spacing" textLength="232.0527" x="2890.5" y="549.6826">+schemas() : List&lt;ToolSchema&gt;</text><text fill="#000000" font-family="sans-serif" font-size="14" lengthAdjust="spacing" textLength="259.2939" x="2890.5" y="565.9795">+execute(call : ToolCall) : ToolResult</text></g><!--class Tool--><g id="elem_Tool"><rect codeLine="505" fill="#FFFFFF" height="88.8906" id="Tool" rx="2.5" ry="2.5" style="stroke:#444444;stroke-width:0.5;" width="371.3311" x="2769.5" y="664.7969"/><ellipse cx="2936.1294" cy="680.7969" fill="#B4A7E5" rx="11" ry="11" style="stroke:#181818;stroke-width:1.0;"/><path d="M2932.0513,676.5625 L2932.0513,674.4063 L2939.4419,674.4063 L2939.4419,676.5625 L2936.9731,676.5625 L2936.9731,684.6406 L2939.4419,684.6406 L2939.4419,686.7969 L2932.0513,686.7969 L2932.0513,684.6406 L2934.52,684.6406 L2934.52,676.5625 L2932.0513,676.5625 Z " fill="#000000"/><text fill="#000000" font-family="sans-serif" font-size="14" font-style="italic" lengthAdjust="spacing" textLength="29.5723" x="2956.6294" y="685.6436">Tool</text><line style="stroke:#444444;stroke-width:0.5;" x1="2770.5" x2="3139.8311" y1="696.7969" y2="696.7969"/><text fill="#000000" font-family="sans-serif" font-size="14" lengthAdjust="spacing" textLength="117.7559" x="2775.5" y="713.792">+name() : String</text><text fill="#000000" font-family="sans-serif" font-size="14" lengthAdjust="spacing" textLength="176.8252" x="2775.5" y="730.0889">+schema() : ToolSchema</text><text fill="#000000" font-family="sans-serif" font-size="14" lengthAdjust="spacing" textLength="359.3311" x="2775.5" y="746.3857">+execute(args : Map&lt;String, Object&gt;) : ToolResult</text></g><!--class ToolSchema--><g id="elem_ToolSchema"><rect codeLine="510" fill="#FFFFFF" height="88.8906" id="ToolSchema" rx="2.5" ry="2.5" style="stroke:#444444;stroke-width:0.5;" width="278.9297" x="3366.5" y="857.2969"/><ellipse cx="3458.7852" cy="873.2969" fill="#ADD1B2" rx="11" ry="11" style="stroke:#181818;stroke-width:1.0;"/><path d="M3461.7539,878.9375 Q3461.1758,879.2344 3460.5352,879.375 Q3459.8945,879.5313 3459.1914,879.5313 Q3456.6914,879.5313 3455.3633,877.8906 Q3454.0508,876.2344 3454.0508,873.1094 Q3454.0508,869.9844 3455.3633,868.3281 Q3456.6914,866.6719 3459.1914,866.6719 Q3459.8945,866.6719 3460.5352,866.8281 Q3461.1914,866.9844 3461.7539,867.2813 L3461.7539,870 Q3461.1289,869.4219 3460.5352,869.1563 Q3459.9414,868.875 3459.3164,868.875 Q3457.9727,868.875 3457.2852,869.9531 Q3456.5977,871.0156 3456.5977,873.1094 Q3456.5977,875.2031 3457.2852,876.2813 Q3457.9727,877.3438 3459.3164,877.3438 Q3459.9414,877.3438 3460.5352,877.0781 Q3461.1289,876.7969 3461.7539,876.2188 L3461.7539,878.9375 Z " fill="#000000"/><text fill="#000000" font-family="sans-serif" font-size="14" lengthAdjust="spacing" textLength="85.8594" x="3479.2852" y="878.1436">ToolSchema</text><line style="stroke:#444444;stroke-width:0.5;" x1="3367.5" x2="3644.4297" y1="889.2969" y2="889.2969"/><text fill="#000000" font-family="sans-serif" font-size="14" lengthAdjust="spacing" textLength="106.832" x="3372.5" y="906.292">+name : String</text><text fill="#000000" font-family="sans-serif" font-size="14" lengthAdjust="spacing" textLength="144.9697" x="3372.5" y="922.5889">+description : String</text><text fill="#000000" font-family="sans-serif" font-size="14" lengthAdjust="spacing" textLength="266.9297" x="3372.5" y="938.8857">+inputSchema : Map&lt;String, Object&gt;</text></g><!--class ToolCall--><g id="elem_ToolCall"><rect codeLine="515" fill="#FFFFFF" height="88.8906" id="ToolCall" rx="2.5" ry="2.5" style="stroke:#444444;stroke-width:0.5;" width="262.6328" x="2003.5" y="857.2969"/><ellipse cx="2102.7134" cy="873.2969" fill="#ADD1B2" rx="11" ry="11" style="stroke:#181818;stroke-width:1.0;"/><path d="M2105.6821,878.9375 Q2105.104,879.2344 2104.4634,879.375 Q2103.8228,879.5313 2103.1196,879.5313 Q2100.6196,879.5313 2099.2915,877.8906 Q2097.979,876.2344 2097.979,873.1094 Q2097.979,869.9844 2099.2915,868.3281 Q2100.6196,866.6719 2103.1196,866.6719 Q2103.8228,866.6719 2104.4634,866.8281 Q2105.1196,866.9844 2105.6821,867.2813 L2105.6821,870 Q2105.0571,869.4219 2104.4634,869.1563 Q2103.8696,868.875 2103.2446,868.875 Q2101.9009,868.875 2101.2134,869.9531 Q2100.5259,871.0156 2100.5259,873.1094 Q2100.5259,875.2031 2101.2134,876.2813 Q2101.9009,877.3438 2103.2446,877.3438 Q2103.8696,877.3438 2104.4634,877.0781 Q2105.0571,876.7969 2105.6821,876.2188 L2105.6821,878.9375 Z " fill="#000000"/><text fill="#000000" font-family="sans-serif" font-size="14" lengthAdjust="spacing" textLength="55.7061" x="2123.2134" y="878.1436">ToolCall</text><line style="stroke:#444444;stroke-width:0.5;" x1="2004.5" x2="2265.1328" y1="889.2969" y2="889.2969"/><text fill="#000000" font-family="sans-serif" font-size="14" lengthAdjust="spacing" textLength="79.9053" x="2009.5" y="906.292">+id : String</text><text fill="#000000" font-family="sans-serif" font-size="14" lengthAdjust="spacing" textLength="134.9414" x="2009.5" y="922.5889">+toolName : String</text><text fill="#000000" font-family="sans-serif" font-size="14" lengthAdjust="spacing" textLength="250.6328" x="2009.5" y="938.8857">+arguments : Map&lt;String, Object&gt;</text></g><!--class ToolResult--><g id="elem_ToolResult"><rect codeLine="520" fill="#FFFFFF" height="88.8906" id="ToolResult" rx="2.5" ry="2.5" style="stroke:#444444;stroke-width:0.5;" width="155.6641" x="3181" y="664.7969"/><ellipse cx="3218.5923" cy="680.7969" fill="#ADD1B2" rx="11" ry="11" style="stroke:#181818;stroke-width:1.0;"/><path d="M3221.561,686.4375 Q3220.9829,686.7344 3220.3423,686.875 Q3219.7017,687.0313 3218.9985,687.0313 Q3216.4985,687.0313 3215.1704,685.3906 Q3213.8579,683.7344 3213.8579,680.6094 Q3213.8579,677.4844 3215.1704,675.8281 Q3216.4985,674.1719 3218.9985,674.1719 Q3219.7017,674.1719 3220.3423,674.3281 Q3220.9985,674.4844 3221.561,674.7813 L3221.561,677.5 Q3220.936,676.9219 3220.3423,676.6563 Q3219.7485,676.375 3219.1235,676.375 Q3217.7798,676.375 3217.0923,677.4531 Q3216.4048,678.5156 3216.4048,680.6094 Q3216.4048,682.7031 3217.0923,683.7813 Q3217.7798,684.8438 3219.1235,684.8438 Q3219.7485,684.8438 3220.3423,684.5781 Q3220.936,684.2969 3221.561,683.7188 L3221.561,686.4375 Z " fill="#000000"/><text fill="#000000" font-family="sans-serif" font-size="14" lengthAdjust="spacing" textLength="73.459" x="3237.6128" y="685.6436">ToolResult</text><line style="stroke:#444444;stroke-width:0.5;" x1="3182" x2="3335.6641" y1="696.7969" y2="696.7969"/><text fill="#000000" font-family="sans-serif" font-size="14" lengthAdjust="spacing" textLength="97.9932" x="3187" y="713.792">+ok : boolean</text><text fill="#000000" font-family="sans-serif" font-size="14" lengthAdjust="spacing" textLength="100.0234" x="3187" y="730.0889">+data : object</text><text fill="#000000" font-family="sans-serif" font-size="14" lengthAdjust="spacing" textLength="143.6641" x="3187" y="746.3857">+error : String [0..1]</text></g><!--class AnalyticsTool--><g id="elem_AnalyticsTool"><rect codeLine="525" fill="#FFFFFF" height="32" id="AnalyticsTool" rx="2.5" ry="2.5" style="stroke:#444444;stroke-width:0.5;" width="125.1465" x="2463.5" y="885.7969"/><ellipse cx="2478.5" cy="901.7969" fill="#ADD1B2" rx="11" ry="11" style="stroke:#181818;stroke-width:1.0;"/><path d="M2481.4688,907.4375 Q2480.8906,907.7344 2480.25,907.875 Q2479.6094,908.0313 2478.9063,908.0313 Q2476.4063,908.0313 2475.0781,906.3906 Q2473.7656,904.7344 2473.7656,901.6094 Q2473.7656,898.4844 2475.0781,896.8281 Q2476.4063,895.1719 2478.9063,895.1719 Q2479.6094,895.1719 2480.25,895.3281 Q2480.9063,895.4844 2481.4688,895.7813 L2481.4688,898.5 Q2480.8438,897.9219 2480.25,897.6563 Q2479.6563,897.375 2479.0313,897.375 Q2477.6875,897.375 2477,898.4531 Q2476.3125,899.5156 2476.3125,901.6094 Q2476.3125,903.7031 2477,904.7813 Q2477.6875,905.8438 2479.0313,905.8438 Q2479.6563,905.8438 2480.25,905.5781 Q2480.8438,905.2969 2481.4688,904.7188 L2481.4688,907.4375 Z " fill="#000000"/><text fill="#000000" font-family="sans-serif" font-size="14" lengthAdjust="spacing" textLength="93.1465" x="2492.5" y="906.6436">AnalyticsTool</text></g><!--class ExerciseDBTool--><g id="elem_ExerciseDBTool"><rect codeLine="526" fill="#FFFFFF" height="32" id="ExerciseDBTool" rx="2.5" ry="2.5" style="stroke:#444444;stroke-width:0.5;" width="140.9512" x="2628.5" y="885.7969"/><ellipse cx="2643.5" cy="901.7969" fill="#ADD1B2" rx="11" ry="11" style="stroke:#181818;stroke-width:1.0;"/><path d="M2646.4688,907.4375 Q2645.8906,907.7344 2645.25,907.875 Q2644.6094,908.0313 2643.9063,908.0313 Q2641.4063,908.0313 2640.0781,906.3906 Q2638.7656,904.7344 2638.7656,901.6094 Q2638.7656,898.4844 2640.0781,896.8281 Q2641.4063,895.1719 2643.9063,895.1719 Q2644.6094,895.1719 2645.25,895.3281 Q2645.9063,895.4844 2646.4688,895.7813 L2646.4688,898.5 Q2645.8438,897.9219 2645.25,897.6563 Q2644.6563,897.375 2644.0313,897.375 Q2642.6875,897.375 2642,898.4531 Q2641.3125,899.5156 2641.3125,901.6094 Q2641.3125,903.7031 2642,904.7813 Q2642.6875,905.8438 2644.0313,905.8438 Q2644.6563,905.8438 2645.25,905.5781 Q2645.8438,905.2969 2646.4688,904.7188 L2646.4688,907.4375 Z " fill="#000000"/><text fill="#000000" font-family="sans-serif" font-size="14" lengthAdjust="spacing" textLength="108.9512" x="2657.5" y="906.6436">ExerciseDBTool</text></g><!--class FoodDBTool--><g id="elem_FoodDBTool"><rect codeLine="527" fill="#FFFFFF" height="32" id="FoodDBTool" rx="2.5" ry="2.5" style="stroke:#444444;stroke-width:0.5;" width="116.0273" x="2810" y="885.7969"/><ellipse cx="2825" cy="901.7969" fill="#ADD1B2" rx="11" ry="11" style="stroke:#181818;stroke-width:1.0;"/><path d="M2827.9688,907.4375 Q2827.3906,907.7344 2826.75,907.875 Q2826.1094,908.0313 2825.4063,908.0313 Q2822.9063,908.0313 2821.5781,906.3906 Q2820.2656,904.7344 2820.2656,901.6094 Q2820.2656,898.4844 2821.5781,896.8281 Q2822.9063,895.1719 2825.4063,895.1719 Q2826.1094,895.1719 2826.75,895.3281 Q2827.4063,895.4844 2827.9688,895.7813 L2827.9688,898.5 Q2827.3438,897.9219 2826.75,897.6563 Q2826.1563,897.375 2825.5313,897.375 Q2824.1875,897.375 2823.5,898.4531 Q2822.8125,899.5156 2822.8125,901.6094 Q2822.8125,903.7031 2823.5,904.7813 Q2824.1875,905.8438 2825.5313,905.8438 Q2826.1563,905.8438 2826.75,905.5781 Q2827.3438,905.2969 2827.9688,904.7188 L2827.9688,907.4375 Z " fill="#000000"/><text fill="#000000" font-family="sans-serif" font-size="14" lengthAdjust="spacing" textLength="84.0273" x="2839" y="906.6436">FoodDBTool</text></g><!--class PlanLookupTool--><g id="elem_PlanLookupTool"><rect codeLine="528" fill="#FFFFFF" height="32" id="PlanLookupTool" rx="2.5" ry="2.5" style="stroke:#444444;stroke-width:0.5;" width="142.1543" x="2966" y="885.7969"/><ellipse cx="2981" cy="901.7969" fill="#ADD1B2" rx="11" ry="11" style="stroke:#181818;stroke-width:1.0;"/><path d="M2983.9688,907.4375 Q2983.3906,907.7344 2982.75,907.875 Q2982.1094,908.0313 2981.4063,908.0313 Q2978.9063,908.0313 2977.5781,906.3906 Q2976.2656,904.7344 2976.2656,901.6094 Q2976.2656,898.4844 2977.5781,896.8281 Q2978.9063,895.1719 2981.4063,895.1719 Q2982.1094,895.1719 2982.75,895.3281 Q2983.4063,895.4844 2983.9688,895.7813 L2983.9688,898.5 Q2983.3438,897.9219 2982.75,897.6563 Q2982.1563,897.375 2981.5313,897.375 Q2980.1875,897.375 2979.5,898.4531 Q2978.8125,899.5156 2978.8125,901.6094 Q2978.8125,903.7031 2979.5,904.7813 Q2980.1875,905.8438 2981.5313,905.8438 Q2982.1563,905.8438 2982.75,905.5781 Q2983.3438,905.2969 2983.9688,904.7188 L2983.9688,907.4375 Z " fill="#000000"/><text fill="#000000" font-family="sans-serif" font-size="14" lengthAdjust="spacing" textLength="110.1543" x="2995" y="906.6436">PlanLookupTool</text></g><!--class RecoveryLookupTool--><g id="elem_RecoveryLookupTool"><rect codeLine="529" fill="#FFFFFF" height="32" id="RecoveryLookupTool" rx="2.5" ry="2.5" style="stroke:#444444;stroke-width:0.5;" width="177.9131" x="3148" y="885.7969"/><ellipse cx="3163" cy="901.7969" fill="#ADD1B2" rx="11" ry="11" style="stroke:#181818;stroke-width:1.0;"/><path d="M3165.9688,907.4375 Q3165.3906,907.7344 3164.75,907.875 Q3164.1094,908.0313 3163.4063,908.0313 Q3160.9063,908.0313 3159.5781,906.3906 Q3158.2656,904.7344 3158.2656,901.6094 Q3158.2656,898.4844 3159.5781,896.8281 Q3160.9063,895.1719 3163.4063,895.1719 Q3164.1094,895.1719 3164.75,895.3281 Q3165.4063,895.4844 3165.9688,895.7813 L3165.9688,898.5 Q3165.3438,897.9219 3164.75,897.6563 Q3164.1563,897.375 3163.5313,897.375 Q3162.1875,897.375 3161.5,898.4531 Q3160.8125,899.5156 3160.8125,901.6094 Q3160.8125,903.7031 3161.5,904.7813 Q3162.1875,905.8438 3163.5313,905.8438 Q3164.1563,905.8438 3164.75,905.5781 Q3165.3438,905.2969 3165.9688,904.7188 L3165.9688,907.4375 Z " fill="#000000"/><text fill="#000000" font-family="sans-serif" font-size="14" lengthAdjust="spacing" textLength="145.9131" x="3177" y="906.6436">RecoveryLookupTool</text></g><!--class MemoryManager--><g id="elem_MemoryManager"><rect codeLine="531" fill="#FFFFFF" height="129.4844" id="MemoryManager" rx="2.5" ry="2.5" style="stroke:#444444;stroke-width:0.5;" width="376.2324" x="4154" y="644.7969"/><ellipse cx="4278.7148" cy="660.7969" fill="#ADD1B2" rx="11" ry="11" style="stroke:#181818;stroke-width:1.0;"/><path d="M4281.6836,666.4375 Q4281.1055,666.7344 4280.4648,666.875 Q4279.8242,667.0313 4279.1211,667.0313 Q4276.6211,667.0313 4275.293,665.3906 Q4273.9805,663.7344 4273.9805,660.6094 Q4273.9805,657.4844 4275.293,655.8281 Q4276.6211,654.1719 4279.1211,654.1719 Q4279.8242,654.1719 4280.4648,654.3281 Q4281.1211,654.4844 4281.6836,654.7813 L4281.6836,657.5 Q4281.0586,656.9219 4280.4648,656.6563 Q4279.8711,656.375 4279.2461,656.375 Q4277.9023,656.375 4277.2148,657.4531 Q4276.5273,658.5156 4276.5273,660.6094 Q4276.5273,662.7031 4277.2148,663.7813 Q4277.9023,664.8438 4279.2461,664.8438 Q4279.8711,664.8438 4280.4648,664.5781 Q4281.0586,664.2969 4281.6836,663.7188 L4281.6836,666.4375 Z " fill="#000000"/><text fill="#000000" font-family="sans-serif" font-size="14" lengthAdjust="spacing" textLength="118.3027" x="4299.2148" y="665.6436">MemoryManager</text><line style="stroke:#444444;stroke-width:0.5;" x1="4155" x2="4529.2324" y1="676.7969" y2="676.7969"/><text fill="#000000" font-family="sans-serif" font-size="14" lengthAdjust="spacing" textLength="209.1865" x="4160" y="693.792">-history : ConversationHistory</text><text fill="#000000" font-family="sans-serif" font-size="14" lengthAdjust="spacing" textLength="186.3955" x="4160" y="710.0889">-store : MemoryRepository</text><line style="stroke:#444444;stroke-width:0.5;" x1="4155" x2="4529.2324" y1="717.3906" y2="717.3906"/><text fill="#000000" font-family="sans-serif" font-size="14" lengthAdjust="spacing" textLength="364.2324" x="4160" y="734.3857">+remember(user : Message, reply : Message) : void</text><text fill="#000000" font-family="sans-serif" font-size="14" lengthAdjust="spacing" textLength="309.1006" x="4160" y="750.6826">+recall(query : String, k : int) : List&lt;String&gt;</text><text fill="#000000" font-family="sans-serif" font-size="14" lengthAdjust="spacing" textLength="221.04" x="4160" y="766.9795">+summarizeOlderTurns() : void</text></g><!--class ConversationHistory--><g id="elem_ConversationHistory"><rect codeLine="538" fill="#FFFFFF" height="113.1875" id="ConversationHistory" rx="2.5" ry="2.5" style="stroke:#444444;stroke-width:0.5;" width="324.7646" x="3850.5" y="845.2969"/><ellipse cx="3937.4497" cy="861.2969" fill="#ADD1B2" rx="11" ry="11" style="stroke:#181818;stroke-width:1.0;"/><path d="M3940.4185,866.9375 Q3939.8403,867.2344 3939.1997,867.375 Q3938.5591,867.5313 3937.856,867.5313 Q3935.356,867.5313 3934.0278,865.8906 Q3932.7153,864.2344 3932.7153,861.1094 Q3932.7153,857.9844 3934.0278,856.3281 Q3935.356,854.6719 3937.856,854.6719 Q3938.5591,854.6719 3939.1997,854.8281 Q3939.856,854.9844 3940.4185,855.2813 L3940.4185,858 Q3939.7935,857.4219 3939.1997,857.1563 Q3938.606,856.875 3937.981,856.875 Q3936.6372,856.875 3935.9497,857.9531 Q3935.2622,859.0156 3935.2622,861.1094 Q3935.2622,863.2031 3935.9497,864.2813 Q3936.6372,865.3438 3937.981,865.3438 Q3938.606,865.3438 3939.1997,865.0781 Q3939.7935,864.7969 3940.4185,864.2188 L3940.4185,866.9375 Z " fill="#000000"/><text fill="#000000" font-family="sans-serif" font-size="14" lengthAdjust="spacing" textLength="142.3652" x="3957.9497" y="866.1436">ConversationHistory</text><line style="stroke:#444444;stroke-width:0.5;" x1="3851.5" x2="4174.2646" y1="877.2969" y2="877.2969"/><text fill="#000000" font-family="sans-serif" font-size="14" lengthAdjust="spacing" textLength="312.7646" x="3856.5" y="894.292">-chatMemory : MessageWindowChatMemory</text><text fill="#000000" font-family="sans-serif" font-size="14" lengthAdjust="spacing" textLength="145.2158" x="3856.5" y="910.5889">-maxTurns : int = 20</text><line style="stroke:#444444;stroke-width:0.5;" x1="3851.5" x2="4174.2646" y1="917.8906" y2="917.8906"/><text fill="#000000" font-family="sans-serif" font-size="14" lengthAdjust="spacing" textLength="207.2383" x="3856.5" y="934.8857">+append(m : Message) : void</text><text fill="#000000" font-family="sans-serif" font-size="14" lengthAdjust="spacing" textLength="231.3486" x="3856.5" y="951.1826">+recent(n : int) : List&lt;Message&gt;</text></g><!--link Tool to ToolSchema--><g id="link_Tool_ToolSchema"><path codeLine="682" d="M3129.67,753.8369 C3129.67,802.0969 3129.67,872.2969 3129.67,872.2969 C3129.67,872.2969 3253.3,872.2969 3360.4,872.2969 " fill="none" id="Tool-to-ToolSchema" style="stroke:#444444;stroke-width:1.0;stroke-dasharray:7.0,7.0;"/><polygon fill="#444444" points="3366.4,872.2969,3357.4,868.2969,3361.4,872.2969,3357.4,876.2969,3366.4,872.2969" style="stroke:#444444;stroke-width:1.0;"/></g><!--reverse link CoachAgent to BlockGenerationAgent--><g id="link_CoachAgent_BlockGenerationAgent"><path codeLine="695" d="M3311,398.4569 C3311,436.6469 3311,455.6969 3311,479.9869 " fill="none" id="CoachAgent-backto-BlockGenerationAgent" style="stroke:#444444;stroke-width:1.0;"/><polygon fill="none" points="3311,380.4569,3305,398.4569,3317,398.4569,3311,380.4569" style="stroke:#444444;stroke-width:1.0;"/></g><!--reverse link CoachAgent to SubstitutionAgent--><g id="link_CoachAgent_SubstitutionAgent"><path codeLine="696" d="M3485.38,398.4569 C3485.38,443.8269 3485.38,469.5769 3485.38,492.2469 " fill="none" id="CoachAgent-backto-SubstitutionAgent" style="stroke:#444444;stroke-width:1.0;"/><polygon fill="none" points="3485.38,380.4569,3479.38,398.4569,3491.38,398.4569,3485.38,380.4569" style="stroke:#444444;stroke-width:1.0;"/></g><!--reverse link CoachAgent to AdjustmentAgent--><g id="link_CoachAgent_AdjustmentAgent"><path codeLine="697" d="M3558.7,362.2969 C3661.51,362.2969 3742,362.2969 3742,362.2969 C3742,362.2969 3742,454.0969 3742,492.1169 " fill="none" id="CoachAgent-backto-AdjustmentAgent" style="stroke:#444444;stroke-width:1.0;"/><polygon fill="none" points="3540.7,362.2969,3558.7,368.2969,3558.7,356.2969,3540.7,362.2969" style="stroke:#444444;stroke-width:1.0;"/></g><!--reverse link CoachAgent to AttemptRationaleAgent--><g id="link_CoachAgent_AttemptRationaleAgent"><path codeLine="698" d="M3558.88,343.2969 C3727.8,343.2969 3910,343.2969 3910,343.2969 C3910,343.2969 3910,450.6569 3910,492.1769 " fill="none" id="CoachAgent-backto-AttemptRationaleAgent" style="stroke:#444444;stroke-width:1.0;"/><polygon fill="none" points="3540.88,343.2969,3558.88,349.2969,3558.88,337.2969,3540.88,343.2969" style="stroke:#444444;stroke-width:1.0;"/></g><!--reverse link CoachAgent to MealSuggestionAgent--><g id="link_CoachAgent_MealSuggestionAgent"><path codeLine="699" d="M3558.54,325.2969 C3818.68,325.2969 4189,325.2969 4189,325.2969 C4189,325.2969 4189,447.2669 4189,492.0569 " fill="none" id="CoachAgent-backto-MealSuggestionAgent" style="stroke:#444444;stroke-width:1.0;"/><polygon fill="none" points="3540.54,325.2969,3558.54,331.2969,3558.54,319.2969,3540.54,325.2969" style="stroke:#444444;stroke-width:1.0;"/></g><!--reverse link CoachAgent to ChatAgent--><g id="link_CoachAgent_ChatAgent"><path codeLine="700" d="M3503.75,398.4869 C3503.75,454.3169 3503.75,486.2969 3503.75,486.2969 C3503.75,486.2969 4080.18,486.2969 4321.11,486.2969 " fill="none" id="CoachAgent-backto-ChatAgent" style="stroke:#444444;stroke-width:1.0;"/><polygon fill="none" points="3503.75,380.4869,3497.75,398.4869,3509.75,398.4869,3503.75,380.4869" style="stroke:#444444;stroke-width:1.0;"/></g><!--reverse link CoachAgent to LLMClient--><g id="link_CoachAgent_LLMClient"><path codeLine="701" d="M3069.32,307.2969 C2424.16,307.2969 654.25,307.2969 654.25,307.2969 C654.25,307.2969 654.25,418.5969 654.25,475.5569 " fill="none" id="CoachAgent-backto-LLMClient" style="stroke:#444444;stroke-width:1.0;"/><polygon fill="none" points="3081.32,307.2969,3075.32,303.2969,3069.32,307.2969,3075.32,311.2969,3081.32,307.2969" style="stroke:#444444;stroke-width:1.0;"/><text fill="#000000" font-family="sans-serif" font-size="13" lengthAdjust="spacing" textLength="6.5" x="3066.9682" y="306.8868">*</text><text fill="#000000" font-family="sans-serif" font-size="13" lengthAdjust="spacing" textLength="8.271" x="675.4379" y="464.7577">1</text></g><!--reverse link CoachAgent to ToolManager--><g id="link_CoachAgent_ToolManager"><path codeLine="702" d="M3130.83,392.4569 C3130.83,414.6269 3130.83,424.4169 3130.83,443.5369 " fill="none" id="CoachAgent-backto-ToolManager" style="stroke:#444444;stroke-width:1.0;"/><polygon fill="#444444" points="3130.83,380.4569,3126.83,386.4569,3130.83,392.4569,3134.83,386.4569,3130.83,380.4569" style="stroke:#444444;stroke-width:1.0;"/><text fill="#000000" font-family="sans-serif" font-size="13" lengthAdjust="spacing" textLength="8.271" x="3113.9174" y="400.1947">1</text><text fill="#000000" font-family="sans-serif" font-size="13" lengthAdjust="spacing" textLength="8.271" x="3134.5133" y="432.6811">1</text></g><!--link CoachAgent to PromptBuilder--><g id="link_CoachAgent_PromptBuilder"><path codeLine="703" d="M3106.17,380.5369 C3106.17,414.2769 3106.17,440.2969 3106.17,440.2969 C3106.17,440.2969 1950.25,440.2969 1481.06,440.2969 " fill="none" id="CoachAgent-to-PromptBuilder" style="stroke:#444444;stroke-width:1.0;"/><polygon fill="#444444" points="1475.06,440.2969,1484.06,444.2969,1480.06,440.2969,1484.06,436.2969,1475.06,440.2969" style="stroke:#444444;stroke-width:1.0;"/></g><!--link CoachAgent to ResponseParser--><g id="link_CoachAgent_ResponseParser"><path codeLine="704" d="M3081.12,344.2969 C2656.48,344.2969 1792,344.2969 1792,344.2969 C1792,344.2969 1792,401.5569 1792,449.5069 " fill="none" id="CoachAgent-to-ResponseParser" style="stroke:#444444;stroke-width:1.0;"/><polygon fill="#444444" points="1792,455.5069,1796,446.5069,1792,450.5069,1788,446.5069,1792,455.5069" style="stroke:#444444;stroke-width:1.0;"/></g><!--link CoachAgent to PlanValidator--><g id="link_CoachAgent_PlanValidator"><path codeLine="705" d="M3081.45,362.2969 C2834.57,362.2969 2477,362.2969 2477,362.2969 C2477,362.2969 2477,407.7669 2477,449.5869 " fill="none" id="CoachAgent-to-PlanValidator" style="stroke:#444444;stroke-width:1.0;"/><polygon fill="#444444" points="2477,455.5869,2481,446.5869,2477,450.5869,2473,446.5869,2477,455.5869" style="stroke:#444444;stroke-width:1.0;"/></g><!--link CoachAgent to AgentRequest--><g id="link_CoachAgent_AgentRequest"><path codeLine="706" d="M3522.12,380.6369 C3522.12,431.8169 3522.12,476.2969 3522.12,476.2969 C3522.12,476.2969 4265.84,476.2969 4562.35,476.2969 " fill="none" id="CoachAgent-to-AgentRequest" style="stroke:#444444;stroke-width:1.0;stroke-dasharray:7.0,7.0;"/><polygon fill="#444444" points="4568.35,476.2969,4559.35,472.2969,4563.35,476.2969,4559.35,480.2969,4568.35,476.2969" style="stroke:#444444;stroke-width:1.0;"/></g><!--link CoachAgent to AgentContext--><g id="link_CoachAgent_AgentContext"><path codeLine="707" d="M3540.81,306.2969 C3972.16,306.2969 4860,306.2969 4860,306.2969 C4860,306.2969 4860,407.5069 4860,465.7169 " fill="none" id="CoachAgent-to-AgentContext" style="stroke:#444444;stroke-width:1.0;stroke-dasharray:7.0,7.0;"/><polygon fill="#444444" points="4860,471.7169,4864,462.7169,4860,466.7169,4856,462.7169,4860,471.7169" style="stroke:#444444;stroke-width:1.0;"/></g><!--link CoachAgent to AgentResult--><g id="link_CoachAgent_AgentResult"><path codeLine="708" d="M3081.42,325.2969 C2490.66,325.2969 964,325.2969 964,325.2969 C964,325.2969 964,395.3169 964,449.3669 " fill="none" id="CoachAgent-to-AgentResult" style="stroke:#444444;stroke-width:1.0;stroke-dasharray:7.0,7.0;"/><polygon fill="#444444" points="964,455.3669,968,446.3669,964,450.3669,960,446.3669,964,455.3669" style="stroke:#444444;stroke-width:1.0;"/></g><!--link PlanValidator to ValidationReport--><g id="link_PlanValidator_ValidationReport"><path codeLine="711" d="M2477,560.8469 C2477,595.9769 2477,635.3069 2477,666.5869 " fill="none" id="PlanValidator-to-ValidationReport" style="stroke:#444444;stroke-width:1.0;stroke-dasharray:7.0,7.0;"/><polygon fill="#444444" points="2477,672.5869,2481,663.5869,2477,667.5869,2473,663.5869,2477,672.5869" style="stroke:#444444;stroke-width:1.0;"/></g><!--link ChatAgent to MemoryManager--><g id="link_ChatAgent_MemoryManager"><path codeLine="712" d="M4425,536.6669 C4425,564.5869 4425,602.2069 4425,638.6069 " fill="none" id="ChatAgent-to-MemoryManager" style="stroke:#444444;stroke-width:1.0;"/><polygon fill="#444444" points="4425,644.6069,4429,635.6069,4425,639.6069,4421,635.6069,4425,644.6069" style="stroke:#444444;stroke-width:1.0;"/><text fill="#000000" font-family="sans-serif" font-size="13" lengthAdjust="spacing" textLength="8.271" x="4425.6427" y="633.7588">1</text></g><!--reverse link LLMClient to ClaudeClient--><g id="link_LLMClient_ClaudeClient"><path codeLine="713" d="M330.25,559.0369 C330.25,584.7369 330.25,603.4969 330.25,636.1069 " fill="none" id="LLMClient-backto-ClaudeClient" style="stroke:#444444;stroke-width:1.0;stroke-dasharray:7.0,7.0;"/><polygon fill="none" points="330.25,541.0369,324.25,559.0369,336.25,559.0369,330.25,541.0369" style="stroke:#444444;stroke-width:1.0;"/></g><!--reverse link LLMClient to ScriptedLLMClient--><g id="link_LLMClient_ScriptedLLMClient"><path codeLine="714" d="M658,559.0369 C658,597.9769 658,644.3069 658,681.1169 " fill="none" id="LLMClient-backto-ScriptedLLMClient" style="stroke:#444444;stroke-width:1.0;stroke-dasharray:7.0,7.0;"/><polygon fill="none" points="658,541.0369,652,559.0369,664,559.0369,658,541.0369" style="stroke:#444444;stroke-width:1.0;"/></g><!--reverse link LLMClient to LLMClientDecorator--><g id="link_LLMClient_LLMClientDecorator"><path codeLine="715" d="M825.5,559.0369 C825.5,592.6369 825.5,627.1369 825.5,664.5569 " fill="none" id="LLMClient-backto-LLMClientDecorator" style="stroke:#444444;stroke-width:1.0;stroke-dasharray:7.0,7.0;"/><polygon fill="none" points="825.5,541.0369,819.5,559.0369,831.5,559.0369,825.5,541.0369" style="stroke:#444444;stroke-width:1.0;"/></g><!--reverse link LLMClientDecorator to LLMClient--><g id="link_LLMClientDecorator_LLMClient"><path codeLine="718" d="M830,652.6869 C830,615.2169 830,574.5469 830,540.9169 " fill="none" id="LLMClientDecorator-backto-LLMClient" style="stroke:#444444;stroke-width:1.0;"/><polygon fill="none" points="830,664.6869,834,658.6869,830,652.6869,826,658.6869,830,664.6869" style="stroke:#444444;stroke-width:1.0;"/><polygon fill="#000000" points="782,589.3633,779.0611,598.4084,784.9389,598.4084,782,589.3633" style="stroke:#000000;stroke-width:1.0;"/><text fill="#000000" font-family="sans-serif" font-size="13" lengthAdjust="spacing" textLength="38.9683" x="791" y="598.8638">wraps</text><text fill="#000000" font-family="sans-serif" font-size="13" lengthAdjust="spacing" textLength="8.271" x="804.8816" y="659.0739">1</text><text fill="#000000" font-family="sans-serif" font-size="13" lengthAdjust="spacing" textLength="8.271" x="846.8067" y="556.0773">1</text></g><!--reverse link LLMClientDecorator to CachingLLMClient--><g id="link_LLMClientDecorator_CachingLLMClient"><path codeLine="716" d="M979.75,771.9469 C979.75,796.5969 979.75,809.6769 979.75,836.9569 " fill="none" id="LLMClientDecorator-backto-CachingLLMClient" style="stroke:#444444;stroke-width:1.0;"/><polygon fill="none" points="979.75,753.9469,973.75,771.9469,985.75,771.9469,979.75,753.9469" style="stroke:#444444;stroke-width:1.0;"/></g><!--reverse link LLMClientDecorator to RecordingLLMClient--><g id="link_LLMClientDecorator_RecordingLLMClient"><path codeLine="717" d="M1336.75,771.9469 C1336.75,804.2669 1336.75,829.6069 1336.75,861.0069 " fill="none" id="LLMClientDecorator-backto-RecordingLLMClient" style="stroke:#444444;stroke-width:1.0;"/><polygon fill="none" points="1336.75,753.9469,1330.75,771.9469,1342.75,771.9469,1336.75,753.9469" style="stroke:#444444;stroke-width:1.0;"/></g><!--link LLMClientProvider to LLMClient--><g id="link_LLMClientProvider_LLMClient"><path codeLine="719" d="M332,270.5869 C332,326.1869 332,418.6669 332,469.6569 " fill="none" id="LLMClientProvider-to-LLMClient" style="stroke:#444444;stroke-width:1.0;stroke-dasharray:7.0,7.0;"/><polygon fill="#444444" points="332,475.6569,336,466.6569,332,470.6569,328,466.6569,332,475.6569" style="stroke:#444444;stroke-width:1.0;"/><text fill="#000000" font-family="sans-serif" font-size="13" lengthAdjust="spacing" textLength="48.3247" x="283" y="369.1938">creates</text></g><!--link LLMClientProvider to ModelTier--><g id="link_LLMClientProvider_ModelTier"><path codeLine="720" d="M194.18,230.2969 C125.61,230.2969 57.17,230.2969 57.17,230.2969 C57.17,230.2969 57.17,390.1769 57.17,465.6669 " fill="none" id="LLMClientProvider-to-ModelTier" style="stroke:#444444;stroke-width:1.0;"/><polygon fill="#444444" points="57.17,471.6669,61.17,462.6669,57.17,466.6669,53.17,462.6669,57.17,471.6669" style="stroke:#444444;stroke-width:1.0;"/></g><!--link CoachAgent to ModelTier--><g id="link_CoachAgent_ModelTier"><path codeLine="721" d="M3081.35,289.2969 C2345,289.2969 90.83,289.2969 90.83,289.2969 C90.83,289.2969 90.83,403.2969 90.83,465.6369 " fill="none" id="CoachAgent-to-ModelTier" style="stroke:#444444;stroke-width:1.0;"/><polygon fill="#444444" points="90.83,471.6369,94.83,462.6369,90.83,466.6369,86.83,462.6369,90.83,471.6369" style="stroke:#444444;stroke-width:1.0;"/></g><!--link LLMClient to LLMResponse--><g id="link_LLMClient_LLMResponse"><path codeLine="722" d="M834.5,540.8069 C834.5,570.3369 834.5,609.2969 834.5,609.2969 C834.5,609.2969 1984.25,609.2969 1984.25,609.2969 C1984.25,609.2969 1984.25,631.9369 1984.25,658.5569 " fill="none" id="LLMClient-to-LLMResponse" style="stroke:#444444;stroke-width:1.0;stroke-dasharray:7.0,7.0;"/><polygon fill="#444444" points="1984.25,664.5569,1988.25,655.5569,1984.25,659.5569,1980.25,655.5569,1984.25,664.5569" style="stroke:#444444;stroke-width:1.0;"/></g><!--link LLMClient to Message--><g id="link_LLMClient_Message"><path codeLine="723" d="M515.5,541.0569 C515.5,659.4569 515.5,1058.2969 515.5,1058.2969 C515.5,1058.2969 2375.32,1058.2969 2754.31,1058.2969 " fill="none" id="LLMClient-to-Message" style="stroke:#444444;stroke-width:1.0;stroke-dasharray:7.0,7.0;"/><polygon fill="#444444" points="2760.31,1058.2969,2751.31,1054.2969,2755.31,1058.2969,2751.31,1062.2969,2760.31,1058.2969" style="stroke:#444444;stroke-width:1.0;"/></g><!--reverse link LLMResponse to ToolCall--><g id="link_LLMResponse_ToolCall"><path codeLine="724" d="M2052,765.9469 C2052,796.9269 2052,826.0469 2052,857.0569 " fill="none" id="LLMResponse-backto-ToolCall" style="stroke:#444444;stroke-width:1.0;"/><polygon fill="#444444" points="2052,753.9469,2048,759.9469,2052,765.9469,2056,759.9469,2052,753.9469" style="stroke:#444444;stroke-width:1.0;"/><text fill="#000000" font-family="sans-serif" font-size="13" lengthAdjust="spacing" textLength="8.271" x="2051.0754" y="773.6911">1</text><text fill="#000000" font-family="sans-serif" font-size="13" lengthAdjust="spacing" textLength="23.0356" x="2014.5605" y="846.1431">0..*</text></g><!--reverse link ToolManager to Tool--><g id="link_ToolManager_Tool"><path codeLine="725" d="M3012.5,584.9969 C3012.5,614.9569 3012.5,637.7869 3012.5,664.7369 " fill="none" id="ToolManager-backto-Tool" style="stroke:#444444;stroke-width:1.0;"/><polygon fill="none" points="3012.5,572.9969,3008.5,578.9969,3012.5,584.9969,3016.5,578.9969,3012.5,572.9969" style="stroke:#444444;stroke-width:1.0;"/><text fill="#000000" font-family="sans-serif" font-size="13" lengthAdjust="spacing" textLength="8.271" x="3003.169" y="593.3916">1</text><text fill="#000000" font-family="sans-serif" font-size="13" lengthAdjust="spacing" textLength="6.5" x="3014.8582" y="653.8506">*</text></g><!--link ToolManager to ToolCall--><g id="link_ToolManager_ToolCall"><path codeLine="726" d="M2884.47,567.2969 C2648.72,567.2969 2188,567.2969 2188,567.2969 C2188,567.2969 2188,759.8869 2188,851.0269 " fill="none" id="ToolManager-to-ToolCall" style="stroke:#444444;stroke-width:1.0;stroke-dasharray:7.0,7.0;"/><polygon fill="#444444" points="2188,857.0269,2192,848.0269,2188,852.0269,2184,848.0269,2188,857.0269" style="stroke:#444444;stroke-width:1.0;"/></g><!--link ToolManager to ToolResult--><g id="link_ToolManager_ToolResult"><path codeLine="727" d="M3155.81,559.2969 C3174.94,559.2969 3188.25,559.2969 3188.25,559.2969 C3188.25,559.2969 3188.25,614.4869 3188.25,658.6969 " fill="none" id="ToolManager-to-ToolResult" style="stroke:#444444;stroke-width:1.0;stroke-dasharray:7.0,7.0;"/><polygon fill="#444444" points="3188.25,664.6969,3192.25,655.6969,3188.25,659.6969,3184.25,655.6969,3188.25,664.6969" style="stroke:#444444;stroke-width:1.0;"/></g><!--reverse link Tool to AnalyticsTool--><g id="link_Tool_AnalyticsTool"><path codeLine="728" d="M2751.45,750.2969 C2654.99,750.2969 2575,750.2969 2575,750.2969 C2575,750.2969 2575,846.4969 2575,885.5869 " fill="none" id="Tool-backto-AnalyticsTool" style="stroke:#444444;stroke-width:1.0;stroke-dasharray:7.0,7.0;"/><polygon fill="none" points="2769.45,750.2969,2751.45,744.2969,2751.45,756.2969,2769.45,750.2969" style="stroke:#444444;stroke-width:1.0;"/></g><!--reverse link Tool to ExerciseDBTool--><g id="link_Tool_ExerciseDBTool"><path codeLine="729" d="M2789.75,772.0569 C2789.75,829.0769 2789.75,902.2969 2789.75,902.2969 C2789.75,902.2969 2781.33,902.2969 2769.61,902.2969 " fill="none" id="Tool-backto-ExerciseDBTool" style="stroke:#444444;stroke-width:1.0;stroke-dasharray:7.0,7.0;"/><polygon fill="none" points="2789.75,754.0569,2783.75,772.0569,2795.75,772.0569,2789.75,754.0569" style="stroke:#444444;stroke-width:1.0;"/></g><!--reverse link Tool to FoodDBTool--><g id="link_Tool_FoodDBTool"><path codeLine="730" d="M2868,771.9469 C2868,813.9269 2868,856.5069 2868,885.3469 " fill="none" id="Tool-backto-FoodDBTool" style="stroke:#444444;stroke-width:1.0;stroke-dasharray:7.0,7.0;"/><polygon fill="none" points="2868,753.9469,2862,771.9469,2874,771.9469,2868,753.9469" style="stroke:#444444;stroke-width:1.0;"/></g><!--reverse link Tool to PlanLookupTool--><g id="link_Tool_PlanLookupTool"><path codeLine="731" d="M3037,771.9469 C3037,813.9269 3037,856.5069 3037,885.3469 " fill="none" id="Tool-backto-PlanLookupTool" style="stroke:#444444;stroke-width:1.0;stroke-dasharray:7.0,7.0;"/><polygon fill="none" points="3037,753.9469,3031,771.9469,3043,771.9469,3037,753.9469" style="stroke:#444444;stroke-width:1.0;"/></g><!--reverse link Tool to RecoveryLookupTool--><g id="link_Tool_RecoveryLookupTool"><path codeLine="732" d="M3118.83,772.0569 C3118.83,829.0769 3118.83,902.2969 3118.83,902.2969 C3118.83,902.2969 3131.11,902.2969 3147.74,902.2969 " fill="none" id="Tool-backto-RecoveryLookupTool" style="stroke:#444444;stroke-width:1.0;stroke-dasharray:7.0,7.0;"/><polygon fill="none" points="3118.83,754.0569,3112.83,772.0569,3124.83,772.0569,3118.83,754.0569" style="stroke:#444444;stroke-width:1.0;"/></g><!--reverse link MemoryManager to ConversationHistory--><g id="link_MemoryManager_ConversationHistory"><path codeLine="739" d="M4164.75,785.9369 C4164.75,808.9769 4164.75,822.7469 4164.75,845.0769 " fill="none" id="MemoryManager-backto-ConversationHistory" style="stroke:#444444;stroke-width:1.0;"/><polygon fill="#444444" points="4164.75,773.9369,4160.75,779.9369,4164.75,785.9369,4168.75,779.9369,4164.75,773.9369" style="stroke:#444444;stroke-width:1.0;"/><text fill="#000000" font-family="sans-serif" font-size="13" lengthAdjust="spacing" textLength="8.271" x="4174.7879" y="834.3136">1</text></g><!--reverse link ConversationHistory to Message--><g id="link_ConversationHistory_Message"><path codeLine="740" d="M3838.31,952.2969 C3518.72,952.2969 2851.75,952.2969 2851.75,952.2969 C2851.75,952.2969 2851.75,990.7269 2851.75,1021.1969 " fill="none" id="ConversationHistory-backto-Message" style="stroke:#444444;stroke-width:1.0;"/><polygon fill="#444444" points="3850.31,952.2969,3844.31,948.2969,3838.31,952.2969,3844.31,956.2969,3850.31,952.2969" style="stroke:#444444;stroke-width:1.0;"/><text fill="#000000" font-family="sans-serif" font-size="13" lengthAdjust="spacing" textLength="8.271" x="3834.2482" y="951.4453">1</text><text fill="#000000" font-family="sans-serif" font-size="13" lengthAdjust="spacing" textLength="23.0356" x="2831.2212" y="1010.1825">0..*</text></g><!--SRC=[KypCIyufJKbLoCrFIStHoopDpU4goIp9ILK8BiWlAKajKdZKC4N1CJqrhqJ19x4ojOYhA3KtlonLGQMWABKOpaaiA82pK_9puUpClBIYH000]--></g></svg>