<svg xmlns="http://www.w3.org/2000/svg" xmlns:xlink="http://www.w3.org/1999/xlink" contentStyleType="text/css" height="1116px" preserveAspectRatio="none" style="width:5407px;height:1116px;background:#FFFFFF;" version="1.1" viewBox="0 0 5407 1116" width="5407px" zoomAndPan="magnify"><title>Spotter &#8212; Agent Layer</title><defs/><g><text fill="#000000" font-family="sans-serif" font-size="14" font-weight="bold" lengthAdjust="spacing" textLength="179.0332" x="2606.9834" y="22.9951">Spotter &#8212; Agent Layer</text><!--cluster agent--><g id="cluster_agent"><rect fill="#F7F7F7" height="1066" rx="2.5" ry="2.5" style="stroke:#999999;stroke-width:1.5;" width="5394" x="7" y="44.2969"/><text fill="#000000" font-family="sans-serif" font-size="14" font-weight="bold" lengthAdjust="spacing" textLength="45.623" x="2681.1885" y="59.292">agent</text></g><g id="elem_N_COST"><path d="M4754,171.7969 L4754,287.7266 L5095.7217,287.7266 L5095.7217,181.7969 L5085.7217,171.7969 L4754,171.7969 " fill="#FEFFDD" style="stroke:#181818;stroke-width:0.5;"/><path d="M5085.7217,171.7969 L5085.7217,181.7969 L5095.7217,181.7969 L5085.7217,171.7969 " fill="#FEFFDD" style="stroke:#181818;stroke-width:1.0;"/><text fill="#000000" font-family="sans-serif" font-size="13" lengthAdjust="spacing" textLength="283.1436" x="4760" y="188.8638">Cost and latency are design concerns here:</text><text fill="#000000" font-family="sans-serif" font-size="13" lengthAdjust="spacing" textLength="320.7217" x="4760" y="203.9966">each agent declares a ModelTier, so simple tasks</text><text fill="#000000" font-family="sans-serif" font-size="13" lengthAdjust="spacing" textLength="319.4521" x="4760" y="219.1294">(substitution, rationale, meal) use the fast model</text><text fill="#000000" font-family="sans-serif" font-size="13" lengthAdjust="spacing" textLength="320.5186" x="4760" y="234.2622">and only block generation uses the stronger one.</text><text fill="#000000" font-family="sans-serif" font-size="13" lengthAdjust="spacing" textLength="304.0654" x="4760" y="249.395">CachingLLMClient returns a stored reply for an</text><text fill="#000000" font-family="sans-serif" font-size="13" lengthAdjust="spacing" textLength="311.9048" x="4760" y="264.5278">identical request, which matters most when the</text><text fill="#000000" font-family="sans-serif" font-size="13" lengthAdjust="spacing" textLength="266.9634" x="4760" y="279.6606">Stage 3 suites rerun the same scenarios.</text></g><g id="elem_N_LC4J"><path d="M3969.5,179.2969 L3969.5,280.0938 L4310.6631,280.0938 L4310.6631,189.2969 L4300.6631,179.2969 L3969.5,179.2969 " fill="#FEFFDD" style="stroke:#181818;stroke-width:0.5;"/><path d="M4300.6631,179.2969 L4300.6631,189.2969 L4310.6631,189.2969 L4300.6631,179.2969 " fill="#FEFFDD" style="stroke:#181818;stroke-width:1.0;"/><text fill="#000000" font-family="sans-serif" font-size="13" lengthAdjust="spacing" textLength="284.0259" x="3975.5" y="196.3638">ClaudeClient and ConversationHistory wrap</text><text fill="#000000" font-family="sans-serif" font-size="13" lengthAdjust="spacing" textLength="266.189" x="3975.5" y="211.4966">LangChain4j types (AnthropicChatModel,</text><text fill="#000000" font-family="sans-serif" font-size="13" lengthAdjust="spacing" textLength="320.1631" x="3975.5" y="226.6294">ToolSpecification, MessageWindowChatMemory).</text><text fill="#000000" font-family="sans-serif" font-size="13" lengthAdjust="spacing" textLength="284.1021" x="3975.5" y="241.7622">The rest of the system depends only on the</text><text fill="#000000" font-family="sans-serif" font-size="13" lengthAdjust="spacing" textLength="240.8618" x="3975.5" y="256.895">LLMClient and Tool interfaces, so the</text><text fill="#000000" font-family="sans-serif" font-size="13" lengthAdjust="spacing" textLength="192.8545" x="3975.5" y="272.0278">framework stays replaceable.</text></g><!--class CoachAgent--><g id="elem_CoachAgent"><rect codeLine="449" fill="#FFFFFF" height="300.7188" id="CoachAgent" rx="2.5" ry="2.5" style="stroke:#444444;stroke-width:0.5;" width="458.9336" x="2663.5" y="79.2969"/><ellipse cx="2830.5029" cy="99.4297" fill="#A9DCDF" rx="11" ry="11" style="stroke:#181818;stroke-width:1.0;"/><path d="M2830.6123,94.7734 L2829.4561,99.8516 L2831.7842,99.8516 L2830.6123,94.7734 Z M2829.1279,92.5391 L2832.1123,92.5391 L2835.4717,104.9297 L2833.0186,104.9297 L2832.2529,101.8672 L2828.9717,101.8672 L2828.2217,104.9297 L2825.7842,104.9297 L2829.1279,92.5391 Z " fill="#000000"/><text fill="#000000" font-family="sans-serif" font-size="12" font-style="italic" lengthAdjust="spacing" textLength="120.4277" x="2849.0029" y="95.4355">&#171;Template Method&#187;</text><text fill="#000000" font-family="sans-serif" font-size="14" font-style="italic" lengthAdjust="spacing" textLength="84.9297" x="2866.752" y="111.2607">CoachAgent</text><line style="stroke:#444444;stroke-width:0.5;" x1="2664.5" x2="3121.4336" y1="119.5625" y2="119.5625"/><text fill="#000000" font-family="sans-serif" font-size="14" lengthAdjust="spacing" textLength="114.9736" x="2669.5" y="136.5576">#llm : LLMClient</text><text fill="#000000" font-family="sans-serif" font-size="14" lengthAdjust="spacing" textLength="150.0898" x="2669.5" y="152.8545">#tools : ToolManager</text><text fill="#000000" font-family="sans-serif" font-size="14" lengthAdjust="spacing" textLength="184.1533" x="2669.5" y="169.1514">#prompts : PromptBuilder</text><text fill="#000000" font-family="sans-serif" font-size="14" lengthAdjust="spacing" textLength="182.54" x="2669.5" y="185.4482">#parser : ResponseParser</text><text fill="#000000" font-family="sans-serif" font-size="14" lengthAdjust="spacing" textLength="180.2637" x="2669.5" y="201.7451">#validator : PlanValidator</text><text fill="#000000" font-family="sans-serif" font-size="14" lengthAdjust="spacing" textLength="117.9404" x="2669.5" y="218.042">#tier : ModelTier</text><text fill="#000000" font-family="sans-serif" font-size="14" lengthAdjust="spacing" textLength="153.0225" x="2669.5" y="234.3389">#maxRetries : int = 1</text><text fill="#000000" font-family="sans-serif" font-size="14" lengthAdjust="spacing" textLength="185.4316" x="2669.5" y="250.6357">#maxToolRounds : int = 5</text><line style="stroke:#444444;stroke-width:0.5;" x1="2664.5" x2="3121.4336" y1="257.9375" y2="257.9375"/><text fill="#000000" font-family="sans-serif" font-size="14" lengthAdjust="spacing" textLength="333.334" x="2669.5" y="274.9326">+run(req : AgentRequest) : AgentResult {final}</text><text fill="#000000" font-family="sans-serif" font-size="14" font-style="italic" lengthAdjust="spacing" textLength="209.4941" x="2669.5" y="291.2295">#createToolset() : List&lt;Tool&gt;</text><text fill="#000000" font-family="sans-serif" font-size="14" font-style="italic" lengthAdjust="spacing" textLength="369.8994" x="2669.5" y="307.5264">#gatherContext(req : AgentRequest) : AgentContext</text><text fill="#000000" font-family="sans-serif" font-size="14" font-style="italic" lengthAdjust="spacing" textLength="362.3867" x="2669.5" y="323.8232">#buildPrompt(ctx : AgentContext) : List&lt;Message&gt;</text><text fill="#000000" font-family="sans-serif" font-size="14" font-style="italic" lengthAdjust="spacing" textLength="199.7256" x="2669.5" y="340.1201">#parse(raw : String) : object</text><text fill="#000000" font-family="sans-serif" font-size="14" font-style="italic" lengthAdjust="spacing" textLength="446.9336" x="2669.5" y="356.417">#validate(result : object, ctx : AgentContext) : ValidationReport</text><text fill="#000000" font-family="sans-serif" font-size="14" lengthAdjust="spacing" textLength="345.4883" x="2669.5" y="372.7139">-toolLoop(msgs : List&lt;Message&gt;) : LLMResponse</text></g><!--class BlockGenerationAgent--><g id="elem_BlockGenerationAgent"><rect codeLine="466" fill="#FFFFFF" height="56.2969" id="BlockGenerationAgent" rx="2.5" ry="2.5" style="stroke:#444444;stroke-width:0.5;" width="230.9824" x="2015.5" y="480.2969"/><ellipse cx="2049.2102" cy="496.2969" fill="#ADD1B2" rx="11" ry="11" style="stroke:#181818;stroke-width:1.0;"/><path d="M2052.1789,501.9375 Q2051.6008,502.2344 2050.9602,502.375 Q2050.3195,502.5313 2049.6164,502.5313 Q2047.1164,502.5313 2045.7883,500.8906 Q2044.4758,499.2344 2044.4758,496.1094 Q2044.4758,492.9844 2045.7883,491.3281 Q2047.1164,489.6719 2049.6164,489.6719 Q2050.3195,489.6719 2050.9602,489.8281 Q2051.6164,489.9844 2052.1789,490.2813 L2052.1789,493 Q2051.5539,492.4219 2050.9602,492.1563 Q2050.3664,491.875 2049.7414,491.875 Q2048.3977,491.875 2047.7102,492.9531 Q2047.0227,494.0156 2047.0227,496.1094 Q2047.0227,498.2031 2047.7102,499.2813 Q2048.3977,500.3438 2049.7414,500.3438 Q2050.3664,500.3438 2050.9602,500.0781 Q2051.5539,499.7969 2052.1789,499.2188 L2052.1789,501.9375 Z " fill="#000000"/><text fill="#000000" font-family="sans-serif" font-size="14" lengthAdjust="spacing" textLength="157.4043" x="2067.368" y="501.1436">BlockGenerationAgent</text><line style="stroke:#444444;stroke-width:0.5;" x1="2016.5" x2="2245.4824" y1="512.2969" y2="512.2969"/><text fill="#000000" font-family="sans-serif" font-size="14" lengthAdjust="spacing" textLength="218.9824" x="2021.5" y="529.292">-strategy : ProgressionStrategy</text></g><!--class SubstitutionAgent--><g id="elem_SubstitutionAgent"><rect codeLine="469" fill="#FFFFFF" height="32" id="SubstitutionAgent" rx="2.5" ry="2.5" style="stroke:#444444;stroke-width:0.5;" width="157.9385" x="2287" y="492.2969"/><ellipse cx="2302" cy="508.2969" fill="#ADD1B2" rx="11" ry="11" style="stroke:#181818;stroke-width:1.0;"/><path d="M2304.9688,513.9375 Q2304.3906,514.2344 2303.75,514.375 Q2303.1094,514.5313 2302.4063,514.5313 Q2299.9063,514.5313 2298.5781,512.8906 Q2297.2656,511.2344 2297.2656,508.1094 Q2297.2656,504.9844 2298.5781,503.3281 Q2299.9063,501.6719 2302.4063,501.6719 Q2303.1094,501.6719 2303.75,501.8281 Q2304.4063,501.9844 2304.9688,502.2813 L2304.9688,505 Q2304.3438,504.4219 2303.75,504.1563 Q2303.1563,503.875 2302.5313,503.875 Q2301.1875,503.875 2300.5,504.9531 Q2299.8125,506.0156 2299.8125,508.1094 Q2299.8125,510.2031 2300.5,511.2813 Q2301.1875,512.3438 2302.5313,512.3438 Q2303.1563,512.3438 2303.75,512.0781 Q2304.3438,511.7969 2304.9688,511.2188 L2304.9688,513.9375 Z " fill="#000000"/><text fill="#000000" font-family="sans-serif" font-size="14" lengthAdjust="spacing" textLength="125.9385" x="2316" y="513.1436">SubstitutionAgent</text></g><!--class AdjustmentAgent--><g id="elem_AdjustmentAgent"><rect codeLine="470" fill="#FFFFFF" height="32" id="AdjustmentAgent" rx="2.5" ry="2.5" style="stroke:#444444;stroke-width:0.5;" width="154.0625" x="2485" y="492.2969"/><ellipse cx="2500" cy="508.2969" fill="#ADD1B2" rx="11" ry="11" style="stroke:#181818;stroke-width:1.0;"/><path d="M2502.9688,513.9375 Q2502.3906,514.2344 2501.75,514.375 Q2501.1094,514.5313 2500.4063,514.5313 Q2497.9063,514.5313 2496.5781,512.8906 Q2495.2656,511.2344 2495.2656,508.1094 Q2495.2656,504.9844 2496.5781,503.3281 Q2497.9063,501.6719 2500.4063,501.6719 Q2501.1094,501.6719 2501.75,501.8281 Q2502.4063,501.9844 2502.9688,502.2813 L2502.9688,505 Q2502.3438,504.4219 2501.75,504.1563 Q2501.1563,503.875 2500.5313,503.875 Q2499.1875,503.875 2498.5,504.9531 Q2497.8125,506.0156 2497.8125,508.1094 Q2497.8125,510.2031 2498.5,511.2813 Q2499.1875,512.3438 2500.5313,512.3438 Q2501.1563,512.3438 2501.75,512.0781 Q2502.3438,511.7969 2502.9688,511.2188 L2502.9688,513.9375 Z " fill="#000000"/><text fill="#000000" font-family="sans-serif" font-size="14" lengthAdjust="spacing" textLength="122.0625" x="2514" y="513.1436">AdjustmentAgent</text></g><!--class AttemptRationaleAgent--><g id="elem_AttemptRationaleAgent"><rect codeLine="471" fill="#FFFFFF" height="32" id="AttemptRationaleAgent" rx="2.5" ry="2.5" style="stroke:#444444;stroke-width:0.5;" width="196.8281" x="2679.5" y="492.2969"/><ellipse cx="2694.5" cy="508.2969" fill="#ADD1B2" rx="11" ry="11" style="stroke:#181818;stroke-width:1.0;"/><path d="M2697.4688,513.9375 Q2696.8906,514.2344 2696.25,514.375 Q2695.6094,514.5313 2694.9063,514.5313 Q2692.4063,514.5313 2691.0781,512.8906 Q2689.7656,511.2344 2689.7656,508.1094 Q2689.7656,504.9844 2691.0781,503.3281 Q2692.4063,501.6719 2694.9063,501.6719 Q2695.6094,501.6719 2696.25,501.8281 Q2696.9063,501.9844 2697.4688,502.2813 L2697.4688,505 Q2696.8438,504.4219 2696.25,504.1563 Q2695.6563,503.875 2695.0313,503.875 Q2693.6875,503.875 2693,504.9531 Q2692.3125,506.0156 2692.3125,508.1094 Q2692.3125,510.2031 2693,511.2813 Q2693.6875,512.3438 2695.0313,512.3438 Q2695.6563,512.3438 2696.25,512.0781 Q2696.8438,511.7969 2697.4688,511.2188 L2697.4688,513.9375 Z " fill="#000000"/><text fill="#000000" font-family="sans-serif" font-size="14" lengthAdjust="spacing" textLength="164.8281" x="2708.5" y="513.1436">AttemptRationaleAgent</text></g><!--class MealSuggestionAgent--><g id="elem_MealSuggestionAgent"><rect codeLine="472" fill="#FFFFFF" height="32" id="MealSuggestionAgent" rx="2.5" ry="2.5" style="stroke:#444444;stroke-width:0.5;" width="184.8584" x="2916.5" y="492.2969"/><ellipse cx="2931.5" cy="508.2969" fill="#ADD1B2" rx="11" ry="11" style="stroke:#181818;stroke-width:1.0;"/><path d="M2934.4688,513.9375 Q2933.8906,514.2344 2933.25,514.375 Q2932.6094,514.5313 2931.9063,514.5313 Q2929.4063,514.5313 2928.0781,512.8906 Q2926.7656,511.2344 2926.7656,508.1094 Q2926.7656,504.9844 2928.0781,503.3281 Q2929.4063,501.6719 2931.9063,501.6719 Q2932.6094,501.6719 2933.25,501.8281 Q2933.9063,501.9844 2934.4688,502.2813 L2934.4688,505 Q2933.8438,504.4219 2933.25,504.1563 Q2932.6563,503.875 2932.0313,503.875 Q2930.6875,503.875 2930,504.9531 Q2929.3125,506.0156 2929.3125,508.1094 Q2929.3125,510.2031 2930,511.2813 Q2930.6875,512.3438 2932.0313,512.3438 Q2932.6563,512.3438 2933.25,512.0781 Q2933.8438,511.7969 2934.4688,511.2188 L2934.4688,513.9375 Z " fill="#000000"/><text fill="#000000" font-family="sans-serif" font-size="14" lengthAdjust="spacing" textLength="152.8584" x="2945.5" y="513.1436">MealSuggestionAgent</text></g><!--class ProgressionAgent--><g id="elem_ProgressionAgent"><rect codeLine="473" fill="#FFFFFF" height="56.2969" id="ProgressionAgent" rx="2.5" ry="2.5" style="stroke:#444444;stroke-width:0.5;" width="230.9824" x="3141.5" y="480.2969"/><ellipse cx="3191.0537" cy="496.2969" fill="#ADD1B2" rx="11" ry="11" style="stroke:#181818;stroke-width:1.0;"/><path d="M3194.0225,501.9375 Q3193.4443,502.2344 3192.8037,502.375 Q3192.1631,502.5313 3191.46,502.5313 Q3188.96,502.5313 3187.6318,500.8906 Q3186.3193,499.2344 3186.3193,496.1094 Q3186.3193,492.9844 3187.6318,491.3281 Q3188.96,489.6719 3191.46,489.6719 Q3192.1631,489.6719 3192.8037,489.8281 Q3193.46,489.9844 3194.0225,490.2813 L3194.0225,493 Q3193.3975,492.4219 3192.8037,492.1563 Q3192.21,491.875 3191.585,491.875 Q3190.2412,491.875 3189.5537,492.9531 Q3188.8662,494.0156 3188.8662,496.1094 Q3188.8662,498.2031 3189.5537,499.2813 Q3190.2412,500.3438 3191.585,500.3438 Q3192.21,500.3438 3192.8037,500.0781 Q3193.3975,499.7969 3194.0225,499.2188 L3194.0225,501.9375 Z " fill="#000000"/><text fill="#000000" font-family="sans-serif" font-size="14" lengthAdjust="spacing" textLength="123.375" x="3211.5537" y="501.1436">ProgressionAgent</text><line style="stroke:#444444;stroke-width:0.5;" x1="3142.5" x2="3371.4824" y1="512.2969" y2="512.2969"/><text fill="#000000" font-family="sans-serif" font-size="14" lengthAdjust="spacing" textLength="218.9824" x="3147.5" y="529.292">-strategy : ProgressionStrategy</text></g><!--class ChatAgent--><g id="elem_ChatAgent"><rect codeLine="476" fill="#FFFFFF" height="56.2969" id="ChatAgent" rx="2.5" ry="2.5" style="stroke:#444444;stroke-width:0.5;" width="207.4668" x="3412.5" y="480.2969"/><ellipse cx="3474.9053" cy="496.2969" fill="#ADD1B2" rx="11" ry="11" style="stroke:#181818;stroke-width:1.0;"/><path d="M3477.874,501.9375 Q3477.2959,502.2344 3476.6553,502.375 Q3476.0146,502.5313 3475.3115,502.5313 Q3472.8115,502.5313 3471.4834,500.8906 Q3470.1709,499.2344 3470.1709,496.1094 Q3470.1709,492.9844 3471.4834,491.3281 Q3472.8115,489.6719 3475.3115,489.6719 Q3476.0146,489.6719 3476.6553,489.8281 Q3477.3115,489.9844 3477.874,490.2813 L3477.874,493 Q3477.249,492.4219 3476.6553,492.1563 Q3476.0615,491.875 3475.4365,491.875 Q3474.0928,491.875 3473.4053,492.9531 Q3472.7178,494.0156 3472.7178,496.1094 Q3472.7178,498.2031 3473.4053,499.2813 Q3474.0928,500.3438 3475.4365,500.3438 Q3476.0615,500.3438 3476.6553,500.0781 Q3477.249,499.7969 3477.874,499.2188 L3477.874,501.9375 Z " fill="#000000"/><text fill="#000000" font-family="sans-serif" font-size="14" lengthAdjust="spacing" textLength="74.1563" x="3495.4053" y="501.1436">ChatAgent</text><line style="stroke:#444444;stroke-width:0.5;" x1="3413.5" x2="3618.9668" y1="512.2969" y2="512.2969"/><text fill="#000000" font-family="sans-serif" font-size="14" lengthAdjust="spacing" textLength="195.4668" x="3418.5" y="529.292">-memory : MemoryManager</text></g><!--class AgentRequest--><g id="elem_AgentRequest"><rect codeLine="479" fill="#FFFFFF" height="72.5938" id="AgentRequest" rx="2.5" ry="2.5" style="stroke:#444444;stroke-width:0.5;" width="236.9092" x="3659.5" y="471.7969"/><ellipse cx="3724.2363" cy="487.7969" fill="#ADD1B2" rx="11" ry="11" style="stroke:#181818;stroke-width:1.0;"/><path d="M3727.2051,493.4375 Q3726.627,493.7344 3725.9863,493.875 Q3725.3457,494.0313 3724.6426,494.0313 Q3722.1426,494.0313 3720.8145,492.3906 Q3719.502,490.7344 3719.502,487.6094 Q3719.502,484.4844 3720.8145,482.8281 Q3722.1426,481.1719 3724.6426,481.1719 Q3725.3457,481.1719 3725.9863,481.3281 Q3726.6426,481.4844 3727.2051,481.7813 L3727.2051,484.5 Q3726.5801,483.9219 3725.9863,483.6563 Q3725.3926,483.375 3724.7676,483.375 Q3723.4238,483.375 3722.7363,484.4531 Q3722.0488,485.5156 3722.0488,487.6094 Q3722.0488,489.7031 3722.7363,490.7813 Q3723.4238,491.8438 3724.7676,491.8438 Q3725.3926,491.8438 3725.9863,491.5781 Q3726.5801,491.2969 3727.2051,490.7188 L3727.2051,493.4375 Z " fill="#000000"/><text fill="#000000" font-family="sans-serif" font-size="14" lengthAdjust="spacing" textLength="98.9365" x="3744.7363" y="492.6436">AgentRequest</text><line style="stroke:#444444;stroke-width:0.5;" x1="3660.5" x2="3895.4092" y1="503.7969" y2="503.7969"/><text fill="#000000" font-family="sans-serif" font-size="14" lengthAdjust="spacing" textLength="96.8857" x="3665.5" y="520.792">+kind : String</text><text fill="#000000" font-family="sans-serif" font-size="14" lengthAdjust="spacing" textLength="224.9092" x="3665.5" y="537.0889">+params : Map&lt;String, object&gt;</text></g><!--class AgentContext--><g id="elem_AgentContext"><rect codeLine="483" fill="#FFFFFF" height="72.5938" id="AgentContext" rx="2.5" ry="2.5" style="stroke:#444444;stroke-width:0.5;" width="218.165" x="3937" y="471.7969"/><ellipse cx="3993.5674" cy="487.7969" fill="#ADD1B2" rx="11" ry="11" style="stroke:#181818;stroke-width:1.0;"/><path d="M3996.5361,493.4375 Q3995.958,493.7344 3995.3174,493.875 Q3994.6768,494.0313 3993.9736,494.0313 Q3991.4736,494.0313 3990.1455,492.3906 Q3988.833,490.7344 3988.833,487.6094 Q3988.833,484.4844 3990.1455,482.8281 Q3991.4736,481.1719 3993.9736,481.1719 Q3994.6768,481.1719 3995.3174,481.3281 Q3995.9736,481.4844 3996.5361,481.7813 L3996.5361,484.5 Q3995.9111,483.9219 3995.3174,483.6563 Q3994.7236,483.375 3994.0986,483.375 Q3992.7549,483.375 3992.0674,484.4531 Q3991.3799,485.5156 3991.3799,487.6094 Q3991.3799,489.7031 3992.0674,490.7813 Q3992.7549,491.8438 3994.0986,491.8438 Q3994.7236,491.8438 3995.3174,491.5781 Q3995.9111,491.2969 3996.5361,490.7188 L3996.5361,493.4375 Z " fill="#000000"/><text fill="#000000" font-family="sans-serif" font-size="14" lengthAdjust="spacing" textLength="96.5303" x="4014.0674" y="492.6436">AgentContext</text><line style="stroke:#444444;stroke-width:0.5;" x1="3938" x2="4154.165" y1="503.7969" y2="503.7969"/><text fill="#000000" font-family="sans-serif" font-size="14" lengthAdjust="spacing" textLength="150.4385" x="3943" y="520.792">+profile : LifterProfile</text><text fill="#000000" font-family="sans-serif" font-size="14" lengthAdjust="spacing" textLength="206.165" x="3943" y="537.0889">+facts : Map&lt;String, object&gt;</text></g><!--class AgentResult--><g id="elem_AgentResult"><rect codeLine="487" fill="#FFFFFF" height="105.1875" id="AgentResult" rx="2.5" ry="2.5" style="stroke:#444444;stroke-width:0.5;" width="168.8027" x="4195.5" y="455.7969"/><ellipse cx="4228.5659" cy="471.7969" fill="#ADD1B2" rx="11" ry="11" style="stroke:#181818;stroke-width:1.0;"/><path d="M4231.5347,477.4375 Q4230.9565,477.7344 4230.3159,477.875 Q4229.6753,478.0313 4228.9722,478.0313 Q4226.4722,478.0313 4225.144,476.3906 Q4223.8315,474.7344 4223.8315,471.6094 Q4223.8315,468.4844 4225.144,466.8281 Q4226.4722,465.1719 4228.9722,465.1719 Q4229.6753,465.1719 4230.3159,465.3281 Q4230.9722,465.4844 4231.5347,465.7813 L4231.5347,468.5 Q4230.9097,467.9219 4230.3159,467.6563 Q4229.7222,467.375 4229.0972,467.375 Q4227.7534,467.375 4227.0659,468.4531 Q4226.3784,469.5156 4226.3784,471.6094 Q4226.3784,473.7031 4227.0659,474.7813 Q4227.7534,475.8438 4229.0972,475.8438 Q4229.7222,475.8438 4230.3159,475.5781 Q4230.9097,475.2969 4231.5347,474.7188 L4231.5347,477.4375 Z " fill="#000000"/><text fill="#000000" font-family="sans-serif" font-size="14" lengthAdjust="spacing" textLength="85.3262" x="4246.5806" y="476.6436">AgentResult</text><rect fill="#FFFFFF" height="15.9688" style="stroke:#444444;stroke-width:1.0;stroke-dasharray:2.0,2.0;" width="9.3301" x="4357.9727" y="452.7969"/><text fill="#000000" font-family="sans-serif" font-size="12" font-style="italic" lengthAdjust="spacing" textLength="7.3301" x="4358.9727" y="464.9355">T</text><line style="stroke:#444444;stroke-width:0.5;" x1="4196.5" x2="4363.3027" y1="487.7969" y2="487.7969"/><text fill="#000000" font-family="sans-serif" font-size="14" lengthAdjust="spacing" textLength="136.083" x="4201.5" y="504.792">+success : boolean</text><text fill="#000000" font-family="sans-serif" font-size="14" lengthAdjust="spacing" textLength="114.2285" x="4201.5" y="521.0889">+value : T [0..1]</text><text fill="#000000" font-family="sans-serif" font-size="14" lengthAdjust="spacing" textLength="156.8027" x="4201.5" y="537.3857">+errors : List&lt;String&gt;</text><text fill="#000000" font-family="sans-serif" font-size="14" lengthAdjust="spacing" textLength="107.0781" x="4201.5" y="553.6826">+attempts : int</text></g><!--class ModelTier--><g id="elem_ModelTier"><rect codeLine="494" fill="#FFFFFF" height="72.5938" id="ModelTier" rx="2.5" ry="2.5" style="stroke:#444444;stroke-width:0.5;" width="100.8447" x="23.5" y="471.7969"/><ellipse cx="38.5" cy="487.7969" fill="#EB937F" rx="11" ry="11" style="stroke:#181818;stroke-width:1.0;"/><path d="M42.6094,493.7969 L34.8906,493.7969 L34.8906,481.4063 L42.6094,481.4063 L42.6094,483.5625 L37.3438,483.5625 L37.3438,486.2344 L42.1094,486.2344 L42.1094,488.3906 L37.3438,488.3906 L37.3438,491.6406 L42.6094,491.6406 L42.6094,493.7969 Z " fill="#000000"/><text fill="#000000" font-family="sans-serif" font-size="14" lengthAdjust="spacing" textLength="68.8447" x="52.5" y="492.6436">ModelTier</text><line style="stroke:#444444;stroke-width:0.5;" x1="24.5" x2="123.3447" y1="503.7969" y2="503.7969"/><text fill="#000000" font-family="sans-serif" font-size="14" lengthAdjust="spacing" textLength="35.0684" x="29.5" y="520.792">FAST</text><text fill="#000000" font-family="sans-serif" font-size="14" lengthAdjust="spacing" textLength="78.3535" x="29.5" y="537.0889">STANDARD</text></g><!--class LLMClientProvider--><g id="elem_LLMClientProvider"><rect codeLine="498" fill="#FFFFFF" height="80.5938" id="LLMClientProvider" rx="2.5" ry="2.5" style="stroke:#444444;stroke-width:0.5;" width="275.375" x="194.5" y="189.2969"/><ellipse cx="264.7358" cy="205.2969" fill="#ADD1B2" rx="11" ry="11" style="stroke:#181818;stroke-width:1.0;"/><path d="M267.7046,210.9375 Q267.1265,211.2344 266.4858,211.375 Q265.8452,211.5313 265.1421,211.5313 Q262.6421,211.5313 261.314,209.8906 Q260.0015,208.2344 260.0015,205.1094 Q260.0015,201.9844 261.314,200.3281 Q262.6421,198.6719 265.1421,198.6719 Q265.8452,198.6719 266.4858,198.8281 Q267.1421,198.9844 267.7046,199.2813 L267.7046,202 Q267.0796,201.4219 266.4858,201.1563 Q265.8921,200.875 265.2671,200.875 Q263.9233,200.875 263.2358,201.9531 Q262.5483,203.0156 262.5483,205.1094 Q262.5483,207.2031 263.2358,208.2813 Q263.9233,209.3438 265.2671,209.3438 Q265.8921,209.3438 266.4858,209.0781 Q267.0796,208.7969 267.7046,208.2188 L267.7046,210.9375 Z " fill="#000000"/><text fill="#000000" font-family="sans-serif" font-size="14" lengthAdjust="spacing" textLength="126.4033" x="285.2358" y="210.1436">LLMClientProvider</text><line style="stroke:#444444;stroke-width:0.5;" x1="195.5" x2="468.875" y1="221.2969" y2="221.2969"/><text fill="#000000" font-family="sans-serif" font-size="14" lengthAdjust="spacing" textLength="263.375" x="200.5" y="238.292">-clients : Map&lt;ModelTier, LLMClient&gt;</text><line style="stroke:#444444;stroke-width:0.5;" x1="195.5" x2="468.875" y1="245.5938" y2="245.5938"/><text fill="#000000" font-family="sans-serif" font-size="14" lengthAdjust="spacing" textLength="238.4922" x="200.5" y="262.5889">+forTier(t : ModelTier) : LLMClient</text></g><!--class LLMClient--><g id="elem_LLMClient"><rect codeLine="502" fill="#FFFFFF" height="64.5625" id="LLMClient" rx="2.5" ry="2.5" style="stroke:#444444;stroke-width:0.5;" width="674.2588" x="165" y="475.7969"/><ellipse cx="463.7749" cy="495.9297" fill="#B4A7E5" rx="11" ry="11" style="stroke:#181818;stroke-width:1.0;"/><path d="M459.6968,491.6953 L459.6968,489.5391 L467.0874,489.5391 L467.0874,491.6953 L464.6187,491.6953 L464.6187,499.7734 L467.0874,499.7734 L467.0874,501.9297 L459.6968,501.9297 L459.6968,499.7734 L462.1655,499.7734 L462.1655,491.6953 L459.6968,491.6953 Z " fill="#000000"/><text fill="#000000" font-family="sans-serif" font-size="12" font-style="italic" lengthAdjust="spacing" textLength="66.2285" x="485.2651" y="491.9355">&#171;Strategy&#187;</text><text fill="#000000" font-family="sans-serif" font-size="14" font-style="italic" lengthAdjust="spacing" textLength="68.209" x="484.2749" y="507.7607">LLMClient</text><line style="stroke:#444444;stroke-width:0.5;" x1="166" x2="838.2588" y1="516.0625" y2="516.0625"/><text fill="#000000" font-family="sans-serif" font-size="14" lengthAdjust="spacing" textLength="662.2588" x="171" y="533.0576">+complete(msgs : List&lt;Message&gt;, tools : List&lt;ToolSchema&gt;, system : String) : LLMResponse</text></g><!--class ClaudeClient--><g id="elem_ClaudeClient"><rect codeLine="505" fill="#FFFFFF" height="145.7813" id="ClaudeClient" rx="2.5" ry="2.5" style="stroke:#444444;stroke-width:0.5;" width="473.1182" x="22.5" y="636.2969"/><ellipse cx="210.2354" cy="652.2969" fill="#ADD1B2" rx="11" ry="11" style="stroke:#181818;stroke-width:1.0;"/><path d="M213.2041,657.9375 Q212.626,658.2344 211.9854,658.375 Q211.3447,658.5313 210.6416,658.5313 Q208.1416,658.5313 206.8135,656.8906 Q205.501,655.2344 205.501,652.1094 Q205.501,648.9844 206.8135,647.3281 Q208.1416,645.6719 210.6416,645.6719 Q211.3447,645.6719 211.9854,645.8281 Q212.6416,645.9844 213.2041,646.2813 L213.2041,649 Q212.5791,648.4219 211.9854,648.1563 Q211.3916,647.875 210.7666,647.875 Q209.4229,647.875 208.7354,648.9531 Q208.0479,650.0156 208.0479,652.1094 Q208.0479,654.2031 208.7354,655.2813 Q209.4229,656.3438 210.7666,656.3438 Q211.3916,656.3438 211.9854,656.0781 Q212.5791,655.7969 213.2041,655.2188 L213.2041,657.9375 Z " fill="#000000"/><text fill="#000000" font-family="sans-serif" font-size="14" lengthAdjust="spacing" textLength="89.1475" x="230.7354" y="657.1436">ClaudeClient</text><line style="stroke:#444444;stroke-width:0.5;" x1="23.5" x2="494.6182" y1="668.2969" y2="668.2969"/><text fill="#000000" font-family="sans-serif" font-size="14" lengthAdjust="spacing" textLength="233.7002" x="28.5" y="685.292">-chatModel : AnthropicChatModel</text><text fill="#000000" font-family="sans-serif" font-size="14" lengthAdjust="spacing" textLength="145.3457" x="28.5" y="701.5889">-modelName : String</text><text fill="#000000" font-family="sans-serif" font-size="14" lengthAdjust="spacing" textLength="117.4277" x="28.5" y="717.8857">-maxTokens : int</text><text fill="#000000" font-family="sans-serif" font-size="14" lengthAdjust="spacing" textLength="150.2949" x="28.5" y="734.1826">-timeoutSeconds : int</text><line style="stroke:#444444;stroke-width:0.5;" x1="23.5" x2="494.6182" y1="741.4844" y2="741.4844"/><text fill="#000000" font-family="sans-serif" font-size="14" lengthAdjust="spacing" textLength="461.1182" x="28.5" y="758.4795">-toSpecifications(t : List&lt;ToolSchema&gt;) : List&lt;ToolSpecification&gt;</text><text fill="#000000" font-family="sans-serif" font-size="14" lengthAdjust="spacing" textLength="334.9336" x="28.5" y="774.7764">-fromAiMessage(m : AiMessage) : LLMResponse</text></g><!--class ScriptedLLMClient--><g id="elem_ScriptedLLMClient"><rect codeLine="513" fill="#FFFFFF" height="56.2969" id="ScriptedLLMClient" rx="2.5" ry="2.5" style="stroke:#444444;stroke-width:0.5;" width="245.3379" x="535.5" y="681.2969"/><ellipse cx="590.7617" cy="697.2969" fill="#ADD1B2" rx="11" ry="11" style="stroke:#181818;stroke-width:1.0;"/><path d="M593.7305,702.9375 Q593.1523,703.2344 592.5117,703.375 Q591.8711,703.5313 591.168,703.5313 Q588.668,703.5313 587.3398,701.8906 Q586.0273,700.2344 586.0273,697.1094 Q586.0273,693.9844 587.3398,692.3281 Q588.668,690.6719 591.168,690.6719 Q591.8711,690.6719 592.5117,690.8281 Q593.168,690.9844 593.7305,691.2813 L593.7305,694 Q593.1055,693.4219 592.5117,693.1563 Q591.918,692.875 591.293,692.875 Q589.9492,692.875 589.2617,693.9531 Q588.5742,695.0156 588.5742,697.1094 Q588.5742,699.2031 589.2617,700.2813 Q589.9492,701.3438 591.293,701.3438 Q591.918,701.3438 592.5117,701.0781 Q593.1055,700.7969 593.7305,700.2188 L593.7305,702.9375 Z " fill="#000000"/><text fill="#000000" font-family="sans-serif" font-size="14" lengthAdjust="spacing" textLength="126.3145" x="611.2617" y="702.1436">ScriptedLLMClient</text><line style="stroke:#444444;stroke-width:0.5;" x1="536.5" x2="779.8379" y1="713.2969" y2="713.2969"/><text fill="#000000" font-family="sans-serif" font-size="14" lengthAdjust="spacing" textLength="233.3379" x="541.5" y="730.292">-responses : List&lt;LLMResponse&gt;</text></g><!--class LLMClientDecorator--><g id="elem_LLMClientDecorator"><rect codeLine="516" fill="#FFFFFF" height="88.8594" id="LLMClientDecorator" rx="2.5" ry="2.5" style="stroke:#444444;stroke-width:0.5;" width="674.2588" x="821" y="664.7969"/><ellipse cx="1084.874" cy="684.9297" fill="#A9DCDF" rx="11" ry="11" style="stroke:#181818;stroke-width:1.0;"/><path d="M1084.9834,680.2734 L1083.8271,685.3516 L1086.1553,685.3516 L1084.9834,680.2734 Z M1083.499,678.0391 L1086.4834,678.0391 L1089.8428,690.4297 L1087.3896,690.4297 L1086.624,687.3672 L1083.3428,687.3672 L1082.5928,690.4297 L1080.1553,690.4297 L1083.499,678.0391 Z " fill="#000000"/><text fill="#000000" font-family="sans-serif" font-size="12" font-style="italic" lengthAdjust="spacing" textLength="74.6426" x="1137.0581" y="680.9355">&#171;Decorator&#187;</text><text fill="#000000" font-family="sans-serif" font-size="14" font-style="italic" lengthAdjust="spacing" textLength="138.0107" x="1105.374" y="696.7607">LLMClientDecorator</text><line style="stroke:#444444;stroke-width:0.5;" x1="822" x2="1494.2588" y1="705.0625" y2="705.0625"/><text fill="#000000" font-family="sans-serif" font-size="14" lengthAdjust="spacing" textLength="155.1279" x="827" y="722.0576">#delegate : LLMClient</text><line style="stroke:#444444;stroke-width:0.5;" x1="822" x2="1494.2588" y1="729.3594" y2="729.3594"/><text fill="#000000" font-family="sans-serif" font-size="14" lengthAdjust="spacing" textLength="662.2588" x="827" y="746.3545">+complete(msgs : List&lt;Message&gt;, tools : List&lt;ToolSchema&gt;, system : String) : LLMResponse</text></g><!--class CachingLLMClient--><g id="elem_CachingLLMClient"><rect codeLine="520" fill="#FFFFFF" height="129.4844" id="CachingLLMClient" rx="2.5" ry="2.5" style="stroke:#444444;stroke-width:0.5;" width="458.5166" x="586.5" y="837.2969"/><ellipse cx="749.1167" cy="853.2969" fill="#ADD1B2" rx="11" ry="11" style="stroke:#181818;stroke-width:1.0;"/><path d="M752.0854,858.9375 Q751.5073,859.2344 750.8667,859.375 Q750.2261,859.5313 749.5229,859.5313 Q747.0229,859.5313 745.6948,857.8906 Q744.3823,856.2344 744.3823,853.1094 Q744.3823,849.9844 745.6948,848.3281 Q747.0229,846.6719 749.5229,846.6719 Q750.2261,846.6719 750.8667,846.8281 Q751.5229,846.9844 752.0854,847.2813 L752.0854,850 Q751.4604,849.4219 750.8667,849.1563 Q750.2729,848.875 749.6479,848.875 Q748.3042,848.875 747.6167,849.9531 Q746.9292,851.0156 746.9292,853.1094 Q746.9292,855.2031 747.6167,856.2813 Q748.3042,857.3438 749.6479,857.3438 Q750.2729,857.3438 750.8667,857.0781 Q751.4604,856.7969 752.0854,856.2188 L752.0854,858.9375 Z " fill="#000000"/><text fill="#000000" font-family="sans-serif" font-size="14" lengthAdjust="spacing" textLength="124.7832" x="769.6167" y="858.1436">CachingLLMClient</text><line style="stroke:#444444;stroke-width:0.5;" x1="587.5" x2="1044.0166" y1="869.2969" y2="869.2969"/><text fill="#000000" font-family="sans-serif" font-size="14" lengthAdjust="spacing" textLength="259.3623" x="592.5" y="886.292">-cache : Map&lt;String, LLMResponse&gt;</text><text fill="#000000" font-family="sans-serif" font-size="14" lengthAdjust="spacing" textLength="62.4668" x="592.5" y="902.5889">-hits : int</text><text fill="#000000" font-family="sans-serif" font-size="14" lengthAdjust="spacing" textLength="84.9434" x="592.5" y="918.8857">-misses : int</text><line style="stroke:#444444;stroke-width:0.5;" x1="587.5" x2="1044.0166" y1="926.1875" y2="926.1875"/><text fill="#000000" font-family="sans-serif" font-size="14" lengthAdjust="spacing" textLength="446.5166" x="592.5" y="943.1826">-key(msgs : List&lt;Message&gt;, tools : List&lt;ToolSchema&gt;) : String</text><text fill="#000000" font-family="sans-serif" font-size="14" lengthAdjust="spacing" textLength="140.458" x="592.5" y="959.4795">+statistics() : String</text></g><!--class RecordingLLMClient--><g id="elem_RecordingLLMClient"><rect codeLine="527" fill="#FFFFFF" height="80.5938" id="RecordingLLMClient" rx="2.5" ry="2.5" style="stroke:#444444;stroke-width:0.5;" width="320.7178" x="1085.5" y="861.2969"/><ellipse cx="1172.0566" cy="877.2969" fill="#ADD1B2" rx="11" ry="11" style="stroke:#181818;stroke-width:1.0;"/><path d="M1175.0254,882.9375 Q1174.4473,883.2344 1173.8066,883.375 Q1173.166,883.5313 1172.4629,883.5313 Q1169.9629,883.5313 1168.6348,881.8906 Q1167.3223,880.2344 1167.3223,877.1094 Q1167.3223,873.9844 1168.6348,872.3281 Q1169.9629,870.6719 1172.4629,870.6719 Q1173.166,870.6719 1173.8066,870.8281 Q1174.4629,870.9844 1175.0254,871.2813 L1175.0254,874 Q1174.4004,873.4219 1173.8066,873.1563 Q1173.2129,872.875 1172.5879,872.875 Q1171.2441,872.875 1170.5566,873.9531 Q1169.8691,875.0156 1169.8691,877.1094 Q1169.8691,879.2031 1170.5566,880.2813 Q1171.2441,881.3438 1172.5879,881.3438 Q1173.2129,881.3438 1173.8066,881.0781 Q1174.4004,880.7969 1175.0254,880.2188 L1175.0254,882.9375 Z " fill="#000000"/><text fill="#000000" font-family="sans-serif" font-size="14" lengthAdjust="spacing" textLength="139.1045" x="1192.5566" y="882.1436">RecordingLLMClient</text><line style="stroke:#444444;stroke-width:0.5;" x1="1086.5" x2="1405.2178" y1="893.2969" y2="893.2969"/><text fill="#000000" font-family="sans-serif" font-size="14" lengthAdjust="spacing" textLength="116.3135" x="1091.5" y="910.292">-fixtureDir : Path</text><line style="stroke:#444444;stroke-width:0.5;" x1="1086.5" x2="1405.2178" y1="917.5938" y2="917.5938"/><text fill="#000000" font-family="sans-serif" font-size="14" lengthAdjust="spacing" textLength="308.7178" x="1091.5" y="934.5889">-record(key : String, r : LLMResponse) : void</text></g><!--class LLMResponse--><g id="elem_LLMResponse"><rect codeLine="531" fill="#FFFFFF" height="88.8906" id="LLMResponse" rx="2.5" ry="2.5" style="stroke:#444444;stroke-width:0.5;" width="200.9248" x="1577.5" y="664.7969"/><ellipse cx="1625.9395" cy="680.7969" fill="#ADD1B2" rx="11" ry="11" style="stroke:#181818;stroke-width:1.0;"/><path d="M1628.9082,686.4375 Q1628.3301,686.7344 1627.6895,686.875 Q1627.0488,687.0313 1626.3457,687.0313 Q1623.8457,687.0313 1622.5176,685.3906 Q1621.2051,683.7344 1621.2051,680.6094 Q1621.2051,677.4844 1622.5176,675.8281 Q1623.8457,674.1719 1626.3457,674.1719 Q1627.0488,674.1719 1627.6895,674.3281 Q1628.3457,674.4844 1628.9082,674.7813 L1628.9082,677.5 Q1628.2832,676.9219 1627.6895,676.6563 Q1627.0957,676.375 1626.4707,676.375 Q1625.127,676.375 1624.4395,677.4531 Q1623.752,678.5156 1623.752,680.6094 Q1623.752,682.7031 1624.4395,683.7813 Q1625.127,684.8438 1626.4707,684.8438 Q1627.0957,684.8438 1627.6895,684.5781 Q1628.2832,684.2969 1628.9082,683.7188 L1628.9082,686.4375 Z " fill="#000000"/><text fill="#000000" font-family="sans-serif" font-size="14" lengthAdjust="spacing" textLength="95.5459" x="1646.4395" y="685.6436">LLMResponse</text><line style="stroke:#444444;stroke-width:0.5;" x1="1578.5" x2="1777.4248" y1="696.7969" y2="696.7969"/><text fill="#000000" font-family="sans-serif" font-size="14" lengthAdjust="spacing" textLength="162.8184" x="1583.5" y="713.792">+content : String [0..1]</text><text fill="#000000" font-family="sans-serif" font-size="14" lengthAdjust="spacing" textLength="188.9248" x="1583.5" y="730.0889">+toolCalls : List&lt;ToolCall&gt;</text><text fill="#000000" font-family="sans-serif" font-size="14" lengthAdjust="spacing" textLength="156.5293" x="1583.5" y="746.3857">+finishReason : String</text></g><!--class Message--><g id="elem_Message"><rect codeLine="536" fill="#FFFFFF" height="72.5938" id="Message" rx="2.5" ry="2.5" style="stroke:#444444;stroke-width:0.5;" width="132.7295" x="2431.5" y="1021.2969"/><ellipse cx="2464.2166" cy="1037.2969" fill="#ADD1B2" rx="11" ry="11" style="stroke:#181818;stroke-width:1.0;"/><path d="M2467.1853,1042.9375 Q2466.6072,1043.2344 2465.9666,1043.375 Q2465.3259,1043.5313 2464.6228,1043.5313 Q2462.1228,1043.5313 2460.7947,1041.8906 Q2459.4822,1040.2344 2459.4822,1037.1094 Q2459.4822,1033.9844 2460.7947,1032.3281 Q2462.1228,1030.6719 2464.6228,1030.6719 Q2465.3259,1030.6719 2465.9666,1030.8281 Q2466.6228,1030.9844 2467.1853,1031.2813 L2467.1853,1034 Q2466.5603,1033.4219 2465.9666,1033.1563 Q2465.3728,1032.875 2464.7478,1032.875 Q2463.4041,1032.875 2462.7166,1033.9531 Q2462.0291,1035.0156 2462.0291,1037.1094 Q2462.0291,1039.2031 2462.7166,1040.2813 Q2463.4041,1041.3438 2464.7478,1041.3438 Q2465.3728,1041.3438 2465.9666,1041.0781 Q2466.5603,1040.7969 2467.1853,1040.2188 L2467.1853,1042.9375 Z " fill="#000000"/><text fill="#000000" font-family="sans-serif" font-size="14" lengthAdjust="spacing" textLength="61.3594" x="2482.1536" y="1042.1436">Message</text><line style="stroke:#444444;stroke-width:0.5;" x1="2432.5" x2="2563.2295" y1="1053.2969" y2="1053.2969"/><text fill="#000000" font-family="sans-serif" font-size="14" lengthAdjust="spacing" textLength="93.9531" x="2437.5" y="1070.292">+role : String</text><text fill="#000000" font-family="sans-serif" font-size="14" lengthAdjust="spacing" textLength="120.7295" x="2437.5" y="1086.5889">+content : String</text></g><!--class PromptBuilder--><g id="elem_PromptBuilder"><rect codeLine="540" fill="#FFFFFF" height="146.0469" id="PromptBuilder" rx="2.5" ry="2.5" style="stroke:#444444;stroke-width:0.5;" width="385.8779" x="4405" y="435.2969"/><ellipse cx="4543.5439" cy="455.4297" fill="#ADD1B2" rx="11" ry="11" style="stroke:#181818;stroke-width:1.0;"/><path d="M4546.5127,461.0703 Q4545.9346,461.3672 4545.2939,461.5078 Q4544.6533,461.6641 4543.9502,461.6641 Q4541.4502,461.6641 4540.1221,460.0234 Q4538.8096,458.3672 4538.8096,455.2422 Q4538.8096,452.1172 4540.1221,450.4609 Q4541.4502,448.8047 4543.9502,448.8047 Q4544.6533,448.8047 4545.2939,448.9609 Q4545.9502,449.1172 4546.5127,449.4141 L4546.5127,452.1328 Q4545.8877,451.5547 4545.2939,451.2891 Q4544.7002,451.0078 4544.0752,451.0078 Q4542.7314,451.0078 4542.0439,452.0859 Q4541.3564,453.1484 4541.3564,455.2422 Q4541.3564,457.3359 4542.0439,458.4141 Q4542.7314,459.4766 4544.0752,459.4766 Q4544.7002,459.4766 4545.2939,459.2109 Q4545.8877,458.9297 4546.5127,458.3516 L4546.5127,461.0703 Z " fill="#000000"/><text fill="#000000" font-family="sans-serif" font-size="12" font-style="italic" lengthAdjust="spacing" textLength="57.252" x="4585.563" y="451.4355">&#171;Builder&#187;</text><text fill="#000000" font-family="sans-serif" font-size="14" lengthAdjust="spacing" textLength="100.29" x="4564.0439" y="467.2607">PromptBuilder</text><line style="stroke:#444444;stroke-width:0.5;" x1="4406" x2="4789.8779" y1="475.5625" y2="475.5625"/><text fill="#000000" font-family="sans-serif" font-size="14" lengthAdjust="spacing" textLength="270.4502" x="4411" y="492.5576">+system(text : String) : PromptBuilder</text><text fill="#000000" font-family="sans-serif" font-size="14" lengthAdjust="spacing" textLength="373.8779" x="4411" y="508.8545">+context(key : String, value : object) : PromptBuilder</text><text fill="#000000" font-family="sans-serif" font-size="14" lengthAdjust="spacing" textLength="361.4502" x="4411" y="525.1514">+schema(s : Map&lt;String, Object&gt;) : PromptBuilder</text><text fill="#000000" font-family="sans-serif" font-size="14" lengthAdjust="spacing" textLength="334.626" x="4411" y="541.4482">+memory(snips : List&lt;String&gt;) : PromptBuilder</text><text fill="#000000" font-family="sans-serif" font-size="14" lengthAdjust="spacing" textLength="250.373" x="4411" y="557.7451">+user(text : String) : PromptBuilder</text><text fill="#000000" font-family="sans-serif" font-size="14" lengthAdjust="spacing" textLength="179.9902" x="4411" y="574.042">+build() : List&lt;Message&gt;</text></g><!--class ResponseParser--><g id="elem_ResponseParser"><rect codeLine="548" fill="#FFFFFF" height="105.1875" id="ResponseParser" rx="2.5" ry="2.5" style="stroke:#444444;stroke-width:0.5;" width="554.1035" x="4831" y="455.7969"/><ellipse cx="5047.6479" cy="471.7969" fill="#ADD1B2" rx="11" ry="11" style="stroke:#181818;stroke-width:1.0;"/><path d="M5050.6167,477.4375 Q5050.0386,477.7344 5049.3979,477.875 Q5048.7573,478.0313 5048.0542,478.0313 Q5045.5542,478.0313 5044.2261,476.3906 Q5042.9136,474.7344 5042.9136,471.6094 Q5042.9136,468.4844 5044.2261,466.8281 Q5045.5542,465.1719 5048.0542,465.1719 Q5048.7573,465.1719 5049.3979,465.3281 Q5050.0542,465.4844 5050.6167,465.7813 L5050.6167,468.5 Q5049.9917,467.9219 5049.3979,467.6563 Q5048.8042,467.375 5048.1792,467.375 Q5046.8354,467.375 5046.1479,468.4531 Q5045.4604,469.5156 5045.4604,471.6094 Q5045.4604,473.7031 5046.1479,474.7813 Q5046.8354,475.8438 5048.1792,475.8438 Q5048.8042,475.8438 5049.3979,475.5781 Q5049.9917,475.2969 5050.6167,474.7188 L5050.6167,477.4375 Z " fill="#000000"/><text fill="#000000" font-family="sans-serif" font-size="14" lengthAdjust="spacing" textLength="112.3076" x="5068.1479" y="476.6436">ResponseParser</text><line style="stroke:#444444;stroke-width:0.5;" x1="4832" x2="5384.1035" y1="487.7969" y2="487.7969"/><text fill="#000000" font-family="sans-serif" font-size="14" lengthAdjust="spacing" textLength="334.7285" x="4837" y="504.792">+parseJson(raw : String) : Map&lt;String, Object&gt;</text><text fill="#000000" font-family="sans-serif" font-size="14" lengthAdjust="spacing" textLength="542.1035" x="4837" y="521.0889">+toBlock(d : Map&lt;String, Object&gt;, catalog : ExerciseCatalog) : TrainingBlock</text><text fill="#000000" font-family="sans-serif" font-size="14" lengthAdjust="spacing" textLength="328.9453" x="4837" y="537.3857">+toSession(d : Map&lt;String, Object&gt;) : Session</text><text fill="#000000" font-family="sans-serif" font-size="14" lengthAdjust="spacing" textLength="515.2861" x="4837" y="553.6826">+toMeal(d : Map&lt;String, Object&gt;, foods : FoodCatalog) : MealSuggestion</text></g><!--class PlanValidator--><g id="elem_PlanValidator"><rect codeLine="554" fill="#FFFFFF" height="137.7813" id="PlanValidator" rx="2.5" ry="2.5" style="stroke:#444444;stroke-width:0.5;" width="784.6182" x="879.5" y="439.2969"/><ellipse cx="1221.061" cy="455.2969" fill="#ADD1B2" rx="11" ry="11" style="stroke:#181818;stroke-width:1.0;"/><path d="M1224.0298,460.9375 Q1223.4517,461.2344 1222.811,461.375 Q1222.1704,461.5313 1221.4673,461.5313 Q1218.9673,461.5313 1217.6392,459.8906 Q1216.3267,458.2344 1216.3267,455.1094 Q1216.3267,451.9844 1217.6392,450.3281 Q1218.9673,448.6719 1221.4673,448.6719 Q1222.1704,448.6719 1222.811,448.8281 Q1223.4673,448.9844 1224.0298,449.2813 L1224.0298,452 Q1223.4048,451.4219 1222.811,451.1563 Q1222.2173,450.875 1221.5923,450.875 Q1220.2485,450.875 1219.561,451.9531 Q1218.8735,453.0156 1218.8735,455.1094 Q1218.8735,457.2031 1219.561,458.2813 Q1220.2485,459.3438 1221.5923,459.3438 Q1222.2173,459.3438 1222.811,459.0781 Q1223.4048,458.7969 1224.0298,458.2188 L1224.0298,460.9375 Z " fill="#000000"/><text fill="#000000" font-family="sans-serif" font-size="14" lengthAdjust="spacing" textLength="92.9961" x="1241.561" y="460.1436">PlanValidator</text><line style="stroke:#444444;stroke-width:0.5;" x1="880.5" x2="1663.1182" y1="471.2969" y2="471.2969"/><text fill="#000000" font-family="sans-serif" font-size="14" lengthAdjust="spacing" textLength="677.5234" x="885.5" y="488.292">+validateBlock(b : TrainingBlock, ctx : AgentContext, s : ProgressionStrategy) : ValidationReport</text><text fill="#000000" font-family="sans-serif" font-size="14" lengthAdjust="spacing" textLength="470.415" x="885.5" y="504.5889">+validateSplit(b : TrainingBlock, p : LifterProfile) : ValidationReport</text><text fill="#000000" font-family="sans-serif" font-size="14" lengthAdjust="spacing" textLength="558.7832" x="885.5" y="520.8857">+validateSubstitution(e : Exercise, allowed : List&lt;Exercise&gt;) : ValidationReport</text><text fill="#000000" font-family="sans-serif" font-size="14" lengthAdjust="spacing" textLength="722.8115" x="885.5" y="537.1826">+validateMeal(m : MealSuggestion, d : DietaryConstraints, remaining : MacroTotals) : ValidationReport</text><text fill="#000000" font-family="sans-serif" font-size="14" lengthAdjust="spacing" textLength="489.5898" x="885.5" y="553.4795">+validateRationale(text : String, a : MeetAttempts) : ValidationReport</text><text fill="#000000" font-family="sans-serif" font-size="14" lengthAdjust="spacing" textLength="772.6182" x="885.5" y="569.7764">+validateProgression(revised : TrainingBlock, original : TrainingBlock, r : AdherenceReport) : ValidationReport</text></g><!--class ValidationReport--><g id="elem_ValidationReport"><rect codeLine="562" fill="#FFFFFF" height="72.5938" id="ValidationReport" rx="2.5" ry="2.5" style="stroke:#444444;stroke-width:0.5;" width="168.8027" x="1818.5" y="672.7969"/><ellipse cx="1842.2957" cy="688.7969" fill="#ADD1B2" rx="11" ry="11" style="stroke:#181818;stroke-width:1.0;"/><path d="M1845.2644,694.4375 Q1844.6863,694.7344 1844.0457,694.875 Q1843.405,695.0313 1842.7019,695.0313 Q1840.2019,695.0313 1838.8738,693.3906 Q1837.5613,691.7344 1837.5613,688.6094 Q1837.5613,685.4844 1838.8738,683.8281 Q1840.2019,682.1719 1842.7019,682.1719 Q1843.405,682.1719 1844.0457,682.3281 Q1844.7019,682.4844 1845.2644,682.7813 L1845.2644,685.5 Q1844.6394,684.9219 1844.0457,684.6563 Q1843.4519,684.375 1842.8269,684.375 Q1841.4832,684.375 1840.7957,685.4531 Q1840.1082,686.5156 1840.1082,688.6094 Q1840.1082,690.7031 1840.7957,691.7813 Q1841.4832,692.8438 1842.8269,692.8438 Q1843.4519,692.8438 1844.0457,692.5781 Q1844.6394,692.2969 1845.2644,691.7188 L1845.2644,694.4375 Z " fill="#000000"/><text fill="#000000" font-family="sans-serif" font-size="14" lengthAdjust="spacing" textLength="117.2568" x="1858.2502" y="693.6436">ValidationReport</text><line style="stroke:#444444;stroke-width:0.5;" x1="1819.5" x2="1986.3027" y1="704.7969" y2="704.7969"/><text fill="#000000" font-family="sans-serif" font-size="14" lengthAdjust="spacing" textLength="114.8506" x="1824.5" y="721.792">+valid : boolean</text><text fill="#000000" font-family="sans-serif" font-size="14" lengthAdjust="spacing" textLength="156.8027" x="1824.5" y="738.0889">+errors : List&lt;String&gt;</text></g><!--class ToolManager--><g id="elem_ToolManager"><rect codeLine="567" fill="#FFFFFF" height="129.4844" id="ToolManager" rx="2.5" ry="2.5" style="stroke:#444444;stroke-width:0.5;" width="271.2939" x="1704.5" y="443.7969"/><ellipse cx="1790.4277" cy="459.7969" fill="#ADD1B2" rx="11" ry="11" style="stroke:#181818;stroke-width:1.0;"/><path d="M1793.3965,465.4375 Q1792.8184,465.7344 1792.1777,465.875 Q1791.5371,466.0313 1790.834,466.0313 Q1788.334,466.0313 1787.0059,464.3906 Q1785.6934,462.7344 1785.6934,459.6094 Q1785.6934,456.4844 1787.0059,454.8281 Q1788.334,453.1719 1790.834,453.1719 Q1791.5371,453.1719 1792.1777,453.3281 Q1792.834,453.4844 1793.3965,453.7813 L1793.3965,456.5 Q1792.7715,455.9219 1792.1777,455.6563 Q1791.584,455.375 1790.959,455.375 Q1789.6152,455.375 1788.9277,456.4531 Q1788.2402,457.5156 1788.2402,459.6094 Q1788.2402,461.7031 1788.9277,462.7813 Q1789.6152,463.8438 1790.959,463.8438 Q1791.584,463.8438 1792.1777,463.5781 Q1792.7715,463.2969 1793.3965,462.7188 L1793.3965,465.4375 Z " fill="#000000"/><text fill="#000000" font-family="sans-serif" font-size="14" lengthAdjust="spacing" textLength="90.9385" x="1810.9277" y="464.6436">ToolManager</text><line style="stroke:#444444;stroke-width:0.5;" x1="1705.5" x2="1974.7939" y1="475.7969" y2="475.7969"/><text fill="#000000" font-family="sans-serif" font-size="14" lengthAdjust="spacing" textLength="185.7324" x="1710.5" y="492.792">-tools : Map&lt;String, Tool&gt;</text><text fill="#000000" font-family="sans-serif" font-size="14" lengthAdjust="spacing" textLength="171.6162" x="1710.5" y="509.0889">-callLog : List&lt;ToolCall&gt;</text><line style="stroke:#444444;stroke-width:0.5;" x1="1705.5" x2="1974.7939" y1="516.3906" y2="516.3906"/><text fill="#000000" font-family="sans-serif" font-size="14" lengthAdjust="spacing" textLength="168.875" x="1710.5" y="533.3857">+register(t : Tool) : void</text><text fill="#000000" font-family="sans-serif" font-size="14" lengthAdjust="spacing" textLength="232.0527" x="1710.5" y="549.6826">+schemas() : List&lt;ToolSchema&gt;</text><text fill="#000000" font-family="sans-serif" font-size="14" lengthAdjust="spacing" textLength="259.2939" x="1710.5" y="565.9795">+execute(call : ToolCall) : ToolResult</text></g><!--class Tool--><g id="elem_Tool"><rect codeLine="574" fill="#FFFFFF" height="88.8906" id="Tool" rx="2.5" ry="2.5" style="stroke:#444444;stroke-width:0.5;" width="371.3311" x="2346.5" y="664.7969"/><ellipse cx="2513.1294" cy="680.7969" fill="#B4A7E5" rx="11" ry="11" style="stroke:#181818;stroke-width:1.0;"/><path d="M2509.0513,676.5625 L2509.0513,674.4063 L2516.4419,674.4063 L2516.4419,676.5625 L2513.9731,676.5625 L2513.9731,684.6406 L2516.4419,684.6406 L2516.4419,686.7969 L2509.0513,686.7969 L2509.0513,684.6406 L2511.52,684.6406 L2511.52,676.5625 L2509.0513,676.5625 Z " fill="#000000"/><text fill="#000000" font-family="sans-serif" font-size="14" font-style="italic" lengthAdjust="spacing" textLength="29.5723" x="2533.6294" y="685.6436">Tool</text><line style="stroke:#444444;stroke-width:0.5;" x1="2347.5" x2="2716.8311" y1="696.7969" y2="696.7969"/><text fill="#000000" font-family="sans-serif" font-size="14" lengthAdjust="spacing" textLength="117.7559" x="2352.5" y="713.792">+name() : String</text><text fill="#000000" font-family="sans-serif" font-size="14" lengthAdjust="spacing" textLength="176.8252" x="2352.5" y="730.0889">+schema() : ToolSchema</text><text fill="#000000" font-family="sans-serif" font-size="14" lengthAdjust="spacing" textLength="359.3311" x="2352.5" y="746.3857">+execute(args : Map&lt;String, Object&gt;) : ToolResult</text></g><!--class ToolSchema--><g id="elem_ToolSchema"><rect codeLine="579" fill="#FFFFFF" height="88.8906" id="ToolSchema" rx="2.5" ry="2.5" style="stroke:#444444;stroke-width:0.5;" width="278.9297" x="2057.5" y="857.2969"/><ellipse cx="2149.7852" cy="873.2969" fill="#ADD1B2" rx="11" ry="11" style="stroke:#181818;stroke-width:1.0;"/><path d="M2152.7539,878.9375 Q2152.1758,879.2344 2151.5352,879.375 Q2150.8945,879.5313 2150.1914,879.5313 Q2147.6914,879.5313 2146.3633,877.8906 Q2145.0508,876.2344 2145.0508,873.1094 Q2145.0508,869.9844 2146.3633,868.3281 Q2147.6914,866.6719 2150.1914,866.6719 Q2150.8945,866.6719 2151.5352,866.8281 Q2152.1914,866.9844 2152.7539,867.2813 L2152.7539,870 Q2152.1289,869.4219 2151.5352,869.1563 Q2150.9414,868.875 2150.3164,868.875 Q2148.9727,868.875 2148.2852,869.9531 Q2147.5977,871.0156 2147.5977,873.1094 Q2147.5977,875.2031 2148.2852,876.2813 Q2148.9727,877.3438 2150.3164,877.3438 Q2150.9414,877.3438 2151.5352,877.0781 Q2152.1289,876.7969 2152.7539,876.2188 L2152.7539,878.9375 Z " fill="#000000"/><text fill="#000000" font-family="sans-serif" font-size="14" lengthAdjust="spacing" textLength="85.8594" x="2170.2852" y="878.1436">ToolSchema</text><line style="stroke:#444444;stroke-width:0.5;" x1="2058.5" x2="2335.4297" y1="889.2969" y2="889.2969"/><text fill="#000000" font-family="sans-serif" font-size="14" lengthAdjust="spacing" textLength="106.832" x="2063.5" y="906.292">+name : String</text><text fill="#000000" font-family="sans-serif" font-size="14" lengthAdjust="spacing" textLength="144.9697" x="2063.5" y="922.5889">+description : String</text><text fill="#000000" font-family="sans-serif" font-size="14" lengthAdjust="spacing" textLength="266.9297" x="2063.5" y="938.8857">+inputSchema : Map&lt;String, Object&gt;</text></g><!--class ToolCall--><g id="elem_ToolCall"><rect codeLine="584" fill="#FFFFFF" height="88.8906" id="ToolCall" rx="2.5" ry="2.5" style="stroke:#444444;stroke-width:0.5;" width="262.6328" x="1577.5" y="857.2969"/><ellipse cx="1676.7134" cy="873.2969" fill="#ADD1B2" rx="11" ry="11" style="stroke:#181818;stroke-width:1.0;"/><path d="M1679.6821,878.9375 Q1679.104,879.2344 1678.4634,879.375 Q1677.8228,879.5313 1677.1196,879.5313 Q1674.6196,879.5313 1673.2915,877.8906 Q1671.979,876.2344 1671.979,873.1094 Q1671.979,869.9844 1673.2915,868.3281 Q1674.6196,866.6719 1677.1196,866.6719 Q1677.8228,866.6719 1678.4634,866.8281 Q1679.1196,866.9844 1679.6821,867.2813 L1679.6821,870 Q1679.0571,869.4219 1678.4634,869.1563 Q1677.8696,868.875 1677.2446,868.875 Q1675.9009,868.875 1675.2134,869.9531 Q1674.5259,871.0156 1674.5259,873.1094 Q1674.5259,875.2031 1675.2134,876.2813 Q1675.9009,877.3438 1677.2446,877.3438 Q1677.8696,877.3438 1678.4634,877.0781 Q1679.0571,876.7969 1679.6821,876.2188 L1679.6821,878.9375 Z " fill="#000000"/><text fill="#000000" font-family="sans-serif" font-size="14" lengthAdjust="spacing" textLength="55.7061" x="1697.2134" y="878.1436">ToolCall</text><line style="stroke:#444444;stroke-width:0.5;" x1="1578.5" x2="1839.1328" y1="889.2969" y2="889.2969"/><text fill="#000000" font-family="sans-serif" font-size="14" lengthAdjust="spacing" textLength="79.9053" x="1583.5" y="906.292">+id : String</text><text fill="#000000" font-family="sans-serif" font-size="14" lengthAdjust="spacing" textLength="134.9414" x="1583.5" y="922.5889">+toolName : String</text><text fill="#000000" font-family="sans-serif" font-size="14" lengthAdjust="spacing" textLength="250.6328" x="1583.5" y="938.8857">+arguments : Map&lt;String, Object&gt;</text></g><!--class ToolResult--><g id="elem_ToolResult"><rect codeLine="589" fill="#FFFFFF" height="88.8906" id="ToolResult" rx="2.5" ry="2.5" style="stroke:#444444;stroke-width:0.5;" width="155.6641" x="2028" y="664.7969"/><ellipse cx="2065.5923" cy="680.7969" fill="#ADD1B2" rx="11" ry="11" style="stroke:#181818;stroke-width:1.0;"/><path d="M2068.561,686.4375 Q2067.9829,686.7344 2067.3423,686.875 Q2066.7017,687.0313 2065.9985,687.0313 Q2063.4985,687.0313 2062.1704,685.3906 Q2060.8579,683.7344 2060.8579,680.6094 Q2060.8579,677.4844 2062.1704,675.8281 Q2063.4985,674.1719 2065.9985,674.1719 Q2066.7017,674.1719 2067.3423,674.3281 Q2067.9985,674.4844 2068.561,674.7813 L2068.561,677.5 Q2067.936,676.9219 2067.3423,676.6563 Q2066.7485,676.375 2066.1235,676.375 Q2064.7798,676.375 2064.0923,677.4531 Q2063.4048,678.5156 2063.4048,680.6094 Q2063.4048,682.7031 2064.0923,683.7813 Q2064.7798,684.8438 2066.1235,684.8438 Q2066.7485,684.8438 2067.3423,684.5781 Q2067.936,684.2969 2068.561,683.7188 L2068.561,686.4375 Z " fill="#000000"/><text fill="#000000" font-family="sans-serif" font-size="14" lengthAdjust="spacing" textLength="73.459" x="2084.6128" y="685.6436">ToolResult</text><line style="stroke:#444444;stroke-width:0.5;" x1="2029" x2="2182.6641" y1="696.7969" y2="696.7969"/><text fill="#000000" font-family="sans-serif" font-size="14" lengthAdjust="spacing" textLength="97.9932" x="2034" y="713.792">+ok : boolean</text><text fill="#000000" font-family="sans-serif" font-size="14" lengthAdjust="spacing" textLength="100.0234" x="2034" y="730.0889">+data : object</text><text fill="#000000" font-family="sans-serif" font-size="14" lengthAdjust="spacing" textLength="143.6641" x="2034" y="746.3857">+error : String [0..1]</text></g><!--class AnalyticsTool--><g id="elem_AnalyticsTool"><rect codeLine="594" fill="#FFFFFF" height="32" id="AnalyticsTool" rx="2.5" ry="2.5" style="stroke:#444444;stroke-width:0.5;" width="125.1465" x="2376.5" y="885.7969"/><ellipse cx="2391.5" cy="901.7969" fill="#ADD1B2" rx="11" ry="11" style="stroke:#181818;stroke-width:1.0;"/><path d="M2394.4688,907.4375 Q2393.8906,907.7344 2393.25,907.875 Q2392.6094,908.0313 2391.9063,908.0313 Q2389.4063,908.0313 2388.0781,906.3906 Q2386.7656,904.7344 2386.7656,901.6094 Q2386.7656,898.4844 2388.0781,896.8281 Q2389.4063,895.1719 2391.9063,895.1719 Q2392.6094,895.1719 2393.25,895.3281 Q2393.9063,895.4844 2394.4688,895.7813 L2394.4688,898.5 Q2393.8438,897.9219 2393.25,897.6563 Q2392.6563,897.375 2392.0313,897.375 Q2390.6875,897.375 2390,898.4531 Q2389.3125,899.5156 2389.3125,901.6094 Q2389.3125,903.7031 2390,904.7813 Q2390.6875,905.8438 2392.0313,905.8438 Q2392.6563,905.8438 2393.25,905.5781 Q2393.8438,905.2969 2394.4688,904.7188 L2394.4688,907.4375 Z " fill="#000000"/><text fill="#000000" font-family="sans-serif" font-size="14" lengthAdjust="spacing" textLength="93.1465" x="2405.5" y="906.6436">AnalyticsTool</text></g><!--class ExerciseDBTool--><g id="elem_ExerciseDBTool"><rect codeLine="595" fill="#FFFFFF" height="32" id="ExerciseDBTool" rx="2.5" ry="2.5" style="stroke:#444444;stroke-width:0.5;" width="140.9512" x="2541.5" y="885.7969"/><ellipse cx="2556.5" cy="901.7969" fill="#ADD1B2" rx="11" ry="11" style="stroke:#181818;stroke-width:1.0;"/><path d="M2559.4688,907.4375 Q2558.8906,907.7344 2558.25,907.875 Q2557.6094,908.0313 2556.9063,908.0313 Q2554.4063,908.0313 2553.0781,906.3906 Q2551.7656,904.7344 2551.7656,901.6094 Q2551.7656,898.4844 2553.0781,896.8281 Q2554.4063,895.1719 2556.9063,895.1719 Q2557.6094,895.1719 2558.25,895.3281 Q2558.9063,895.4844 2559.4688,895.7813 L2559.4688,898.5 Q2558.8438,897.9219 2558.25,897.6563 Q2557.6563,897.375 2557.0313,897.375 Q2555.6875,897.375 2555,898.4531 Q2554.3125,899.5156 2554.3125,901.6094 Q2554.3125,903.7031 2555,904.7813 Q2555.6875,905.8438 2557.0313,905.8438 Q2557.6563,905.8438 2558.25,905.5781 Q2558.8438,905.2969 2559.4688,904.7188 L2559.4688,907.4375 Z " fill="#000000"/><text fill="#000000" font-family="sans-serif" font-size="14" lengthAdjust="spacing" textLength="108.9512" x="2570.5" y="906.6436">ExerciseDBTool</text></g><!--class FoodDBTool--><g id="elem_FoodDBTool"><rect codeLine="596" fill="#FFFFFF" height="32" id="FoodDBTool" rx="2.5" ry="2.5" style="stroke:#444444;stroke-width:0.5;" width="116.0273" x="2723" y="885.7969"/><ellipse cx="2738" cy="901.7969" fill="#ADD1B2" rx="11" ry="11" style="stroke:#181818;stroke-width:1.0;"/><path d="M2740.9688,907.4375 Q2740.3906,907.7344 2739.75,907.875 Q2739.1094,908.0313 2738.4063,908.0313 Q2735.9063,908.0313 2734.5781,906.3906 Q2733.2656,904.7344 2733.2656,901.6094 Q2733.2656,898.4844 2734.5781,896.8281 Q2735.9063,895.1719 2738.4063,895.1719 Q2739.1094,895.1719 2739.75,895.3281 Q2740.4063,895.4844 2740.9688,895.7813 L2740.9688,898.5 Q2740.3438,897.9219 2739.75,897.6563 Q2739.1563,897.375 2738.5313,897.375 Q2737.1875,897.375 2736.5,898.4531 Q2735.8125,899.5156 2735.8125,901.6094 Q2735.8125,903.7031 2736.5,904.7813 Q2737.1875,905.8438 2738.5313,905.8438 Q2739.1563,905.8438 2739.75,905.5781 Q2740.3438,905.2969 2740.9688,904.7188 L2740.9688,907.4375 Z " fill="#000000"/><text fill="#000000" font-family="sans-serif" font-size="14" lengthAdjust="spacing" textLength="84.0273" x="2752" y="906.6436">FoodDBTool</text></g><!--class PlanLookupTool--><g id="elem_PlanLookupTool"><rect codeLine="597" fill="#FFFFFF" height="32" id="PlanLookupTool" rx="2.5" ry="2.5" style="stroke:#444444;stroke-width:0.5;" width="142.1543" x="2879" y="885.7969"/><ellipse cx="2894" cy="901.7969" fill="#ADD1B2" rx="11" ry="11" style="stroke:#181818;stroke-width:1.0;"/><path d="M2896.9688,907.4375 Q2896.3906,907.7344 2895.75,907.875 Q2895.1094,908.0313 2894.4063,908.0313 Q2891.9063,908.0313 2890.5781,906.3906 Q2889.2656,904.7344 2889.2656,901.6094 Q2889.2656,898.4844 2890.5781,896.8281 Q2891.9063,895.1719 2894.4063,895.1719 Q2895.1094,895.1719 2895.75,895.3281 Q2896.4063,895.4844 2896.9688,895.7813 L2896.9688,898.5 Q2896.3438,897.9219 2895.75,897.6563 Q2895.1563,897.375 2894.5313,897.375 Q2893.1875,897.375 2892.5,898.4531 Q2891.8125,899.5156 2891.8125,901.6094 Q2891.8125,903.7031 2892.5,904.7813 Q2893.1875,905.8438 2894.5313,905.8438 Q2895.1563,905.8438 2895.75,905.5781 Q2896.3438,905.2969 2896.9688,904.7188 L2896.9688,907.4375 Z " fill="#000000"/><text fill="#000000" font-family="sans-serif" font-size="14" lengthAdjust="spacing" textLength="110.1543" x="2908" y="906.6436">PlanLookupTool</text></g><!--class RecoveryLookupTool--><g id="elem_RecoveryLookupTool"><rect codeLine="598" fill="#FFFFFF" height="32" id="RecoveryLookupTool" rx="2.5" ry="2.5" style="stroke:#444444;stroke-width:0.5;" width="177.9131" x="3061" y="885.7969"/><ellipse cx="3076" cy="901.7969" fill="#ADD1B2" rx="11" ry="11" style="stroke:#181818;stroke-width:1.0;"/><path d="M3078.9688,907.4375 Q3078.3906,907.7344 3077.75,907.875 Q3077.1094,908.0313 3076.4063,908.0313 Q3073.9063,908.0313 3072.5781,906.3906 Q3071.2656,904.7344 3071.2656,901.6094 Q3071.2656,898.4844 3072.5781,896.8281 Q3073.9063,895.1719 3076.4063,895.1719 Q3077.1094,895.1719 3077.75,895.3281 Q3078.4063,895.4844 3078.9688,895.7813 L3078.9688,898.5 Q3078.3438,897.9219 3077.75,897.6563 Q3077.1563,897.375 3076.5313,897.375 Q3075.1875,897.375 3074.5,898.4531 Q3073.8125,899.5156 3073.8125,901.6094 Q3073.8125,903.7031 3074.5,904.7813 Q3075.1875,905.8438 3076.5313,905.8438 Q3077.1563,905.8438 3077.75,905.5781 Q3078.3438,905.2969 3078.9688,904.7188 L3078.9688,907.4375 Z " fill="#000000"/><text fill="#000000" font-family="sans-serif" font-size="14" lengthAdjust="spacing" textLength="145.9131" x="3090" y="906.6436">RecoveryLookupTool</text></g><!--class AdherenceTool--><g id="elem_AdherenceTool"><rect codeLine="599" fill="#FFFFFF" height="32" id="AdherenceTool" rx="2.5" ry="2.5" style="stroke:#444444;stroke-width:0.5;" width="137.0752" x="1880.5" y="885.7969"/><ellipse cx="1895.5" cy="901.7969" fill="#ADD1B2" rx="11" ry="11" style="stroke:#181818;stroke-width:1.0;"/><path d="M1898.4688,907.4375 Q1897.8906,907.7344 1897.25,907.875 Q1896.6094,908.0313 1895.9063,908.0313 Q1893.4063,908.0313 1892.0781,906.3906 Q1890.7656,904.7344 1890.7656,901.6094 Q1890.7656,898.4844 1892.0781,896.8281 Q1893.4063,895.1719 1895.9063,895.1719 Q1896.6094,895.1719 1897.25,895.3281 Q1897.9063,895.4844 1898.4688,895.7813 L1898.4688,898.5 Q1897.8438,897.9219 1897.25,897.6563 Q1896.6563,897.375 1896.0313,897.375 Q1894.6875,897.375 1894,898.4531 Q1893.3125,899.5156 1893.3125,901.6094 Q1893.3125,903.7031 1894,904.7813 Q1894.6875,905.8438 1896.0313,905.8438 Q1896.6563,905.8438 1897.25,905.5781 Q1897.8438,905.2969 1898.4688,904.7188 L1898.4688,907.4375 Z " fill="#000000"/><text fill="#000000" font-family="sans-serif" font-size="14" lengthAdjust="spacing" textLength="105.0752" x="1909.5" y="906.6436">AdherenceTool</text></g><!--class MemoryManager--><g id="elem_MemoryManager"><rect codeLine="601" fill="#FFFFFF" height="129.4844" id="MemoryManager" rx="2.5" ry="2.5" style="stroke:#444444;stroke-width:0.5;" width="376.2324" x="3309" y="644.7969"/><ellipse cx="3433.7148" cy="660.7969" fill="#ADD1B2" rx="11" ry="11" style="stroke:#181818;stroke-width:1.0;"/><path d="M3436.6836,666.4375 Q3436.1055,666.7344 3435.4648,666.875 Q3434.8242,667.0313 3434.1211,667.0313 Q3431.6211,667.0313 3430.293,665.3906 Q3428.9805,663.7344 3428.9805,660.6094 Q3428.9805,657.4844 3430.293,655.8281 Q3431.6211,654.1719 3434.1211,654.1719 Q3434.8242,654.1719 3435.4648,654.3281 Q3436.1211,654.4844 3436.6836,654.7813 L3436.6836,657.5 Q3436.0586,656.9219 3435.4648,656.6563 Q3434.8711,656.375 3434.2461,656.375 Q3432.9023,656.375 3432.2148,657.4531 Q3431.5273,658.5156 3431.5273,660.6094 Q3431.5273,662.7031 3432.2148,663.7813 Q3432.9023,664.8438 3434.2461,664.8438 Q3434.8711,664.8438 3435.4648,664.5781 Q3436.0586,664.2969 3436.6836,663.7188 L3436.6836,666.4375 Z " fill="#000000"/><text fill="#000000" font-family="sans-serif" font-size="14" lengthAdjust="spacing" textLength="118.3027" x="3454.2148" y="665.6436">MemoryManager</text><line style="stroke:#444444;stroke-width:0.5;" x1="3310" x2="3684.2324" y1="676.7969" y2="676.7969"/><text fill="#000000" font-family="sans-serif" font-size="14" lengthAdjust="spacing" textLength="209.1865" x="3315" y="693.792">-history : ConversationHistory</text><text fill="#000000" font-family="sans-serif" font-size="14" lengthAdjust="spacing" textLength="186.3955" x="3315" y="710.0889">-store : MemoryRepository</text><line style="stroke:#444444;stroke-width:0.5;" x1="3310" x2="3684.2324" y1="717.3906" y2="717.3906"/><text fill="#000000" font-family="sans-serif" font-size="14" lengthAdjust="spacing" textLength="364.2324" x="3315" y="734.3857">+remember(user : Message, reply : Message) : void</text><text fill="#000000" font-family="sans-serif" font-size="14" lengthAdjust="spacing" textLength="309.1006" x="3315" y="750.6826">+recall(query : String, k : int) : List&lt;String&gt;</text><text fill="#000000" font-family="sans-serif" font-size="14" lengthAdjust="spacing" textLength="221.04" x="3315" y="766.9795">+summarizeOlderTurns() : void</text></g><!--class ConversationHistory--><g id="elem_ConversationHistory"><rect codeLine="608" fill="#FFFFFF" height="113.1875" id="ConversationHistory" rx="2.5" ry="2.5" style="stroke:#444444;stroke-width:0.5;" width="324.7646" x="3297.5" y="845.2969"/><ellipse cx="3384.4497" cy="861.2969" fill="#ADD1B2" rx="11" ry="11" style="stroke:#181818;stroke-width:1.0;"/><path d="M3387.4185,866.9375 Q3386.8403,867.2344 3386.1997,867.375 Q3385.5591,867.5313 3384.856,867.5313 Q3382.356,867.5313 3381.0278,865.8906 Q3379.7153,864.2344 3379.7153,861.1094 Q3379.7153,857.9844 3381.0278,856.3281 Q3382.356,854.6719 3384.856,854.6719 Q3385.5591,854.6719 3386.1997,854.8281 Q3386.856,854.9844 3387.4185,855.2813 L3387.4185,858 Q3386.7935,857.4219 3386.1997,857.1563 Q3385.606,856.875 3384.981,856.875 Q3383.6372,856.875 3382.9497,857.9531 Q3382.2622,859.0156 3382.2622,861.1094 Q3382.2622,863.2031 3382.9497,864.2813 Q3383.6372,865.3438 3384.981,865.3438 Q3385.606,865.3438 3386.1997,865.0781 Q3386.7935,864.7969 3387.4185,864.2188 L3387.4185,866.9375 Z " fill="#000000"/><text fill="#000000" font-family="sans-serif" font-size="14" lengthAdjust="spacing" textLength="142.3652" x="3404.9497" y="866.1436">ConversationHistory</text><line style="stroke:#444444;stroke-width:0.5;" x1="3298.5" x2="3621.2646" y1="877.2969" y2="877.2969"/><text fill="#000000" font-family="sans-serif" font-size="14" lengthAdjust="spacing" textLength="312.7646" x="3303.5" y="894.292">-chatMemory : MessageWindowChatMemory</text><text fill="#000000" font-family="sans-serif" font-size="14" lengthAdjust="spacing" textLength="145.2158" x="3303.5" y="910.5889">-maxTurns : int = 20</text><line style="stroke:#444444;stroke-width:0.5;" x1="3298.5" x2="3621.2646" y1="917.8906" y2="917.8906"/><text fill="#000000" font-family="sans-serif" font-size="14" lengthAdjust="spacing" textLength="207.2383" x="3303.5" y="934.8857">+append(m : Message) : void</text><text fill="#000000" font-family="sans-serif" font-size="14" lengthAdjust="spacing" textLength="231.3486" x="3303.5" y="951.1826">+recent(n : int) : List&lt;Message&gt;</text></g><!--link Tool to ToolSchema--><g id="link_Tool_ToolSchema"><path codeLine="781" d="M2366.5,753.8369 C2366.5,802.0969 2366.5,872.2969 2366.5,872.2969 C2366.5,872.2969 2360.36,872.2969 2342.59,872.2969 " fill="none" id="Tool-to-ToolSchema" style="stroke:#444444;stroke-width:1.0;stroke-dasharray:7.0,7.0;"/><polygon fill="#444444" points="2336.59,872.2969,2345.59,876.2969,2341.59,872.2969,2345.59,868.2969,2336.59,872.2969" style="stroke:#444444;stroke-width:1.0;"/></g><!--reverse link CoachAgent to BlockGenerationAgent--><g id="link_CoachAgent_BlockGenerationAgent"><path codeLine="803" d="M2671.5,398.4169 C2671.5,453.3669 2671.5,484.2969 2671.5,484.2969 C2671.5,484.2969 2405.4,484.2969 2246.62,484.2969 " fill="none" id="CoachAgent-backto-BlockGenerationAgent" style="stroke:#444444;stroke-width:1.0;"/><polygon fill="none" points="2671.5,380.4169,2665.5,398.4169,2677.5,398.4169,2671.5,380.4169" style="stroke:#444444;stroke-width:1.0;"/></g><!--reverse link CoachAgent to SubstitutionAgent--><g id="link_CoachAgent_SubstitutionAgent"><path codeLine="804" d="M2645.38,358.2969 C2503.37,358.2969 2366,358.2969 2366,358.2969 C2366,358.2969 2366,453.5469 2366,492.2469 " fill="none" id="CoachAgent-backto-SubstitutionAgent" style="stroke:#444444;stroke-width:1.0;"/><polygon fill="none" points="2663.38,358.2969,2645.38,352.2969,2645.38,364.2969,2663.38,358.2969" style="stroke:#444444;stroke-width:1.0;"/></g><!--reverse link CoachAgent to AdjustmentAgent--><g id="link_CoachAgent_AdjustmentAgent"><path codeLine="805" d="M2675.5,398.4569 C2675.5,464.0769 2675.5,508.2969 2675.5,508.2969 C2675.5,508.2969 2659.37,508.2969 2639.28,508.2969 " fill="none" id="CoachAgent-backto-AdjustmentAgent" style="stroke:#444444;stroke-width:1.0;"/><polygon fill="none" points="2675.5,380.4569,2669.5,398.4569,2681.5,398.4569,2675.5,380.4569" style="stroke:#444444;stroke-width:1.0;"/></g><!--reverse link CoachAgent to AttemptRationaleAgent--><g id="link_CoachAgent_AttemptRationaleAgent"><path codeLine="806" d="M2778,398.4569 C2778,443.8269 2778,469.5769 2778,492.2469 " fill="none" id="CoachAgent-backto-AttemptRationaleAgent" style="stroke:#444444;stroke-width:1.0;"/><polygon fill="none" points="2778,380.4569,2772,398.4569,2784,398.4569,2778,380.4569" style="stroke:#444444;stroke-width:1.0;"/></g><!--reverse link CoachAgent to MealSuggestionAgent--><g id="link_CoachAgent_MealSuggestionAgent"><path codeLine="807" d="M3009,398.4569 C3009,443.8269 3009,469.5769 3009,492.2469 " fill="none" id="CoachAgent-backto-MealSuggestionAgent" style="stroke:#444444;stroke-width:1.0;"/><polygon fill="none" points="3009,380.4569,3003,398.4569,3015,398.4569,3009,380.4569" style="stroke:#444444;stroke-width:1.0;"/></g><!--reverse link CoachAgent to ProgressionAgent--><g id="link_CoachAgent_ProgressionAgent"><path codeLine="808" d="M3105.7,398.5369 C3105.7,455.2569 3105.7,488.2969 3105.7,488.2969 C3105.7,488.2969 3120.66,488.2969 3141.17,488.2969 " fill="none" id="CoachAgent-backto-ProgressionAgent" style="stroke:#444444;stroke-width:1.0;"/><polygon fill="none" points="3105.7,380.5369,3099.7,398.5369,3111.7,398.5369,3105.7,380.5369" style="stroke:#444444;stroke-width:1.0;"/></g><!--reverse link CoachAgent to ChatAgent--><g id="link_CoachAgent_ChatAgent"><path codeLine="809" d="M3140.77,357.2969 C3318.32,357.2969 3516,357.2969 3516,357.2969 C3516,357.2969 3516,436.5769 3516,480.2469 " fill="none" id="CoachAgent-backto-ChatAgent" style="stroke:#444444;stroke-width:1.0;"/><polygon fill="none" points="3122.77,357.2969,3140.77,363.2969,3140.77,351.2969,3122.77,357.2969" style="stroke:#444444;stroke-width:1.0;"/></g><!--reverse link CoachAgent to LLMClient--><g id="link_CoachAgent_LLMClient"><path codeLine="810" d="M2651.41,314.2969 C2080.48,314.2969 654.25,314.2969 654.25,314.2969 C654.25,314.2969 654.25,420.0369 654.25,475.3869 " fill="none" id="CoachAgent-backto-LLMClient" style="stroke:#444444;stroke-width:1.0;"/><polygon fill="none" points="2663.41,314.2969,2657.41,310.2969,2651.41,314.2969,2657.41,318.2969,2663.41,314.2969" style="stroke:#444444;stroke-width:1.0;"/><text fill="#000000" font-family="sans-serif" font-size="13" lengthAdjust="spacing" textLength="6.5" x="2649.0615" y="314.1384">*</text><text fill="#000000" font-family="sans-serif" font-size="13" lengthAdjust="spacing" textLength="8.271" x="674.5113" y="464.805">1</text></g><!--reverse link CoachAgent to ToolManager--><g id="link_CoachAgent_ToolManager"><path codeLine="811" d="M2667.5,392.3669 C2667.5,432.1869 2667.5,452.2969 2667.5,452.2969 C2667.5,452.2969 2210.48,452.2969 1975.72,452.2969 " fill="none" id="CoachAgent-backto-ToolManager" style="stroke:#444444;stroke-width:1.0;"/><polygon fill="#444444" points="2667.5,380.3669,2663.5,386.3669,2667.5,392.3669,2671.5,386.3669,2667.5,380.3669" style="stroke:#444444;stroke-width:1.0;"/><text fill="#000000" font-family="sans-serif" font-size="13" lengthAdjust="spacing" textLength="8.271" x="2648.3918" y="400.1003">1</text><text fill="#000000" font-family="sans-serif" font-size="13" lengthAdjust="spacing" textLength="8.271" x="1983.7969" y="445.6825">1</text></g><!--link CoachAgent to PromptBuilder--><g id="link_CoachAgent_PromptBuilder"><path codeLine="812" d="M3118.3,380.3569 C3118.3,418.2069 3118.3,448.2969 3118.3,448.2969 C3118.3,448.2969 3998.02,448.2969 4398.93,448.2969 " fill="none" id="CoachAgent-to-PromptBuilder" style="stroke:#444444;stroke-width:1.0;"/><polygon fill="#444444" points="4404.93,448.2969,4395.93,444.2969,4399.93,448.2969,4395.93,452.2969,4404.93,448.2969" style="stroke:#444444;stroke-width:1.0;"/></g><!--link CoachAgent to ResponseParser--><g id="link_CoachAgent_ResponseParser"><path codeLine="813" d="M3122.99,311.2969 C3662.37,311.2969 4963.5,311.2969 4963.5,311.2969 C4963.5,311.2969 4963.5,391.4069 4963.5,449.7669 " fill="none" id="CoachAgent-to-ResponseParser" style="stroke:#444444;stroke-width:1.0;"/><polygon fill="#444444" points="4963.5,455.7669,4967.5,446.7669,4963.5,450.7669,4959.5,446.7669,4963.5,455.7669" style="stroke:#444444;stroke-width:1.0;"/></g><!--link CoachAgent to PlanValidator--><g id="link_CoachAgent_PlanValidator"><path codeLine="814" d="M2663.33,336.2969 C2216.15,336.2969 1272,336.2969 1272,336.2969 C1272,336.2969 1272,385.0969 1272,432.8369 " fill="none" id="CoachAgent-to-PlanValidator" style="stroke:#444444;stroke-width:1.0;"/><polygon fill="#444444" points="1272,438.8369,1276,429.8369,1272,433.8369,1268,429.8369,1272,438.8369" style="stroke:#444444;stroke-width:1.0;"/></g><!--link CoachAgent to AgentRequest--><g id="link_CoachAgent_AgentRequest"><path codeLine="815" d="M3109.9,380.6369 C3109.9,431.8169 3109.9,476.2969 3109.9,476.2969 C3109.9,476.2969 3461.34,476.2969 3653.33,476.2969 " fill="none" id="CoachAgent-to-AgentRequest" style="stroke:#444444;stroke-width:1.0;stroke-dasharray:7.0,7.0;"/><polygon fill="#444444" points="3659.33,476.2969,3650.33,472.2969,3654.33,476.2969,3650.33,480.2969,3659.33,476.2969" style="stroke:#444444;stroke-width:1.0;"/></g><!--link CoachAgent to AgentContext--><g id="link_CoachAgent_AgentContext"><path codeLine="816" d="M3122.73,334.2969 C3434.52,334.2969 3953.25,334.2969 3953.25,334.2969 C3953.25,334.2969 3953.25,414.3169 3953.25,465.3969 " fill="none" id="CoachAgent-to-AgentContext" style="stroke:#444444;stroke-width:1.0;stroke-dasharray:7.0,7.0;"/><polygon fill="#444444" points="3953.25,471.3969,3957.25,462.3969,3953.25,466.3969,3949.25,462.3969,3953.25,471.3969" style="stroke:#444444;stroke-width:1.0;"/></g><!--link CoachAgent to AgentResult--><g id="link_CoachAgent_AgentResult"><path codeLine="817" d="M3114.1,380.2969 C3114.1,425.9669 3114.1,464.2969 3114.1,464.2969 C3114.1,464.2969 3920.92,464.2969 4189.21,464.2969 " fill="none" id="CoachAgent-to-AgentResult" style="stroke:#444444;stroke-width:1.0;stroke-dasharray:7.0,7.0;"/><polygon fill="#444444" points="4195.21,464.2969,4186.21,460.2969,4190.21,464.2969,4186.21,468.2969,4195.21,464.2969" style="stroke:#444444;stroke-width:1.0;"/></g><!--link PlanValidator to ValidationReport--><g id="link_PlanValidator_ValidationReport"><path codeLine="820" d="M1635.5,577.5269 C1635.5,609.8369 1635.5,641.2969 1635.5,641.2969 C1635.5,641.2969 1870.83,641.2969 1870.83,641.2969 C1870.83,641.2969 1870.83,650.4869 1870.83,666.5069 " fill="none" id="PlanValidator-to-ValidationReport" style="stroke:#444444;stroke-width:1.0;stroke-dasharray:7.0,7.0;"/><polygon fill="#444444" points="1870.83,672.5069,1874.83,663.5069,1870.83,667.5069,1866.83,663.5069,1870.83,672.5069" style="stroke:#444444;stroke-width:1.0;"/></g><!--link ChatAgent to MemoryManager--><g id="link_ChatAgent_MemoryManager"><path codeLine="821" d="M3516,536.6669 C3516,564.5869 3516,602.2069 3516,638.6069 " fill="none" id="ChatAgent-to-MemoryManager" style="stroke:#444444;stroke-width:1.0;"/><polygon fill="#444444" points="3516,644.6069,3520,635.6069,3516,639.6069,3512,635.6069,3516,644.6069" style="stroke:#444444;stroke-width:1.0;"/><text fill="#000000" font-family="sans-serif" font-size="13" lengthAdjust="spacing" textLength="8.271" x="3509.6427" y="633.7588">1</text></g><!--reverse link LLMClient to ClaudeClient--><g id="link_LLMClient_ClaudeClient"><path codeLine="822" d="M330.25,559.0369 C330.25,584.7369 330.25,603.4969 330.25,636.1069 " fill="none" id="LLMClient-backto-ClaudeClient" style="stroke:#444444;stroke-width:1.0;stroke-dasharray:7.0,7.0;"/><polygon fill="none" points="330.25,541.0369,324.25,559.0369,336.25,559.0369,330.25,541.0369" style="stroke:#444444;stroke-width:1.0;"/></g><!--reverse link LLMClient to ScriptedLLMClient--><g id="link_LLMClient_ScriptedLLMClient"><path codeLine="823" d="M658,559.0369 C658,597.9769 658,644.3069 658,681.1169 " fill="none" id="LLMClient-backto-ScriptedLLMClient" style="stroke:#444444;stroke-width:1.0;stroke-dasharray:7.0,7.0;"/><polygon fill="none" points="658,541.0369,652,559.0369,664,559.0369,658,541.0369" style="stroke:#444444;stroke-width:1.0;"/></g><!--reverse link LLMClient to LLMClientDecorator--><g id="link_LLMClient_LLMClientDecorator"><path codeLine="824" d="M825.5,559.0369 C825.5,592.6369 825.5,627.1369 825.5,664.5569 " fill="none" id="LLMClient-backto-LLMClientDecorator" style="stroke:#444444;stroke-width:1.0;stroke-dasharray:7.0,7.0;"/><polygon fill="none" points="825.5,541.0369,819.5,559.0369,831.5,559.0369,825.5,541.0369" style="stroke:#444444;stroke-width:1.0;"/></g><!--reverse link LLMClientDecorator to LLMClient--><g id="link_LLMClientDecorator_LLMClient"><path codeLine="827" d="M830,652.6869 C830,615.2169 830,574.5469 830,540.9169 " fill="none" id="LLMClientDecorator-backto-LLMClient" style="stroke:#444444;stroke-width:1.0;"/><polygon fill="none" points="830,664.6869,834,658.6869,830,652.6869,826,658.6869,830,664.6869" style="stroke:#444444;stroke-width:1.0;"/><polygon fill="#000000" points="782,589.3633,779.0611,598.4084,784.9389,598.4084,782,589.3633" style="stroke:#000000;stroke-width:1.0;"/><text fill="#000000" font-family="sans-serif" font-size="13" lengthAdjust="spacing" textLength="38.9683" x="791" y="598.8638">wraps</text><text fill="#000000" font-family="sans-serif" font-size="13" lengthAdjust="spacing" textLength="8.271" x="804.8816" y="659.0739">1</text><text fill="#000000" font-family="sans-serif" font-size="13" lengthAdjust="spacing" textLength="8.271" x="846.8067" y="556.0773">1</text></g><!--reverse link LLMClientDecorator to CachingLLMClient--><g id="link_LLMClientDecorator_CachingLLMClient"><path codeLine="825" d="M933.25,771.9469 C933.25,796.5969 933.25,809.6769 933.25,836.9569 " fill="none" id="LLMClientDecorator-backto-CachingLLMClient" style="stroke:#444444;stroke-width:1.0;"/><polygon fill="none" points="933.25,753.9469,927.25,771.9469,939.25,771.9469,933.25,753.9469" style="stroke:#444444;stroke-width:1.0;"/></g><!--reverse link LLMClientDecorator to RecordingLLMClient--><g id="link_LLMClientDecorator_RecordingLLMClient"><path codeLine="826" d="M1246,771.9469 C1246,804.2669 1246,829.6069 1246,861.0069 " fill="none" id="LLMClientDecorator-backto-RecordingLLMClient" style="stroke:#444444;stroke-width:1.0;"/><polygon fill="none" points="1246,753.9469,1240,771.9469,1252,771.9469,1246,753.9469" style="stroke:#444444;stroke-width:1.0;"/></g><!--link LLMClientProvider to LLMClient--><g id="link_LLMClientProvider_LLMClient"><path codeLine="828" d="M332,270.5869 C332,326.1869 332,418.6669 332,469.6569 " fill="none" id="LLMClientProvider-to-LLMClient" style="stroke:#444444;stroke-width:1.0;stroke-dasharray:7.0,7.0;"/><polygon fill="#444444" points="332,475.6569,336,466.6569,332,470.6569,328,466.6569,332,475.6569" style="stroke:#444444;stroke-width:1.0;"/><text fill="#000000" font-family="sans-serif" font-size="13" lengthAdjust="spacing" textLength="48.3247" x="283" y="369.1938">creates</text></g><!--link LLMClientProvider to ModelTier--><g id="link_LLMClientProvider_ModelTier"><path codeLine="829" d="M194.18,230.2969 C125.61,230.2969 57.17,230.2969 57.17,230.2969 C57.17,230.2969 57.17,390.1769 57.17,465.6669 " fill="none" id="LLMClientProvider-to-ModelTier" style="stroke:#444444;stroke-width:1.0;"/><polygon fill="#444444" points="57.17,471.6669,61.17,462.6669,57.17,466.6669,53.17,462.6669,57.17,471.6669" style="stroke:#444444;stroke-width:1.0;"/></g><!--link CoachAgent to ModelTier--><g id="link_CoachAgent_ModelTier"><path codeLine="830" d="M2663.39,292.2969 C1993.88,292.2969 90.83,292.2969 90.83,292.2969 C90.83,292.2969 90.83,404.0269 90.83,465.6569 " fill="none" id="CoachAgent-to-ModelTier" style="stroke:#444444;stroke-width:1.0;"/><polygon fill="#444444" points="90.83,471.6569,94.83,462.6569,90.83,466.6569,86.83,462.6569,90.83,471.6569" style="stroke:#444444;stroke-width:1.0;"/></g><!--link LLMClient to LLMResponse--><g id="link_LLMClient_LLMResponse"><path codeLine="831" d="M834.5,540.8069 C834.5,570.3369 834.5,609.2969 834.5,609.2969 C834.5,609.2969 1606.5,609.2969 1606.5,609.2969 C1606.5,609.2969 1606.5,631.9369 1606.5,658.5569 " fill="none" id="LLMClient-to-LLMResponse" style="stroke:#444444;stroke-width:1.0;stroke-dasharray:7.0,7.0;"/><polygon fill="#444444" points="1606.5,664.5569,1610.5,655.5569,1606.5,659.5569,1602.5,655.5569,1606.5,664.5569" style="stroke:#444444;stroke-width:1.0;"/></g><!--link LLMClient to Message--><g id="link_LLMClient_Message"><path codeLine="832" d="M515.5,541.0569 C515.5,659.4569 515.5,1058.2969 515.5,1058.2969 C515.5,1058.2969 2080.32,1058.2969 2425.47,1058.2969 " fill="none" id="LLMClient-to-Message" style="stroke:#444444;stroke-width:1.0;stroke-dasharray:7.0,7.0;"/><polygon fill="#444444" points="2431.47,1058.2969,2422.47,1054.2969,2426.47,1058.2969,2422.47,1062.2969,2431.47,1058.2969" style="stroke:#444444;stroke-width:1.0;"/></g><!--reverse link LLMResponse to ToolCall--><g id="link_LLMResponse_ToolCall"><path codeLine="833" d="M1678,765.9469 C1678,796.9269 1678,826.0469 1678,857.0569 " fill="none" id="LLMResponse-backto-ToolCall" style="stroke:#444444;stroke-width:1.0;"/><polygon fill="#444444" points="1678,753.9469,1674,759.9469,1678,765.9469,1682,759.9469,1678,753.9469" style="stroke:#444444;stroke-width:1.0;"/><text fill="#000000" font-family="sans-serif" font-size="13" lengthAdjust="spacing" textLength="8.271" x="1669.4379" y="773.6911">1</text><text fill="#000000" font-family="sans-serif" font-size="13" lengthAdjust="spacing" textLength="23.0356" x="1648.523" y="846.1431">0..*</text></g><!--reverse link ToolManager to Tool--><g id="link_ToolManager_Tool"><path codeLine="834" d="M1987.6,567.2969 C2152.11,567.2969 2395.75,567.2969 2395.75,567.2969 C2395.75,567.2969 2395.75,623.1169 2395.75,664.7569 " fill="none" id="ToolManager-backto-Tool" style="stroke:#444444;stroke-width:1.0;"/><polygon fill="none" points="1975.6,567.2969,1981.6,571.2969,1987.6,567.2969,1981.6,563.2969,1975.6,567.2969" style="stroke:#444444;stroke-width:1.0;"/><text fill="#000000" font-family="sans-serif" font-size="13" lengthAdjust="spacing" textLength="8.271" x="1983.67" y="567.331">1</text><text fill="#000000" font-family="sans-serif" font-size="13" lengthAdjust="spacing" textLength="6.5" x="2368.4403" y="653.8737">*</text></g><!--link ToolManager to ToolCall--><g id="link_ToolManager_ToolCall"><path codeLine="835" d="M1798.5,572.8369 C1798.5,652.9669 1798.5,781.5469 1798.5,851.1269 " fill="none" id="ToolManager-to-ToolCall" style="stroke:#444444;stroke-width:1.0;stroke-dasharray:7.0,7.0;"/><polygon fill="#444444" points="1798.5,857.1269,1802.5,848.1269,1798.5,852.1269,1794.5,848.1269,1798.5,857.1269" style="stroke:#444444;stroke-width:1.0;"/></g><!--link ToolManager to ToolResult--><g id="link_ToolManager_ToolResult"><path codeLine="836" d="M1923.17,572.8569 C1923.17,617.6469 1923.17,669.2969 1923.17,669.2969 C1923.17,669.2969 1972.24,669.2969 2021.93,669.2969 " fill="none" id="ToolManager-to-ToolResult" style="stroke:#444444;stroke-width:1.0;stroke-dasharray:7.0,7.0;"/><polygon fill="#444444" points="2027.93,669.2969,2018.93,665.2969,2022.93,669.2969,2018.93,673.2969,2027.93,669.2969" style="stroke:#444444;stroke-width:1.0;"/></g><!--reverse link Tool to AnalyticsTool--><g id="link_Tool_AnalyticsTool"><path codeLine="837" d="M2439,771.9469 C2439,813.9269 2439,856.5069 2439,885.3469 " fill="none" id="Tool-backto-AnalyticsTool" style="stroke:#444444;stroke-width:1.0;stroke-dasharray:7.0,7.0;"/><polygon fill="none" points="2439,753.9469,2433,771.9469,2445,771.9469,2439,753.9469" style="stroke:#444444;stroke-width:1.0;"/></g><!--reverse link Tool to ExerciseDBTool--><g id="link_Tool_ExerciseDBTool"><path codeLine="838" d="M2612,771.9469 C2612,813.9269 2612,856.5069 2612,885.3469 " fill="none" id="Tool-backto-ExerciseDBTool" style="stroke:#444444;stroke-width:1.0;stroke-dasharray:7.0,7.0;"/><polygon fill="none" points="2612,753.9469,2606,771.9469,2618,771.9469,2612,753.9469" style="stroke:#444444;stroke-width:1.0;"/></g><!--reverse link Tool to FoodDBTool--><g id="link_Tool_FoodDBTool"><path codeLine="839" d="M2700,772.0569 C2700,829.0769 2700,902.2969 2700,902.2969 C2700,902.2969 2710.01,902.2969 2722.99,902.2969 " fill="none" id="Tool-backto-FoodDBTool" style="stroke:#444444;stroke-width:1.0;stroke-dasharray:7.0,7.0;"/><polygon fill="none" points="2700,754.0569,2694,772.0569,2706,772.0569,2700,754.0569" style="stroke:#444444;stroke-width:1.0;"/></g><!--reverse link Tool to PlanLookupTool--><g id="link_Tool_PlanLookupTool"><path codeLine="840" d="M2735.55,724.2969 C2826.09,724.2969 2897.75,724.2969 2897.75,724.2969 C2897.75,724.2969 2897.75,842.0369 2897.75,885.7269 " fill="none" id="Tool-backto-PlanLookupTool" style="stroke:#444444;stroke-width:1.0;stroke-dasharray:7.0,7.0;"/><polygon fill="none" points="2717.55,724.2969,2735.55,730.2969,2735.55,718.2969,2717.55,724.2969" style="stroke:#444444;stroke-width:1.0;"/></g><!--reverse link Tool to RecoveryLookupTool--><g id="link_Tool_RecoveryLookupTool"><path codeLine="841" d="M2735.57,695.2969 C2894.97,695.2969 3081.25,695.2969 3081.25,695.2969 C3081.25,695.2969 3081.25,836.9169 3081.25,885.5969 " fill="none" id="Tool-backto-RecoveryLookupTool" style="stroke:#444444;stroke-width:1.0;stroke-dasharray:7.0,7.0;"/><polygon fill="none" points="2717.57,695.2969,2735.57,701.2969,2735.57,689.2969,2717.57,695.2969" style="stroke:#444444;stroke-width:1.0;"/></g><!--reverse link Tool to AdherenceTool--><g id="link_Tool_AdherenceTool"><path codeLine="842" d="M2356.5,771.8869 C2356.5,798.9469 2356.5,810.2969 2356.5,810.2969 C2356.5,810.2969 2001.5,810.2969 2001.5,810.2969 C2001.5,810.2969 2001.5,859.1169 2001.5,885.4369 " fill="none" id="Tool-backto-AdherenceTool" style="stroke:#444444;stroke-width:1.0;stroke-dasharray:7.0,7.0;"/><polygon fill="none" points="2356.5,753.8869,2350.5,771.8869,2362.5,771.8869,2356.5,753.8869" style="stroke:#444444;stroke-width:1.0;"/></g><!--reverse link MemoryManager to ConversationHistory--><g id="link_MemoryManager_ConversationHistory"><path codeLine="851" d="M3465.75,785.9369 C3465.75,808.9769 3465.75,822.7469 3465.75,845.0769 " fill="none" id="MemoryManager-backto-ConversationHistory" style="stroke:#444444;stroke-width:1.0;"/><polygon fill="#444444" points="3465.75,773.9369,3461.75,779.9369,3465.75,785.9369,3469.75,779.9369,3465.75,773.9369" style="stroke:#444444;stroke-width:1.0;"/><text fill="#000000" font-family="sans-serif" font-size="13" lengthAdjust="spacing" textLength="8.271" x="3457.9941" y="834.3136">1</text></g><!--reverse link ConversationHistory to Message--><g id="link_ConversationHistory_Message"><path codeLine="852" d="M3285.32,952.2969 C3024.31,952.2969 2553,952.2969 2553,952.2969 C2553,952.2969 2553,990.7269 2553,1021.1969 " fill="none" id="ConversationHistory-backto-Message" style="stroke:#444444;stroke-width:1.0;"/><polygon fill="#444444" points="3297.32,952.2969,3291.32,948.2969,3285.32,952.2969,3291.32,956.2969,3297.32,952.2969" style="stroke:#444444;stroke-width:1.0;"/><text fill="#000000" font-family="sans-serif" font-size="13" lengthAdjust="spacing" textLength="8.271" x="3281.2587" y="951.4453">1</text><text fill="#000000" font-family="sans-serif" font-size="13" lengthAdjust="spacing" textLength="23.0356" x="2538.0485" y="1010.1825">0..*</text></g><!--SRC=[KypCIyufJKbLoCrFIStHoopDpU4goIp9ILK8BiWlAKajKdZKC4N1CJqrhqJ19x4ojOYhA3KtlonLGQMWABKOpaaiA82pK_9puUpClBIYH000]--></g></svg>